M48
;Layer_Color=9474304
;FILE_FORMAT=4:4
METRIC,LZ
;TYPE=PLATED
T1F00S00C0.3000
T2F00S00C0.3500
T5F00S00C0.8999
T6F00S00C0.9000
%
T01
X01045Y0108
X01265Y01271
X01305Y01296
X01266Y01526
X01049Y01499
X01025Y01495
X00999Y01482
Y01516
X00935Y0157
X00824Y01584
X00885Y01285
X01008Y01306
X0116Y0129
X011Y0163
X01045Y01651
X01014Y01628
X01025Y0175
X01044Y01747
X0094Y01775
X00955Y01865
X01022Y01922
X01058Y01907
X01155Y01865
X01175Y01775
X00825Y01833
X01271Y01781
X01265Y02045
X01375Y0211
X0114
X009
X00828Y02094
X0072Y0211
T02
X01255Y01463
X0115Y01532
X00844Y0139
X00996Y01211
T05
X00904999Y01105
X0093
X00955001
X01134999
X0116
X01185001
Y01375
X0116
X01134999
X00955001
X0093
X00904999
Y01635
X0093
X00955001
X01134999
X0116
X01185001
Y01905
X0116
X01134999
X00955001
X0093
X00904999
T06
X013173Y0127
X013427
Y0154
X013173
X0106Y0139
X010346
Y013646
X0106
Y013392
X010346
Y013138
X0106
Y012884
X010346
Y01263
X0106
Y012376
X010346
Y012122
X0106
X013173Y018
X013427
Y0207
X013173
M30
