M48
;Layer_Color=9474304
;FILE_FORMAT=4:4
METRIC,LZ
;TYPE=PLATED
T3F00S00C0.6000
T4F00S00C0.7000
T7F00S00C1.2000
%
G90
G05
T03
G00X01325Y012192
M15
G01X01335
M16
G00X01325Y014892
M15
G01X01335
M16
G00X00755Y014892
M15
G01X00765
M16
G00X00755Y012192
M15
G01X00765
M16
G00X00755Y017492
M15
G01X00765
M16
G00X01325Y017492
M15
G01X01335
M16
G00X01325Y020192
M15
G01X01335
M16
G00X00755Y020192
M15
G01X00765
M16
T04
G00X007565Y011052
M15
G01X007635
M16
G00X00755Y011362
M15
G01X00765
M16
G00X01325Y011362
M15
G01X01335
M16
G00X013265Y011052
M15
G01X013335
M16
G00X013265Y013752
M15
G01X013335
M16
G00X01325Y014062
M15
G01X01335
M16
G00X00755Y014062
M15
G01X00765
M16
G00X007565Y013752
M15
G01X007635
M16
G00X007565Y016352
M15
G01X007635
M16
G00X00755Y016662
M15
G01X00765
M16
G00X007565Y019052
M15
G01X007635
M16
G00X00755Y019362
M15
G01X00765
M16
G00X01325Y019362
M15
G01X01335
M16
G00X013265Y019052
M15
G01X013335
M16
G00X01325Y016662
M15
G01X01335
M16
G00X013265Y016352
M15
G01X013335
M16
T07
G00X00881Y01168
M15
G01Y01182
M16
G00X00979Y01168
M15
G01Y01182
M16
G00X01111Y01168
M15
G01Y01182
M16
G00X01209Y01168
M15
G01Y01182
M16
G00X01209Y01438
M15
G01Y01452
M16
G00X01111Y01438
M15
G01Y01452
M16
G00X00979Y01438
M15
G01Y01452
M16
G00X00881Y01438
M15
G01Y01452
M16
G00X00881Y01698
M15
G01Y01712
M16
G00X00979Y01698
M15
G01Y01712
M16
G00X01111Y01698
M15
G01Y01712
M16
G00X01111Y01968
M15
G01Y01982
M16
G00X00979Y01968
M15
G01Y01982
M16
G00X00881Y01968
M15
G01Y01982
M16
G00X01209Y01968
M15
G01Y01982
M16
G00X01209Y01698
M15
G01Y01712
M16
M17
M30
