G04 Layer_Physical_Order=1*
G04 Layer_Color=255*
%FSLAX44Y44*%
%MOMM*%
G71*
G01*
G75*
%ADD10C,0.6000*%
%ADD11C,0.3000*%
%ADD12C,0.2000*%
%ADD13C,1.4000*%
%ADD14O,2.7000X1.7000*%
%ADD15O,2.6000X1.6000*%
%ADD16O,2.4000X1.7000*%
%ADD17R,1.5000X1.5000*%
%ADD18C,1.5000*%
%ADD19C,1.4224*%
%ADD20O,1.8000X3.2000*%
%ADD21O,1.8000X3.1999*%
%ADD22C,0.6000*%
%ADD23C,0.8000*%
G36*
X1385000Y2040000D02*
Y1070000D01*
X705000D01*
Y2120000D01*
X1385000D01*
Y2040000D01*
D02*
G37*
%LPC*%
G36*
X1376270Y2115396D02*
Y2111270D01*
X1380396D01*
X1380219Y2112162D01*
X1378994Y2113994D01*
X1377162Y2115219D01*
X1376270Y2115396D01*
D02*
G37*
G36*
X1373730D02*
X1372838Y2115219D01*
X1371006Y2113994D01*
X1369781Y2112162D01*
X1369604Y2111270D01*
X1373730D01*
Y2115396D01*
D02*
G37*
G36*
X1141270D02*
Y2111270D01*
X1145396D01*
X1145219Y2112162D01*
X1143994Y2113994D01*
X1142162Y2115219D01*
X1141270Y2115396D01*
D02*
G37*
G36*
X1138730D02*
X1137838Y2115219D01*
X1136006Y2113994D01*
X1134781Y2112162D01*
X1134604Y2111270D01*
X1138730D01*
Y2115396D01*
D02*
G37*
G36*
X901270D02*
Y2111270D01*
X905396D01*
X905219Y2112162D01*
X903994Y2113994D01*
X902162Y2115219D01*
X901270Y2115396D01*
D02*
G37*
G36*
X898730D02*
X897838Y2115219D01*
X896006Y2113994D01*
X894781Y2112162D01*
X894604Y2111270D01*
X898730D01*
Y2115396D01*
D02*
G37*
G36*
X721270D02*
Y2111270D01*
X725396D01*
X725219Y2112162D01*
X723994Y2113994D01*
X722162Y2115219D01*
X721270Y2115396D01*
D02*
G37*
G36*
X718730D02*
X717838Y2115219D01*
X716006Y2113994D01*
X714781Y2112162D01*
X714604Y2111270D01*
X718730D01*
Y2115396D01*
D02*
G37*
G36*
X1380396Y2108730D02*
X1376270D01*
Y2104604D01*
X1377162Y2104781D01*
X1378994Y2106006D01*
X1380219Y2107838D01*
X1380396Y2108730D01*
D02*
G37*
G36*
X1373730D02*
X1369604D01*
X1369781Y2107838D01*
X1371006Y2106006D01*
X1372838Y2104781D01*
X1373730Y2104604D01*
Y2108730D01*
D02*
G37*
G36*
X1145396D02*
X1141270D01*
Y2104604D01*
X1142162Y2104781D01*
X1143994Y2106006D01*
X1145219Y2107838D01*
X1145396Y2108730D01*
D02*
G37*
G36*
X1138730D02*
X1134604D01*
X1134781Y2107838D01*
X1136006Y2106006D01*
X1137838Y2104781D01*
X1138730Y2104604D01*
Y2108730D01*
D02*
G37*
G36*
X905396D02*
X901270D01*
Y2104604D01*
X902162Y2104781D01*
X903994Y2106006D01*
X905219Y2107838D01*
X905396Y2108730D01*
D02*
G37*
G36*
X898730D02*
X894604D01*
X894781Y2107838D01*
X896006Y2106006D01*
X897838Y2104781D01*
X898730Y2104604D01*
Y2108730D01*
D02*
G37*
G36*
X725396D02*
X721270D01*
Y2104604D01*
X722162Y2104781D01*
X723994Y2106006D01*
X725219Y2107838D01*
X725396Y2108730D01*
D02*
G37*
G36*
X718730D02*
X714604D01*
X714781Y2107838D01*
X716006Y2106006D01*
X717838Y2104781D01*
X718730Y2104604D01*
Y2108730D01*
D02*
G37*
G36*
X1110503Y2100535D02*
X984460D01*
Y2074460D01*
X1110503D01*
Y2100535D01*
D02*
G37*
G36*
X1342700Y2079622D02*
X1340210Y2079294D01*
X1337889Y2078333D01*
X1335896Y2076804D01*
X1334367Y2074811D01*
X1333406Y2072490D01*
X1333078Y2070000D01*
X1333406Y2067510D01*
X1334367Y2065189D01*
X1335896Y2063196D01*
X1337889Y2061667D01*
X1340210Y2060706D01*
X1342700Y2060378D01*
X1345190Y2060706D01*
X1347511Y2061667D01*
X1349504Y2063196D01*
X1351033Y2065189D01*
X1351994Y2067510D01*
X1352322Y2070000D01*
X1351994Y2072490D01*
X1351033Y2074811D01*
X1349504Y2076804D01*
X1347511Y2078333D01*
X1345190Y2079294D01*
X1342700Y2079622D01*
D02*
G37*
G36*
X1317300D02*
X1314810Y2079294D01*
X1312489Y2078333D01*
X1310496Y2076804D01*
X1308967Y2074811D01*
X1308006Y2072490D01*
X1307678Y2070000D01*
X1308006Y2067510D01*
X1308967Y2065189D01*
X1310496Y2063196D01*
X1312489Y2061667D01*
X1314810Y2060706D01*
X1317300Y2060378D01*
X1319790Y2060706D01*
X1322111Y2061667D01*
X1324104Y2063196D01*
X1325633Y2065189D01*
X1326595Y2067510D01*
X1326922Y2070000D01*
X1326595Y2072490D01*
X1325633Y2074811D01*
X1324104Y2076804D01*
X1322111Y2078333D01*
X1319790Y2079294D01*
X1317300Y2079622D01*
D02*
G37*
G36*
X1335000Y2029831D02*
X1325000D01*
X1322249Y2029469D01*
X1319684Y2028407D01*
X1317483Y2026717D01*
X1315793Y2024516D01*
X1314731Y2021951D01*
X1314369Y2019200D01*
X1314731Y2016449D01*
X1315793Y2013884D01*
X1317483Y2011683D01*
X1319684Y2009993D01*
X1322249Y2008931D01*
X1325000Y2008569D01*
X1335000D01*
X1337751Y2008931D01*
X1340316Y2009993D01*
X1342517Y2011683D01*
X1344207Y2013884D01*
X1345269Y2016449D01*
X1345631Y2019200D01*
X1345269Y2021951D01*
X1344207Y2024516D01*
X1342517Y2026717D01*
X1340316Y2028407D01*
X1337751Y2029469D01*
X1335000Y2029831D01*
D02*
G37*
G36*
X765000Y2029831D02*
X755000D01*
X752249Y2029469D01*
X749685Y2028407D01*
X747483Y2026717D01*
X745793Y2024515D01*
X744731Y2021951D01*
X744369Y2019200D01*
X744731Y2016449D01*
X745793Y2013884D01*
X747483Y2011683D01*
X749685Y2009993D01*
X752249Y2008931D01*
X755000Y2008569D01*
X765000D01*
X767751Y2008931D01*
X770315Y2009993D01*
X772517Y2011683D01*
X774207Y2013884D01*
X775269Y2016449D01*
X775631Y2019200D01*
X775269Y2021951D01*
X774207Y2024515D01*
X772517Y2026717D01*
X770315Y2028407D01*
X767751Y2029469D01*
X765000Y2029831D01*
D02*
G37*
G36*
X1209000Y1993639D02*
X1205987Y1993242D01*
X1203180Y1992080D01*
X1200770Y1990230D01*
X1198920Y1987819D01*
X1197757Y1985012D01*
X1197360Y1981999D01*
Y1968000D01*
X1197757Y1964988D01*
X1198920Y1962181D01*
X1200770Y1959770D01*
X1203180Y1957920D01*
X1205987Y1956758D01*
X1209000Y1956361D01*
X1212012Y1956758D01*
X1214820Y1957920D01*
X1217230Y1959770D01*
X1219080Y1962181D01*
X1220243Y1964988D01*
X1220639Y1968000D01*
Y1981999D01*
X1220243Y1985012D01*
X1219080Y1987819D01*
X1217230Y1990230D01*
X1214820Y1992080D01*
X1212012Y1993242D01*
X1209000Y1993639D01*
D02*
G37*
G36*
X979000D02*
X975987Y1993242D01*
X973180Y1992080D01*
X970770Y1990230D01*
X968920Y1987819D01*
X967757Y1985012D01*
X967360Y1981999D01*
Y1968000D01*
X967757Y1964988D01*
X968920Y1962181D01*
X970770Y1959770D01*
X973180Y1957920D01*
X975987Y1956758D01*
X979000Y1956361D01*
X982012Y1956758D01*
X984820Y1957920D01*
X987230Y1959770D01*
X989080Y1962181D01*
X990243Y1964988D01*
X990639Y1968000D01*
Y1981999D01*
X990243Y1985012D01*
X989080Y1987819D01*
X987230Y1990230D01*
X984820Y1992080D01*
X982012Y1993242D01*
X979000Y1993639D01*
D02*
G37*
G36*
X1111000Y1993640D02*
X1107987Y1993243D01*
X1105180Y1992080D01*
X1102770Y1990230D01*
X1100920Y1987820D01*
X1099757Y1985013D01*
X1099360Y1982000D01*
Y1968000D01*
X1099757Y1964987D01*
X1100920Y1962180D01*
X1102770Y1959769D01*
X1105180Y1957920D01*
X1107987Y1956757D01*
X1111000Y1956360D01*
X1114013Y1956757D01*
X1116820Y1957920D01*
X1119230Y1959769D01*
X1121080Y1962180D01*
X1122243Y1964987D01*
X1122639Y1968000D01*
Y1982000D01*
X1122243Y1985013D01*
X1121080Y1987820D01*
X1119230Y1990230D01*
X1116820Y1992080D01*
X1114013Y1993243D01*
X1111000Y1993640D01*
D02*
G37*
G36*
X881000D02*
X877987Y1993243D01*
X875180Y1992080D01*
X872770Y1990230D01*
X870920Y1987820D01*
X869757Y1985013D01*
X869360Y1982000D01*
Y1968000D01*
X869757Y1964987D01*
X870920Y1962180D01*
X872770Y1959769D01*
X875180Y1957920D01*
X877987Y1956757D01*
X881000Y1956360D01*
X884013Y1956757D01*
X886820Y1957920D01*
X889230Y1959769D01*
X891080Y1962180D01*
X892243Y1964987D01*
X892639Y1968000D01*
Y1982000D01*
X892243Y1985013D01*
X891080Y1987820D01*
X889230Y1990230D01*
X886820Y1992080D01*
X884013Y1993243D01*
X881000Y1993640D01*
D02*
G37*
G36*
X1330000Y1987625D02*
X1326562Y1987286D01*
X1323255Y1986283D01*
X1320208Y1984655D01*
X1317537Y1982463D01*
X1315345Y1979792D01*
X1313717Y1976745D01*
X1312714Y1973438D01*
X1312375Y1970000D01*
X1312714Y1966561D01*
X1313717Y1963255D01*
X1315345Y1960208D01*
X1317537Y1957537D01*
X1320208Y1955345D01*
X1323255Y1953717D01*
X1326562Y1952714D01*
X1330000Y1952375D01*
X1333439Y1952714D01*
X1336745Y1953717D01*
X1339792Y1955345D01*
X1342463Y1957537D01*
X1344655Y1960208D01*
X1346283Y1963255D01*
X1347286Y1966561D01*
X1347625Y1970000D01*
X1347286Y1973438D01*
X1346283Y1976745D01*
X1344655Y1979792D01*
X1342463Y1982463D01*
X1339792Y1984655D01*
X1336745Y1986283D01*
X1333439Y1987286D01*
X1330000Y1987625D01*
D02*
G37*
G36*
X760000Y1987625D02*
X756562Y1987286D01*
X753255Y1986283D01*
X750208Y1984655D01*
X747537Y1982463D01*
X745346Y1979792D01*
X743717Y1976745D01*
X742714Y1973438D01*
X742375Y1970000D01*
X742714Y1966561D01*
X743717Y1963255D01*
X745346Y1960208D01*
X747537Y1957537D01*
X750208Y1955345D01*
X753255Y1953717D01*
X756562Y1952714D01*
X760000Y1952375D01*
X763438Y1952714D01*
X766745Y1953717D01*
X769792Y1955345D01*
X772463Y1957537D01*
X774654Y1960208D01*
X776283Y1963255D01*
X777286Y1966561D01*
X777625Y1970000D01*
X777286Y1973438D01*
X776283Y1976745D01*
X774654Y1979792D01*
X772463Y1982463D01*
X769792Y1984655D01*
X766745Y1986283D01*
X763438Y1987286D01*
X760000Y1987625D01*
D02*
G37*
G36*
X765000Y1947335D02*
X761270D01*
Y1937470D01*
X775968D01*
X775756Y1939082D01*
X774643Y1941768D01*
X772874Y1944074D01*
X770568Y1945843D01*
X767882Y1946956D01*
X765000Y1947335D01*
D02*
G37*
G36*
X758730D02*
X755000D01*
X752118Y1946956D01*
X749432Y1945843D01*
X747126Y1944074D01*
X745357Y1941768D01*
X744244Y1939082D01*
X744032Y1937470D01*
X758730D01*
Y1947335D01*
D02*
G37*
G36*
X1335000Y1947335D02*
X1325000D01*
X1322118Y1946956D01*
X1319432Y1945843D01*
X1317126Y1944074D01*
X1315357Y1941768D01*
X1314244Y1939082D01*
X1313865Y1936200D01*
X1314244Y1933318D01*
X1315357Y1930632D01*
X1317126Y1928326D01*
X1319432Y1926557D01*
X1322118Y1925444D01*
X1325000Y1925065D01*
X1335000D01*
X1337882Y1925444D01*
X1340568Y1926557D01*
X1342874Y1928326D01*
X1344643Y1930632D01*
X1345756Y1933318D01*
X1346135Y1936200D01*
X1345756Y1939082D01*
X1344643Y1941768D01*
X1342874Y1944074D01*
X1340568Y1945843D01*
X1337882Y1946956D01*
X1335000Y1947335D01*
D02*
G37*
G36*
X775968Y1934930D02*
X761270D01*
Y1925065D01*
X765000D01*
X767882Y1925444D01*
X770568Y1926557D01*
X772874Y1928326D01*
X774643Y1930632D01*
X775756Y1933318D01*
X775968Y1934930D01*
D02*
G37*
G36*
X758730D02*
X744032D01*
X744244Y1933318D01*
X745357Y1930632D01*
X747126Y1928326D01*
X749432Y1926557D01*
X752118Y1925444D01*
X755000Y1925065D01*
X758730D01*
Y1934930D01*
D02*
G37*
G36*
X1333500Y1916335D02*
X1331270D01*
Y1906470D01*
X1344468D01*
X1344256Y1908082D01*
X1343143Y1910768D01*
X1341374Y1913074D01*
X1339068Y1914843D01*
X1336382Y1915956D01*
X1333500Y1916335D01*
D02*
G37*
G36*
X1328730D02*
X1326500D01*
X1323618Y1915956D01*
X1320932Y1914843D01*
X1318626Y1913074D01*
X1316857Y1910768D01*
X1315744Y1908082D01*
X1315532Y1906470D01*
X1328730D01*
Y1916335D01*
D02*
G37*
G36*
X763500Y1916335D02*
X761270D01*
Y1906470D01*
X774468D01*
X774256Y1908082D01*
X773143Y1910768D01*
X771374Y1913074D01*
X769068Y1914843D01*
X766382Y1915956D01*
X763500Y1916335D01*
D02*
G37*
G36*
X758730D02*
X756500D01*
X753618Y1915956D01*
X750932Y1914843D01*
X748626Y1913074D01*
X746857Y1910768D01*
X745744Y1908082D01*
X745532Y1906470D01*
X758730D01*
Y1916335D01*
D02*
G37*
G36*
X1185001Y1914735D02*
X1182482Y1914404D01*
X1180134Y1913431D01*
X1178117Y1911884D01*
X1176570Y1909868D01*
X1175598Y1907520D01*
X1175266Y1905000D01*
X1175598Y1902480D01*
X1176570Y1900132D01*
X1178117Y1898116D01*
X1180134Y1896569D01*
X1182482Y1895596D01*
X1185001Y1895265D01*
X1187521Y1895596D01*
X1189869Y1896569D01*
X1191885Y1898116D01*
X1193432Y1900132D01*
X1194405Y1902480D01*
X1194736Y1905000D01*
X1194405Y1907520D01*
X1193432Y1909868D01*
X1191885Y1911884D01*
X1189869Y1913431D01*
X1187521Y1914404D01*
X1185001Y1914735D01*
D02*
G37*
G36*
X1160000D02*
X1157480Y1914404D01*
X1155132Y1913431D01*
X1153116Y1911884D01*
X1151569Y1909868D01*
X1150596Y1907520D01*
X1150265Y1905000D01*
X1150596Y1902480D01*
X1151569Y1900132D01*
X1153116Y1898116D01*
X1155132Y1896569D01*
X1157480Y1895596D01*
X1160000Y1895265D01*
X1162520Y1895596D01*
X1164868Y1896569D01*
X1166884Y1898116D01*
X1168431Y1900132D01*
X1169404Y1902480D01*
X1169735Y1905000D01*
X1169404Y1907520D01*
X1168431Y1909868D01*
X1166884Y1911884D01*
X1164868Y1913431D01*
X1162520Y1914404D01*
X1160000Y1914735D01*
D02*
G37*
G36*
X1134999D02*
X1132479Y1914404D01*
X1130131Y1913431D01*
X1128115Y1911884D01*
X1126568Y1909868D01*
X1125595Y1907520D01*
X1125264Y1905000D01*
X1125595Y1902480D01*
X1126568Y1900132D01*
X1128115Y1898116D01*
X1130131Y1896569D01*
X1132479Y1895596D01*
X1134999Y1895265D01*
X1137518Y1895596D01*
X1139866Y1896569D01*
X1141883Y1898116D01*
X1143430Y1900132D01*
X1144402Y1902480D01*
X1144734Y1905000D01*
X1144402Y1907520D01*
X1143430Y1909868D01*
X1141883Y1911884D01*
X1139866Y1913431D01*
X1137518Y1914404D01*
X1134999Y1914735D01*
D02*
G37*
G36*
X955001D02*
X952482Y1914404D01*
X950134Y1913431D01*
X948117Y1911884D01*
X946570Y1909868D01*
X945598Y1907520D01*
X945266Y1905000D01*
X945598Y1902480D01*
X946570Y1900132D01*
X948117Y1898116D01*
X950134Y1896569D01*
X952482Y1895596D01*
X955001Y1895265D01*
X957521Y1895596D01*
X959869Y1896569D01*
X961885Y1898116D01*
X963432Y1900132D01*
X964405Y1902480D01*
X964736Y1905000D01*
X964405Y1907520D01*
X963432Y1909868D01*
X961885Y1911884D01*
X959869Y1913431D01*
X957521Y1914404D01*
X955001Y1914735D01*
D02*
G37*
G36*
X930000D02*
X927480Y1914404D01*
X925132Y1913431D01*
X923116Y1911884D01*
X921569Y1909868D01*
X920596Y1907520D01*
X920265Y1905000D01*
X920596Y1902480D01*
X921569Y1900132D01*
X923116Y1898116D01*
X925132Y1896569D01*
X927480Y1895596D01*
X930000Y1895265D01*
X932520Y1895596D01*
X934868Y1896569D01*
X936884Y1898116D01*
X938431Y1900132D01*
X939404Y1902480D01*
X939735Y1905000D01*
X939404Y1907520D01*
X938431Y1909868D01*
X936884Y1911884D01*
X934868Y1913431D01*
X932520Y1914404D01*
X930000Y1914735D01*
D02*
G37*
G36*
X904999D02*
X902479Y1914404D01*
X900131Y1913431D01*
X898115Y1911884D01*
X896568Y1909868D01*
X895595Y1907520D01*
X895264Y1905000D01*
X895595Y1902480D01*
X896568Y1900132D01*
X898115Y1898116D01*
X900131Y1896569D01*
X902479Y1895596D01*
X904999Y1895265D01*
X907518Y1895596D01*
X909866Y1896569D01*
X911883Y1898116D01*
X913430Y1900132D01*
X914402Y1902480D01*
X914734Y1905000D01*
X914402Y1907520D01*
X913430Y1909868D01*
X911883Y1911884D01*
X909866Y1913431D01*
X907518Y1914404D01*
X904999Y1914735D01*
D02*
G37*
G36*
X1344468Y1903930D02*
X1331270D01*
Y1894065D01*
X1333500D01*
X1336382Y1894444D01*
X1339068Y1895557D01*
X1341374Y1897326D01*
X1343143Y1899632D01*
X1344256Y1902318D01*
X1344468Y1903930D01*
D02*
G37*
G36*
X1328730D02*
X1315532D01*
X1315744Y1902318D01*
X1316857Y1899632D01*
X1318626Y1897326D01*
X1320932Y1895557D01*
X1323618Y1894444D01*
X1326500Y1894065D01*
X1328730D01*
Y1903930D01*
D02*
G37*
G36*
X774468Y1903930D02*
X761270D01*
Y1894065D01*
X763500D01*
X766382Y1894444D01*
X769068Y1895556D01*
X771374Y1897326D01*
X773143Y1899632D01*
X774256Y1902318D01*
X774468Y1903930D01*
D02*
G37*
G36*
X758730D02*
X745532D01*
X745744Y1902318D01*
X746857Y1899632D01*
X748626Y1897326D01*
X750932Y1895556D01*
X753618Y1894444D01*
X756500Y1894065D01*
X758730D01*
Y1903930D01*
D02*
G37*
G36*
X1156270Y1870396D02*
Y1866270D01*
X1160396D01*
X1160219Y1867162D01*
X1158994Y1868994D01*
X1157162Y1870219D01*
X1156270Y1870396D01*
D02*
G37*
G36*
X1153730D02*
X1152838Y1870219D01*
X1151006Y1868994D01*
X1149781Y1867162D01*
X1149604Y1866270D01*
X1153730D01*
Y1870396D01*
D02*
G37*
G36*
X956270D02*
Y1866270D01*
X960396D01*
X960219Y1867162D01*
X958994Y1868994D01*
X957162Y1870219D01*
X956270Y1870396D01*
D02*
G37*
G36*
X953730D02*
X952838Y1870219D01*
X951006Y1868994D01*
X949781Y1867162D01*
X949604Y1866270D01*
X953730D01*
Y1870396D01*
D02*
G37*
G36*
X1160396Y1863730D02*
X1156270D01*
Y1859604D01*
X1157162Y1859781D01*
X1158994Y1861006D01*
X1160219Y1862838D01*
X1160396Y1863730D01*
D02*
G37*
G36*
X1153730D02*
X1149604D01*
X1149781Y1862838D01*
X1151006Y1861006D01*
X1152838Y1859781D01*
X1153730Y1859604D01*
Y1863730D01*
D02*
G37*
G36*
X960396D02*
X956270D01*
Y1859604D01*
X957162Y1859781D01*
X958994Y1861006D01*
X960219Y1862838D01*
X960396Y1863730D01*
D02*
G37*
G36*
X953730D02*
X949604D01*
X949781Y1862838D01*
X951006Y1861006D01*
X952838Y1859781D01*
X953730Y1859604D01*
Y1863730D01*
D02*
G37*
G36*
X838000Y2099649D02*
X838000Y2099648D01*
X828000D01*
X825838Y2099219D01*
X824006Y2097994D01*
X822781Y2096162D01*
X822352Y2094000D01*
X822781Y2091838D01*
X824006Y2090006D01*
X825838Y2088781D01*
X828000Y2088351D01*
X835660D01*
X838352Y2085660D01*
Y1836133D01*
X837178Y1835647D01*
X836913Y1835913D01*
X835576Y1836806D01*
X834000Y1837119D01*
X828807D01*
X827162Y1838219D01*
X825000Y1838649D01*
X822838Y1838219D01*
X821006Y1836994D01*
X819781Y1835162D01*
X819352Y1833000D01*
X819781Y1830838D01*
X821006Y1829006D01*
X822838Y1827781D01*
X825000Y1827352D01*
X827162Y1827781D01*
X828807Y1828881D01*
X832294D01*
X838352Y1822823D01*
Y1586133D01*
X837178Y1585647D01*
X835913Y1586913D01*
X834576Y1587806D01*
X833000Y1588119D01*
X827807D01*
X826162Y1589219D01*
X824000Y1589648D01*
X821838Y1589219D01*
X820006Y1587994D01*
X818781Y1586162D01*
X818352Y1584000D01*
X818781Y1581838D01*
X820006Y1580006D01*
X821838Y1578781D01*
X824000Y1578351D01*
X826162Y1578781D01*
X827807Y1579881D01*
X831294D01*
X838352Y1572823D01*
Y1393382D01*
X838287Y1393298D01*
X837628Y1391707D01*
X837404Y1390000D01*
X837628Y1388293D01*
X838287Y1386702D01*
X839336Y1385336D01*
X840702Y1384287D01*
X842293Y1383628D01*
X844000Y1383404D01*
X845707Y1383628D01*
X847298Y1384287D01*
X848664Y1385336D01*
X849713Y1386702D01*
X850372Y1388293D01*
X850596Y1390000D01*
X850372Y1391707D01*
X849713Y1393298D01*
X849649Y1393382D01*
Y1573000D01*
Y1823000D01*
Y2088000D01*
X849649Y2088000D01*
X849219Y2090162D01*
X847994Y2091994D01*
X847994Y2091994D01*
X841994Y2097994D01*
X840162Y2099219D01*
X838000Y2099649D01*
D02*
G37*
G36*
X1342700Y1809622D02*
X1340210Y1809294D01*
X1337889Y1808333D01*
X1335896Y1806804D01*
X1334367Y1804811D01*
X1333406Y1802491D01*
X1333078Y1800000D01*
X1333406Y1797510D01*
X1334367Y1795189D01*
X1335896Y1793196D01*
X1337889Y1791667D01*
X1340210Y1790706D01*
X1342700Y1790378D01*
X1345190Y1790706D01*
X1347511Y1791667D01*
X1349504Y1793196D01*
X1351033Y1795189D01*
X1351994Y1797510D01*
X1352322Y1800000D01*
X1351994Y1802491D01*
X1351033Y1804811D01*
X1349504Y1806804D01*
X1347511Y1808333D01*
X1345190Y1809294D01*
X1342700Y1809622D01*
D02*
G37*
G36*
X1317300D02*
X1314810Y1809294D01*
X1312489Y1808333D01*
X1310496Y1806804D01*
X1308967Y1804811D01*
X1308006Y1802491D01*
X1307678Y1800000D01*
X1308006Y1797510D01*
X1308967Y1795189D01*
X1310496Y1793196D01*
X1312489Y1791667D01*
X1314810Y1790706D01*
X1317300Y1790378D01*
X1319790Y1790706D01*
X1322111Y1791667D01*
X1324104Y1793196D01*
X1325633Y1795189D01*
X1326595Y1797510D01*
X1326922Y1800000D01*
X1326595Y1802491D01*
X1325633Y1804811D01*
X1324104Y1806804D01*
X1322111Y1808333D01*
X1319790Y1809294D01*
X1317300Y1809622D01*
D02*
G37*
G36*
X1279000Y2050649D02*
X1279000Y2050648D01*
X1265000D01*
X1262838Y2050219D01*
X1261006Y2048994D01*
X1259781Y2047162D01*
X1259352Y2045000D01*
X1259781Y2042838D01*
X1261006Y2041006D01*
X1262838Y2039781D01*
X1265000Y2039352D01*
X1276660D01*
X1284352Y2031660D01*
Y1778296D01*
X1283178Y1777810D01*
X1275994Y1784994D01*
X1274162Y1786219D01*
X1272000Y1786649D01*
X1272000Y1786649D01*
X1271000D01*
X1268838Y1786219D01*
X1267006Y1784994D01*
X1265781Y1783162D01*
X1265351Y1781000D01*
X1265781Y1778838D01*
X1267006Y1777006D01*
X1268838Y1775781D01*
X1269328Y1775684D01*
X1284352Y1760660D01*
Y1526340D01*
X1279000Y1520988D01*
X1269994Y1529994D01*
X1268162Y1531219D01*
X1266000Y1531649D01*
X1263838Y1531219D01*
X1262006Y1529994D01*
X1260781Y1528162D01*
X1260351Y1526000D01*
X1260781Y1523838D01*
X1262006Y1522006D01*
X1273352Y1510660D01*
Y1273000D01*
Y1263340D01*
X1247660Y1237648D01*
X1126000D01*
X1126000Y1237649D01*
X1123838Y1237219D01*
X1122006Y1235994D01*
X1122006Y1235994D01*
X1081660Y1195648D01*
X1019340D01*
X1002385Y1212603D01*
X1002372Y1212707D01*
X1001713Y1214298D01*
X1000664Y1215664D01*
X999298Y1216713D01*
X997707Y1217372D01*
X996000Y1217596D01*
X994293Y1217372D01*
X992702Y1216713D01*
X991336Y1215664D01*
X990287Y1214298D01*
X989628Y1212707D01*
X989404Y1211000D01*
X989628Y1209293D01*
X990287Y1207702D01*
X991336Y1206336D01*
X992702Y1205287D01*
X994293Y1204628D01*
X994397Y1204615D01*
X1013006Y1186006D01*
X1013006Y1186006D01*
X1014838Y1184781D01*
X1017000Y1184352D01*
X1017000Y1184352D01*
X1084000D01*
X1084000Y1184352D01*
X1086162Y1184781D01*
X1087994Y1186006D01*
X1128340Y1226351D01*
X1250000D01*
X1250000Y1226351D01*
X1252162Y1226781D01*
X1253994Y1228006D01*
X1282994Y1257006D01*
X1282994Y1257006D01*
X1284219Y1258838D01*
X1284648Y1261000D01*
Y1273000D01*
Y1277823D01*
X1298706Y1291881D01*
X1301193D01*
X1302838Y1290781D01*
X1305000Y1290352D01*
X1307162Y1290781D01*
X1308994Y1292006D01*
X1310219Y1293838D01*
X1310648Y1296000D01*
X1310219Y1298162D01*
X1308994Y1299994D01*
X1307162Y1301219D01*
X1305000Y1301649D01*
X1302838Y1301219D01*
X1301193Y1300119D01*
X1297000D01*
X1295424Y1299806D01*
X1294087Y1298913D01*
X1285822Y1290647D01*
X1284648Y1291133D01*
Y1510660D01*
X1293994Y1520006D01*
X1293994Y1520006D01*
X1295219Y1521838D01*
X1295649Y1524000D01*
X1295648Y1524000D01*
Y1763000D01*
X1295649Y1763000D01*
X1295648Y1763000D01*
Y2034000D01*
X1295649Y2034000D01*
X1295219Y2036162D01*
X1293994Y2037994D01*
X1293994Y2037994D01*
X1282994Y2048994D01*
X1281162Y2050219D01*
X1279000Y2050649D01*
D02*
G37*
G36*
X1176270Y1780396D02*
Y1776270D01*
X1180396D01*
X1180219Y1777162D01*
X1178994Y1778994D01*
X1177162Y1780219D01*
X1176270Y1780396D01*
D02*
G37*
G36*
X1173730D02*
X1172838Y1780219D01*
X1171006Y1778994D01*
X1169781Y1777162D01*
X1169604Y1776270D01*
X1173730D01*
Y1780396D01*
D02*
G37*
G36*
X941270D02*
Y1776270D01*
X945396D01*
X945219Y1777162D01*
X943994Y1778994D01*
X942162Y1780219D01*
X941270Y1780396D01*
D02*
G37*
G36*
X938730D02*
X937838Y1780219D01*
X936006Y1778994D01*
X934781Y1777162D01*
X934604Y1776270D01*
X938730D01*
Y1780396D01*
D02*
G37*
G36*
X1180396Y1773730D02*
X1176270D01*
Y1769604D01*
X1177162Y1769781D01*
X1178994Y1771006D01*
X1180219Y1772838D01*
X1180396Y1773730D01*
D02*
G37*
G36*
X1173730D02*
X1169604D01*
X1169781Y1772838D01*
X1171006Y1771006D01*
X1172838Y1769781D01*
X1173730Y1769604D01*
Y1773730D01*
D02*
G37*
G36*
X945396D02*
X941270D01*
Y1769604D01*
X942162Y1769781D01*
X943994Y1771006D01*
X945219Y1772838D01*
X945396Y1773730D01*
D02*
G37*
G36*
X938730D02*
X934604D01*
X934781Y1772838D01*
X936006Y1771006D01*
X937838Y1769781D01*
X938730Y1769604D01*
Y1773730D01*
D02*
G37*
G36*
X1026270Y1755396D02*
Y1751270D01*
X1030396D01*
X1030219Y1752162D01*
X1028994Y1753994D01*
X1027162Y1755219D01*
X1026270Y1755396D01*
D02*
G37*
G36*
X1023730D02*
X1022838Y1755219D01*
X1021006Y1753994D01*
X1019781Y1752162D01*
X1019604Y1751270D01*
X1023730D01*
Y1755396D01*
D02*
G37*
G36*
X1030396Y1748730D02*
X1026270D01*
Y1744604D01*
X1027162Y1744781D01*
X1028994Y1746006D01*
X1030219Y1747838D01*
X1030396Y1748730D01*
D02*
G37*
G36*
X1023730D02*
X1019604D01*
X1019781Y1747838D01*
X1021006Y1746006D01*
X1022838Y1744781D01*
X1023730Y1744604D01*
Y1748730D01*
D02*
G37*
G36*
X1335000Y1759831D02*
X1325000D01*
X1322249Y1759469D01*
X1319684Y1758407D01*
X1317483Y1756717D01*
X1315793Y1754516D01*
X1314731Y1751951D01*
X1314369Y1749200D01*
X1314731Y1746449D01*
X1315793Y1743884D01*
X1317483Y1741683D01*
X1319684Y1739993D01*
X1322249Y1738931D01*
X1325000Y1738569D01*
X1335000D01*
X1337751Y1738931D01*
X1340316Y1739993D01*
X1342517Y1741683D01*
X1344207Y1743884D01*
X1345269Y1746449D01*
X1345631Y1749200D01*
X1345269Y1751951D01*
X1344207Y1754516D01*
X1342517Y1756717D01*
X1340316Y1758407D01*
X1337751Y1759469D01*
X1335000Y1759831D01*
D02*
G37*
G36*
X765000D02*
X755000D01*
X752249Y1759469D01*
X749685Y1758407D01*
X747483Y1756717D01*
X745793Y1754516D01*
X744731Y1751951D01*
X744369Y1749200D01*
X744731Y1746449D01*
X745793Y1743884D01*
X747483Y1741683D01*
X749685Y1739993D01*
X752249Y1738931D01*
X755000Y1738569D01*
X765000D01*
X767751Y1738931D01*
X770315Y1739993D01*
X772517Y1741683D01*
X774207Y1743884D01*
X775269Y1746449D01*
X775631Y1749200D01*
X775269Y1751951D01*
X774207Y1754516D01*
X772517Y1756717D01*
X770315Y1758407D01*
X767751Y1759469D01*
X765000Y1759831D01*
D02*
G37*
G36*
X1209000Y1723639D02*
X1205987Y1723242D01*
X1203180Y1722079D01*
X1200770Y1720230D01*
X1198920Y1717819D01*
X1197757Y1715012D01*
X1197360Y1711999D01*
Y1698000D01*
X1197757Y1694988D01*
X1198920Y1692181D01*
X1200770Y1689770D01*
X1203180Y1687920D01*
X1205987Y1686758D01*
X1209000Y1686361D01*
X1212012Y1686758D01*
X1214820Y1687920D01*
X1217230Y1689770D01*
X1219080Y1692181D01*
X1220243Y1694988D01*
X1220639Y1698000D01*
Y1711999D01*
X1220243Y1715012D01*
X1219080Y1717819D01*
X1217230Y1720230D01*
X1214820Y1722079D01*
X1212012Y1723242D01*
X1209000Y1723639D01*
D02*
G37*
G36*
X979000D02*
X975987Y1723242D01*
X973180Y1722079D01*
X970770Y1720230D01*
X968920Y1717819D01*
X967757Y1715012D01*
X967360Y1711999D01*
Y1698000D01*
X967757Y1694988D01*
X968920Y1692181D01*
X970770Y1689770D01*
X973180Y1687920D01*
X975987Y1686758D01*
X979000Y1686361D01*
X982012Y1686758D01*
X984820Y1687920D01*
X987230Y1689770D01*
X989080Y1692181D01*
X990243Y1694988D01*
X990639Y1698000D01*
Y1711999D01*
X990243Y1715012D01*
X989080Y1717819D01*
X987230Y1720230D01*
X984820Y1722079D01*
X982012Y1723242D01*
X979000Y1723639D01*
D02*
G37*
G36*
X1111000Y1723640D02*
X1107987Y1723243D01*
X1105180Y1722080D01*
X1102770Y1720230D01*
X1100920Y1717820D01*
X1099757Y1715013D01*
X1099360Y1712000D01*
Y1698000D01*
X1099757Y1694987D01*
X1100920Y1692180D01*
X1102770Y1689769D01*
X1105180Y1687920D01*
X1107987Y1686757D01*
X1111000Y1686360D01*
X1114013Y1686757D01*
X1116820Y1687920D01*
X1119230Y1689769D01*
X1121080Y1692180D01*
X1122243Y1694987D01*
X1122639Y1698000D01*
Y1712000D01*
X1122243Y1715013D01*
X1121080Y1717820D01*
X1119230Y1720230D01*
X1116820Y1722080D01*
X1114013Y1723243D01*
X1111000Y1723640D01*
D02*
G37*
G36*
X881000D02*
X877987Y1723243D01*
X875180Y1722080D01*
X872770Y1720230D01*
X870920Y1717820D01*
X869757Y1715013D01*
X869360Y1712000D01*
Y1698000D01*
X869757Y1694987D01*
X870920Y1692180D01*
X872770Y1689769D01*
X875180Y1687920D01*
X877987Y1686757D01*
X881000Y1686360D01*
X884013Y1686757D01*
X886820Y1687920D01*
X889230Y1689769D01*
X891080Y1692180D01*
X892243Y1694987D01*
X892639Y1698000D01*
Y1712000D01*
X892243Y1715013D01*
X891080Y1717820D01*
X889230Y1720230D01*
X886820Y1722080D01*
X884013Y1723243D01*
X881000Y1723640D01*
D02*
G37*
G36*
X1330000Y1717625D02*
X1326562Y1717286D01*
X1323255Y1716283D01*
X1320208Y1714655D01*
X1317537Y1712463D01*
X1315345Y1709792D01*
X1313717Y1706745D01*
X1312714Y1703439D01*
X1312375Y1700000D01*
X1312714Y1696562D01*
X1313717Y1693255D01*
X1315345Y1690208D01*
X1317537Y1687537D01*
X1320208Y1685345D01*
X1323255Y1683717D01*
X1326562Y1682714D01*
X1330000Y1682375D01*
X1333439Y1682714D01*
X1336745Y1683717D01*
X1339792Y1685345D01*
X1342463Y1687537D01*
X1344655Y1690208D01*
X1346283Y1693255D01*
X1347286Y1696562D01*
X1347625Y1700000D01*
X1347286Y1703439D01*
X1346283Y1706745D01*
X1344655Y1709792D01*
X1342463Y1712463D01*
X1339792Y1714655D01*
X1336745Y1716283D01*
X1333439Y1717286D01*
X1330000Y1717625D01*
D02*
G37*
G36*
X760000D02*
X756562Y1717286D01*
X753255Y1716283D01*
X750208Y1714655D01*
X747537Y1712463D01*
X745346Y1709792D01*
X743717Y1706745D01*
X742714Y1703439D01*
X742375Y1700000D01*
X742714Y1696562D01*
X743717Y1693255D01*
X745346Y1690208D01*
X747537Y1687537D01*
X750208Y1685345D01*
X753255Y1683717D01*
X756562Y1682714D01*
X760000Y1682375D01*
X763438Y1682714D01*
X766745Y1683717D01*
X769792Y1685345D01*
X772463Y1687537D01*
X774654Y1690208D01*
X776283Y1693255D01*
X777286Y1696562D01*
X777625Y1700000D01*
X777286Y1703439D01*
X776283Y1706745D01*
X774654Y1709792D01*
X772463Y1712463D01*
X769792Y1714655D01*
X766745Y1716283D01*
X763438Y1717286D01*
X760000Y1717625D01*
D02*
G37*
G36*
X1335000Y1677335D02*
X1325000D01*
X1322118Y1676956D01*
X1319432Y1675843D01*
X1317126Y1674074D01*
X1315357Y1671768D01*
X1314244Y1669082D01*
X1313865Y1666200D01*
X1314244Y1663318D01*
X1315357Y1660632D01*
X1317126Y1658326D01*
X1319432Y1656557D01*
X1322118Y1655444D01*
X1325000Y1655065D01*
X1335000D01*
X1337882Y1655444D01*
X1340568Y1656557D01*
X1342874Y1658326D01*
X1344643Y1660632D01*
X1345756Y1663318D01*
X1346135Y1666200D01*
X1345756Y1669082D01*
X1344643Y1671768D01*
X1342874Y1674074D01*
X1340568Y1675843D01*
X1337882Y1676956D01*
X1335000Y1677335D01*
D02*
G37*
G36*
X765000D02*
X755000D01*
X752118Y1676956D01*
X749432Y1675843D01*
X747126Y1674074D01*
X745357Y1671768D01*
X744244Y1669082D01*
X743865Y1666200D01*
X744244Y1663318D01*
X745357Y1660632D01*
X747126Y1658326D01*
X749432Y1656557D01*
X752118Y1655444D01*
X755000Y1655065D01*
X765000D01*
X767882Y1655444D01*
X770568Y1656557D01*
X772874Y1658326D01*
X774643Y1660632D01*
X775756Y1663318D01*
X776135Y1666200D01*
X775756Y1669082D01*
X774643Y1671768D01*
X772874Y1674074D01*
X770568Y1675843D01*
X767882Y1676956D01*
X765000Y1677335D01*
D02*
G37*
G36*
X1075000Y1912648D02*
X1075000Y1912648D01*
X1058000D01*
X1055838Y1912219D01*
X1054006Y1910994D01*
X1052781Y1909162D01*
X1052352Y1907000D01*
X1052781Y1904838D01*
X1054006Y1903006D01*
X1055838Y1901781D01*
X1058000Y1901351D01*
X1072660D01*
X1076351Y1897660D01*
Y1651296D01*
X1075178Y1650810D01*
X1070994Y1654994D01*
X1069162Y1656219D01*
X1067000Y1656649D01*
X1067000Y1656649D01*
X1045000D01*
X1042838Y1656219D01*
X1041006Y1654994D01*
X1039781Y1653162D01*
X1039352Y1651000D01*
X1039781Y1648838D01*
X1041006Y1647006D01*
X1042838Y1645781D01*
X1045000Y1645352D01*
X1064660D01*
X1076351Y1633660D01*
Y1595000D01*
X1076351Y1595000D01*
X1076781Y1592838D01*
X1078006Y1591006D01*
X1141006Y1528006D01*
X1141006Y1528006D01*
X1142838Y1526781D01*
X1145000Y1526351D01*
X1145000Y1526351D01*
X1146618D01*
X1146702Y1526287D01*
X1148293Y1525628D01*
X1150000Y1525404D01*
X1151707Y1525628D01*
X1153298Y1526287D01*
X1154664Y1527336D01*
X1155713Y1528702D01*
X1156372Y1530293D01*
X1156596Y1532000D01*
X1156372Y1533707D01*
X1155713Y1535298D01*
X1154664Y1536664D01*
X1153298Y1537713D01*
X1151707Y1538372D01*
X1150000Y1538596D01*
X1148293Y1538372D01*
X1147107Y1537881D01*
X1087648Y1597340D01*
Y1636000D01*
X1087648Y1636000D01*
X1087648Y1636000D01*
Y1900000D01*
X1087648Y1900000D01*
X1087219Y1902162D01*
X1085994Y1903994D01*
X1085994Y1903994D01*
X1078994Y1910994D01*
X1077162Y1912219D01*
X1075000Y1912648D01*
D02*
G37*
G36*
X1333500Y1646335D02*
X1331270D01*
Y1636470D01*
X1344468D01*
X1344256Y1638082D01*
X1343143Y1640768D01*
X1341374Y1643074D01*
X1339068Y1644843D01*
X1336382Y1645956D01*
X1333500Y1646335D01*
D02*
G37*
G36*
X1328730D02*
X1326500D01*
X1323618Y1645956D01*
X1320932Y1644843D01*
X1318626Y1643074D01*
X1316857Y1640768D01*
X1315744Y1638082D01*
X1315532Y1636470D01*
X1328730D01*
Y1646335D01*
D02*
G37*
G36*
X763500D02*
X761270D01*
Y1636470D01*
X774468D01*
X774256Y1638082D01*
X773143Y1640768D01*
X771374Y1643074D01*
X769068Y1644843D01*
X766382Y1645956D01*
X763500Y1646335D01*
D02*
G37*
G36*
X758730D02*
X756500D01*
X753618Y1645956D01*
X750932Y1644843D01*
X748626Y1643074D01*
X746857Y1640768D01*
X745744Y1638082D01*
X745532Y1636470D01*
X758730D01*
Y1646335D01*
D02*
G37*
G36*
X1101270Y1635396D02*
Y1631270D01*
X1105396D01*
X1105219Y1632162D01*
X1103994Y1633994D01*
X1102162Y1635219D01*
X1101270Y1635396D01*
D02*
G37*
G36*
X1098730D02*
X1097838Y1635219D01*
X1096006Y1633994D01*
X1094781Y1632162D01*
X1094604Y1631270D01*
X1098730D01*
Y1635396D01*
D02*
G37*
G36*
X1185001Y1644735D02*
X1182482Y1644404D01*
X1180134Y1643431D01*
X1178117Y1641884D01*
X1176570Y1639868D01*
X1175598Y1637520D01*
X1175266Y1635000D01*
X1175598Y1632480D01*
X1176570Y1630132D01*
X1178117Y1628116D01*
X1180134Y1626569D01*
X1182482Y1625596D01*
X1185001Y1625265D01*
X1187521Y1625596D01*
X1189869Y1626569D01*
X1191885Y1628116D01*
X1193432Y1630132D01*
X1194405Y1632480D01*
X1194736Y1635000D01*
X1194405Y1637520D01*
X1193432Y1639868D01*
X1191885Y1641884D01*
X1189869Y1643431D01*
X1187521Y1644404D01*
X1185001Y1644735D01*
D02*
G37*
G36*
X1160000D02*
X1157480Y1644404D01*
X1155132Y1643431D01*
X1153116Y1641884D01*
X1151569Y1639868D01*
X1150596Y1637520D01*
X1150265Y1635000D01*
X1150596Y1632480D01*
X1151569Y1630132D01*
X1153116Y1628116D01*
X1155132Y1626569D01*
X1157480Y1625596D01*
X1160000Y1625265D01*
X1162520Y1625596D01*
X1164868Y1626569D01*
X1166884Y1628116D01*
X1168431Y1630132D01*
X1169404Y1632480D01*
X1169735Y1635000D01*
X1169404Y1637520D01*
X1168431Y1639868D01*
X1166884Y1641884D01*
X1164868Y1643431D01*
X1162520Y1644404D01*
X1160000Y1644735D01*
D02*
G37*
G36*
X1134999D02*
X1132479Y1644404D01*
X1130131Y1643431D01*
X1128115Y1641884D01*
X1126568Y1639868D01*
X1125595Y1637520D01*
X1125264Y1635000D01*
X1125595Y1632480D01*
X1126568Y1630132D01*
X1128115Y1628116D01*
X1130131Y1626569D01*
X1132479Y1625596D01*
X1134999Y1625265D01*
X1137518Y1625596D01*
X1139866Y1626569D01*
X1141883Y1628116D01*
X1143430Y1630132D01*
X1144402Y1632480D01*
X1144734Y1635000D01*
X1144402Y1637520D01*
X1143430Y1639868D01*
X1141883Y1641884D01*
X1139866Y1643431D01*
X1137518Y1644404D01*
X1134999Y1644735D01*
D02*
G37*
G36*
X955001D02*
X952482Y1644404D01*
X950134Y1643431D01*
X948117Y1641884D01*
X946570Y1639868D01*
X945598Y1637520D01*
X945266Y1635000D01*
X945598Y1632480D01*
X946570Y1630132D01*
X948117Y1628116D01*
X950134Y1626569D01*
X952482Y1625596D01*
X955001Y1625265D01*
X957521Y1625596D01*
X959869Y1626569D01*
X961885Y1628116D01*
X963432Y1630132D01*
X964405Y1632480D01*
X964736Y1635000D01*
X964405Y1637520D01*
X963432Y1639868D01*
X961885Y1641884D01*
X959869Y1643431D01*
X957521Y1644404D01*
X955001Y1644735D01*
D02*
G37*
G36*
X930000D02*
X927480Y1644404D01*
X925132Y1643431D01*
X923116Y1641884D01*
X921569Y1639868D01*
X920596Y1637520D01*
X920265Y1635000D01*
X920596Y1632480D01*
X921569Y1630132D01*
X923116Y1628116D01*
X925132Y1626569D01*
X927480Y1625596D01*
X930000Y1625265D01*
X932520Y1625596D01*
X934868Y1626569D01*
X936884Y1628116D01*
X938431Y1630132D01*
X939404Y1632480D01*
X939735Y1635000D01*
X939404Y1637520D01*
X938431Y1639868D01*
X936884Y1641884D01*
X934868Y1643431D01*
X932520Y1644404D01*
X930000Y1644735D01*
D02*
G37*
G36*
X904999D02*
X902479Y1644404D01*
X900131Y1643431D01*
X898115Y1641884D01*
X896568Y1639868D01*
X895595Y1637520D01*
X895264Y1635000D01*
X895595Y1632480D01*
X896568Y1630132D01*
X898115Y1628116D01*
X900131Y1626569D01*
X902479Y1625596D01*
X904999Y1625265D01*
X907518Y1625596D01*
X909866Y1626569D01*
X911883Y1628116D01*
X913430Y1630132D01*
X914402Y1632480D01*
X914734Y1635000D01*
X914402Y1637520D01*
X913430Y1639868D01*
X911883Y1641884D01*
X909866Y1643431D01*
X907518Y1644404D01*
X904999Y1644735D01*
D02*
G37*
G36*
X1105396Y1628730D02*
X1101270D01*
Y1624604D01*
X1102162Y1624781D01*
X1103994Y1626006D01*
X1105219Y1627838D01*
X1105396Y1628730D01*
D02*
G37*
G36*
X1098730D02*
X1094604D01*
X1094781Y1627838D01*
X1096006Y1626006D01*
X1097838Y1624781D01*
X1098730Y1624604D01*
Y1628730D01*
D02*
G37*
G36*
X1344468Y1633930D02*
X1331270D01*
Y1624065D01*
X1333500D01*
X1336382Y1624444D01*
X1339068Y1625557D01*
X1341374Y1627326D01*
X1343143Y1629632D01*
X1344256Y1632318D01*
X1344468Y1633930D01*
D02*
G37*
G36*
X1328730D02*
X1315532D01*
X1315744Y1632318D01*
X1316857Y1629632D01*
X1318626Y1627326D01*
X1320932Y1625557D01*
X1323618Y1624444D01*
X1326500Y1624065D01*
X1328730D01*
Y1633930D01*
D02*
G37*
G36*
X774468D02*
X761270D01*
Y1624065D01*
X763500D01*
X766382Y1624444D01*
X769068Y1625557D01*
X771374Y1627326D01*
X773143Y1629632D01*
X774256Y1632318D01*
X774468Y1633930D01*
D02*
G37*
G36*
X758730D02*
X745532D01*
X745744Y1632318D01*
X746857Y1629632D01*
X748626Y1627326D01*
X750932Y1625557D01*
X753618Y1624444D01*
X756500Y1624065D01*
X758730D01*
Y1633930D01*
D02*
G37*
G36*
X1022000Y1927648D02*
X1019838Y1927218D01*
X1018006Y1925994D01*
X1016781Y1924162D01*
X1016395Y1922221D01*
X1007087Y1912913D01*
X1006194Y1911576D01*
X1005881Y1910000D01*
Y1632000D01*
X1006194Y1630424D01*
X1007087Y1629087D01*
X1008395Y1627779D01*
X1008781Y1625838D01*
X1010006Y1624006D01*
X1011838Y1622781D01*
X1014000Y1622352D01*
X1016162Y1622781D01*
X1017994Y1624006D01*
X1019219Y1625838D01*
X1019649Y1628000D01*
X1019219Y1630162D01*
X1017994Y1631994D01*
X1016162Y1633219D01*
X1014221Y1633605D01*
X1014119Y1633706D01*
Y1908294D01*
X1022221Y1916395D01*
X1024162Y1916781D01*
X1025994Y1918006D01*
X1027218Y1919838D01*
X1027648Y1922000D01*
X1027218Y1924162D01*
X1025994Y1925994D01*
X1024162Y1927218D01*
X1022000Y1927648D01*
D02*
G37*
G36*
X936270Y1575396D02*
Y1571270D01*
X940396D01*
X940219Y1572162D01*
X938994Y1573994D01*
X937162Y1575219D01*
X936270Y1575396D01*
D02*
G37*
G36*
X933730D02*
X932838Y1575219D01*
X931006Y1573994D01*
X929781Y1572162D01*
X929604Y1571270D01*
X933730D01*
Y1575396D01*
D02*
G37*
G36*
X940396Y1568730D02*
X936270D01*
Y1564604D01*
X937162Y1564781D01*
X938994Y1566006D01*
X940219Y1567838D01*
X940396Y1568730D01*
D02*
G37*
G36*
X933730D02*
X929604D01*
X929781Y1567838D01*
X931006Y1566006D01*
X932838Y1564781D01*
X933730Y1564604D01*
Y1568730D01*
D02*
G37*
G36*
X1342700Y1549622D02*
X1340210Y1549294D01*
X1337889Y1548333D01*
X1335896Y1546804D01*
X1334367Y1544811D01*
X1333406Y1542490D01*
X1333078Y1540000D01*
X1333406Y1537509D01*
X1334367Y1535189D01*
X1335896Y1533196D01*
X1337889Y1531667D01*
X1340210Y1530706D01*
X1342700Y1530378D01*
X1345190Y1530706D01*
X1347511Y1531667D01*
X1349504Y1533196D01*
X1351033Y1535189D01*
X1351994Y1537509D01*
X1352322Y1540000D01*
X1351994Y1542490D01*
X1351033Y1544811D01*
X1349504Y1546804D01*
X1347511Y1548333D01*
X1345190Y1549294D01*
X1342700Y1549622D01*
D02*
G37*
G36*
X1317300D02*
X1314810Y1549294D01*
X1312489Y1548333D01*
X1310496Y1546804D01*
X1308967Y1544811D01*
X1308006Y1542490D01*
X1307678Y1540000D01*
X1308006Y1537509D01*
X1308967Y1535189D01*
X1310496Y1533196D01*
X1312489Y1531667D01*
X1314810Y1530706D01*
X1317300Y1530378D01*
X1319790Y1530706D01*
X1322111Y1531667D01*
X1324104Y1533196D01*
X1325633Y1535189D01*
X1326595Y1537509D01*
X1326922Y1540000D01*
X1326595Y1542490D01*
X1325633Y1544811D01*
X1324104Y1546804D01*
X1322111Y1548333D01*
X1319790Y1549294D01*
X1317300Y1549622D01*
D02*
G37*
G36*
X1044000Y1752648D02*
X1041838Y1752219D01*
X1040006Y1750994D01*
X1040006Y1750994D01*
X1028006Y1738994D01*
X1026781Y1737162D01*
X1026351Y1735000D01*
X1026351Y1735000D01*
Y1586000D01*
X1026351Y1586000D01*
X1026781Y1583838D01*
X1028006Y1582006D01*
X1090190Y1519822D01*
X1089704Y1518649D01*
X1088000D01*
X1088000Y1518649D01*
X1085838Y1518219D01*
X1084006Y1516994D01*
X1084006Y1516994D01*
X1071660Y1504648D01*
X1049000D01*
X1046838Y1504219D01*
X1045006Y1502994D01*
X1043782Y1501162D01*
X1043352Y1499000D01*
X1043782Y1496838D01*
X1045006Y1495006D01*
X1046838Y1493781D01*
X1049000Y1493351D01*
X1074000D01*
X1074000Y1493351D01*
X1076162Y1493781D01*
X1077994Y1495006D01*
X1090340Y1507352D01*
X1202660D01*
X1248615Y1461397D01*
X1248628Y1461293D01*
X1249287Y1459702D01*
X1250336Y1458336D01*
X1251702Y1457287D01*
X1253293Y1456628D01*
X1255000Y1456404D01*
X1256707Y1456628D01*
X1258298Y1457287D01*
X1259664Y1458336D01*
X1260713Y1459702D01*
X1261372Y1461293D01*
X1261596Y1463000D01*
X1261372Y1464707D01*
X1260713Y1466298D01*
X1259664Y1467664D01*
X1258298Y1468713D01*
X1256707Y1469372D01*
X1256603Y1469385D01*
X1208994Y1516994D01*
X1207162Y1518219D01*
X1205000Y1518649D01*
X1205000Y1518649D01*
X1107340D01*
X1037648Y1588340D01*
Y1732660D01*
X1047994Y1743006D01*
X1047994Y1743006D01*
X1049219Y1744838D01*
X1049649Y1747000D01*
X1049219Y1749162D01*
X1047994Y1750994D01*
X1046162Y1752219D01*
X1044000Y1752648D01*
D02*
G37*
G36*
X1026270Y1500396D02*
Y1496270D01*
X1030396D01*
X1030219Y1497162D01*
X1028994Y1498994D01*
X1027162Y1500219D01*
X1026270Y1500396D01*
D02*
G37*
G36*
X1023730D02*
X1022838Y1500219D01*
X1021006Y1498994D01*
X1019781Y1497162D01*
X1019604Y1496270D01*
X1023730D01*
Y1500396D01*
D02*
G37*
G36*
X1030396Y1493730D02*
X1026270D01*
Y1489604D01*
X1027162Y1489781D01*
X1028994Y1491006D01*
X1030219Y1492838D01*
X1030396Y1493730D01*
D02*
G37*
G36*
X1023730D02*
X1019604D01*
X1019781Y1492838D01*
X1021006Y1491006D01*
X1022838Y1489781D01*
X1023730Y1489604D01*
Y1493730D01*
D02*
G37*
G36*
X1335000Y1499831D02*
X1325000D01*
X1322249Y1499469D01*
X1319684Y1498407D01*
X1317483Y1496717D01*
X1315793Y1494516D01*
X1314731Y1491951D01*
X1314369Y1489200D01*
X1314731Y1486449D01*
X1315793Y1483884D01*
X1317483Y1481683D01*
X1319684Y1479993D01*
X1322249Y1478931D01*
X1325000Y1478569D01*
X1335000D01*
X1337751Y1478931D01*
X1340316Y1479993D01*
X1342517Y1481683D01*
X1344207Y1483884D01*
X1345269Y1486449D01*
X1345631Y1489200D01*
X1345269Y1491951D01*
X1344207Y1494516D01*
X1342517Y1496717D01*
X1340316Y1498407D01*
X1337751Y1499469D01*
X1335000Y1499831D01*
D02*
G37*
G36*
X765000D02*
X755000D01*
X752249Y1499469D01*
X749685Y1498407D01*
X747483Y1496717D01*
X745793Y1494516D01*
X744731Y1491951D01*
X744369Y1489200D01*
X744731Y1486449D01*
X745793Y1483884D01*
X747483Y1481683D01*
X749685Y1479993D01*
X752249Y1478931D01*
X755000Y1478569D01*
X765000D01*
X767751Y1478931D01*
X770315Y1479993D01*
X772517Y1481683D01*
X774207Y1483884D01*
X775269Y1486449D01*
X775631Y1489200D01*
X775269Y1491951D01*
X774207Y1494516D01*
X772517Y1496717D01*
X770315Y1498407D01*
X767751Y1499469D01*
X765000Y1499831D01*
D02*
G37*
G36*
X1209000Y1463639D02*
X1205987Y1463242D01*
X1203180Y1462079D01*
X1200770Y1460230D01*
X1198920Y1457819D01*
X1197757Y1455012D01*
X1197360Y1451999D01*
Y1438000D01*
X1197757Y1434988D01*
X1198920Y1432181D01*
X1200770Y1429770D01*
X1203180Y1427920D01*
X1205987Y1426758D01*
X1209000Y1426361D01*
X1212012Y1426758D01*
X1214820Y1427920D01*
X1217230Y1429770D01*
X1219080Y1432181D01*
X1220243Y1434988D01*
X1220639Y1438000D01*
Y1451999D01*
X1220243Y1455012D01*
X1219080Y1457819D01*
X1217230Y1460230D01*
X1214820Y1462079D01*
X1212012Y1463242D01*
X1209000Y1463639D01*
D02*
G37*
G36*
X979000D02*
X975987Y1463242D01*
X973180Y1462079D01*
X970770Y1460230D01*
X968920Y1457819D01*
X967757Y1455012D01*
X967360Y1451999D01*
Y1438000D01*
X967757Y1434988D01*
X968920Y1432181D01*
X970770Y1429770D01*
X973180Y1427920D01*
X975987Y1426758D01*
X979000Y1426361D01*
X982012Y1426758D01*
X984820Y1427920D01*
X987230Y1429770D01*
X989080Y1432181D01*
X990243Y1434988D01*
X990639Y1438000D01*
Y1451999D01*
X990243Y1455012D01*
X989080Y1457819D01*
X987230Y1460230D01*
X984820Y1462079D01*
X982012Y1463242D01*
X979000Y1463639D01*
D02*
G37*
G36*
X1111000Y1463640D02*
X1107987Y1463243D01*
X1105180Y1462080D01*
X1102770Y1460230D01*
X1100920Y1457820D01*
X1099757Y1455013D01*
X1099360Y1452000D01*
Y1438000D01*
X1099757Y1434987D01*
X1100920Y1432180D01*
X1102770Y1429769D01*
X1105180Y1427920D01*
X1107987Y1426757D01*
X1111000Y1426360D01*
X1114013Y1426757D01*
X1116820Y1427920D01*
X1119230Y1429769D01*
X1121080Y1432180D01*
X1122243Y1434987D01*
X1122639Y1438000D01*
Y1452000D01*
X1122243Y1455013D01*
X1121080Y1457820D01*
X1119230Y1460230D01*
X1116820Y1462080D01*
X1114013Y1463243D01*
X1111000Y1463640D01*
D02*
G37*
G36*
X881000D02*
X877987Y1463243D01*
X875180Y1462080D01*
X872770Y1460230D01*
X870920Y1457820D01*
X869757Y1455013D01*
X869360Y1452000D01*
Y1438000D01*
X869757Y1434987D01*
X870920Y1432180D01*
X872770Y1429769D01*
X875180Y1427920D01*
X877987Y1426757D01*
X881000Y1426360D01*
X884013Y1426757D01*
X886820Y1427920D01*
X889230Y1429769D01*
X891080Y1432180D01*
X892243Y1434987D01*
X892639Y1438000D01*
Y1452000D01*
X892243Y1455013D01*
X891080Y1457820D01*
X889230Y1460230D01*
X886820Y1462080D01*
X884013Y1463243D01*
X881000Y1463640D01*
D02*
G37*
G36*
X1330000Y1457625D02*
X1326562Y1457286D01*
X1323255Y1456283D01*
X1320208Y1454655D01*
X1317537Y1452463D01*
X1315345Y1449792D01*
X1313717Y1446745D01*
X1312714Y1443438D01*
X1312375Y1440000D01*
X1312714Y1436561D01*
X1313717Y1433255D01*
X1315345Y1430208D01*
X1317537Y1427537D01*
X1320208Y1425345D01*
X1323255Y1423717D01*
X1326562Y1422714D01*
X1330000Y1422375D01*
X1333439Y1422714D01*
X1336745Y1423717D01*
X1339792Y1425345D01*
X1342463Y1427537D01*
X1344655Y1430208D01*
X1346283Y1433255D01*
X1347286Y1436561D01*
X1347625Y1440000D01*
X1347286Y1443438D01*
X1346283Y1446745D01*
X1344655Y1449792D01*
X1342463Y1452463D01*
X1339792Y1454655D01*
X1336745Y1456283D01*
X1333439Y1457286D01*
X1330000Y1457625D01*
D02*
G37*
G36*
X760000D02*
X756562Y1457286D01*
X753255Y1456283D01*
X750208Y1454655D01*
X747537Y1452463D01*
X745346Y1449792D01*
X743717Y1446745D01*
X742714Y1443438D01*
X742375Y1440000D01*
X742714Y1436561D01*
X743717Y1433255D01*
X745346Y1430208D01*
X747537Y1427537D01*
X750208Y1425345D01*
X753255Y1423717D01*
X756562Y1422714D01*
X760000Y1422375D01*
X763438Y1422714D01*
X766745Y1423717D01*
X769792Y1425345D01*
X772463Y1427537D01*
X774654Y1430208D01*
X776283Y1433255D01*
X777286Y1436561D01*
X777625Y1440000D01*
X777286Y1443438D01*
X776283Y1446745D01*
X774654Y1449792D01*
X772463Y1452463D01*
X769792Y1454655D01*
X766745Y1456283D01*
X763438Y1457286D01*
X760000Y1457625D01*
D02*
G37*
G36*
X765000Y1417335D02*
X761270D01*
Y1407470D01*
X775968D01*
X775756Y1409082D01*
X774643Y1411768D01*
X772874Y1414074D01*
X770568Y1415843D01*
X767882Y1416956D01*
X765000Y1417335D01*
D02*
G37*
G36*
X758730D02*
X755000D01*
X752118Y1416956D01*
X749432Y1415843D01*
X747126Y1414074D01*
X745357Y1411768D01*
X744244Y1409082D01*
X744032Y1407470D01*
X758730D01*
Y1417335D01*
D02*
G37*
G36*
X1335000D02*
X1325000D01*
X1322118Y1416956D01*
X1319432Y1415843D01*
X1317126Y1414074D01*
X1315357Y1411768D01*
X1314244Y1409082D01*
X1313865Y1406200D01*
X1314244Y1403318D01*
X1315357Y1400632D01*
X1317126Y1398326D01*
X1319432Y1396557D01*
X1322118Y1395444D01*
X1325000Y1395065D01*
X1335000D01*
X1337882Y1395444D01*
X1340568Y1396557D01*
X1342874Y1398326D01*
X1344643Y1400632D01*
X1345756Y1403318D01*
X1346135Y1406200D01*
X1345756Y1409082D01*
X1344643Y1411768D01*
X1342874Y1414074D01*
X1340568Y1415843D01*
X1337882Y1416956D01*
X1335000Y1417335D01*
D02*
G37*
G36*
X775968Y1404930D02*
X761270D01*
Y1395065D01*
X765000D01*
X767882Y1395444D01*
X770568Y1396557D01*
X772874Y1398326D01*
X774643Y1400632D01*
X775756Y1403318D01*
X775968Y1404930D01*
D02*
G37*
G36*
X758730D02*
X744032D01*
X744244Y1403318D01*
X745357Y1400632D01*
X747126Y1398326D01*
X749432Y1396557D01*
X752118Y1395444D01*
X755000Y1395065D01*
X758730D01*
Y1404930D01*
D02*
G37*
G36*
X1070040Y1400040D02*
X1049960D01*
Y1379960D01*
X1070040D01*
Y1400040D01*
D02*
G37*
G36*
X1034600Y1400127D02*
X1031979Y1399782D01*
X1029537Y1398770D01*
X1027439Y1397161D01*
X1025830Y1395063D01*
X1024818Y1392621D01*
X1024473Y1390000D01*
X1024818Y1387379D01*
X1025830Y1384937D01*
X1027439Y1382839D01*
X1029537Y1381230D01*
X1031979Y1380218D01*
X1034600Y1379873D01*
X1037221Y1380218D01*
X1039663Y1381230D01*
X1041761Y1382839D01*
X1043370Y1384937D01*
X1044382Y1387379D01*
X1044727Y1390000D01*
X1044382Y1392621D01*
X1043370Y1395063D01*
X1041761Y1397161D01*
X1039663Y1398770D01*
X1037221Y1399782D01*
X1034600Y1400127D01*
D02*
G37*
G36*
X1333500Y1386335D02*
X1331270D01*
Y1376470D01*
X1344468D01*
X1344256Y1378082D01*
X1343143Y1380768D01*
X1341374Y1383074D01*
X1339068Y1384843D01*
X1336382Y1385956D01*
X1333500Y1386335D01*
D02*
G37*
G36*
X1328730D02*
X1326500D01*
X1323618Y1385956D01*
X1320932Y1384843D01*
X1318626Y1383074D01*
X1316857Y1380768D01*
X1315744Y1378082D01*
X1315532Y1376470D01*
X1328730D01*
Y1386335D01*
D02*
G37*
G36*
X763500D02*
X761270D01*
Y1376470D01*
X774468D01*
X774256Y1378082D01*
X773143Y1380768D01*
X771374Y1383074D01*
X769068Y1384843D01*
X766382Y1385956D01*
X763500Y1386335D01*
D02*
G37*
G36*
X758730D02*
X756500D01*
X753618Y1385956D01*
X750932Y1384843D01*
X748626Y1383074D01*
X746857Y1380768D01*
X745744Y1378082D01*
X745532Y1376470D01*
X758730D01*
Y1386335D01*
D02*
G37*
G36*
X1185001Y1384735D02*
X1182482Y1384404D01*
X1180134Y1383431D01*
X1178117Y1381884D01*
X1176570Y1379868D01*
X1175598Y1377520D01*
X1175266Y1375000D01*
X1175598Y1372480D01*
X1176570Y1370132D01*
X1178117Y1368116D01*
X1180134Y1366569D01*
X1182482Y1365596D01*
X1185001Y1365265D01*
X1187521Y1365596D01*
X1189869Y1366569D01*
X1191885Y1368116D01*
X1193432Y1370132D01*
X1194405Y1372480D01*
X1194736Y1375000D01*
X1194405Y1377520D01*
X1193432Y1379868D01*
X1191885Y1381884D01*
X1189869Y1383431D01*
X1187521Y1384404D01*
X1185001Y1384735D01*
D02*
G37*
G36*
X1160000D02*
X1157480Y1384404D01*
X1155132Y1383431D01*
X1153116Y1381884D01*
X1151569Y1379868D01*
X1150596Y1377520D01*
X1150265Y1375000D01*
X1150596Y1372480D01*
X1151569Y1370132D01*
X1153116Y1368116D01*
X1155132Y1366569D01*
X1157480Y1365596D01*
X1160000Y1365265D01*
X1162520Y1365596D01*
X1164868Y1366569D01*
X1166884Y1368116D01*
X1168431Y1370132D01*
X1169404Y1372480D01*
X1169735Y1375000D01*
X1169404Y1377520D01*
X1168431Y1379868D01*
X1166884Y1381884D01*
X1164868Y1383431D01*
X1162520Y1384404D01*
X1160000Y1384735D01*
D02*
G37*
G36*
X1134999D02*
X1132479Y1384404D01*
X1130131Y1383431D01*
X1128115Y1381884D01*
X1126568Y1379868D01*
X1125595Y1377520D01*
X1125264Y1375000D01*
X1125595Y1372480D01*
X1126568Y1370132D01*
X1128115Y1368116D01*
X1130131Y1366569D01*
X1132479Y1365596D01*
X1134999Y1365265D01*
X1137518Y1365596D01*
X1139866Y1366569D01*
X1141883Y1368116D01*
X1143430Y1370132D01*
X1144402Y1372480D01*
X1144734Y1375000D01*
X1144402Y1377520D01*
X1143430Y1379868D01*
X1141883Y1381884D01*
X1139866Y1383431D01*
X1137518Y1384404D01*
X1134999Y1384735D01*
D02*
G37*
G36*
X955001D02*
X952482Y1384404D01*
X950134Y1383431D01*
X948117Y1381884D01*
X946570Y1379868D01*
X945598Y1377520D01*
X945266Y1375000D01*
X945598Y1372480D01*
X946570Y1370132D01*
X948117Y1368116D01*
X950134Y1366569D01*
X952482Y1365596D01*
X955001Y1365265D01*
X957521Y1365596D01*
X959869Y1366569D01*
X961885Y1368116D01*
X963432Y1370132D01*
X964405Y1372480D01*
X964736Y1375000D01*
X964405Y1377520D01*
X963432Y1379868D01*
X961885Y1381884D01*
X959869Y1383431D01*
X957521Y1384404D01*
X955001Y1384735D01*
D02*
G37*
G36*
X930000D02*
X927480Y1384404D01*
X925132Y1383431D01*
X923116Y1381884D01*
X921569Y1379868D01*
X920596Y1377520D01*
X920265Y1375000D01*
X920596Y1372480D01*
X921569Y1370132D01*
X923116Y1368116D01*
X925132Y1366569D01*
X927480Y1365596D01*
X930000Y1365265D01*
X932520Y1365596D01*
X934868Y1366569D01*
X936884Y1368116D01*
X938431Y1370132D01*
X939404Y1372480D01*
X939735Y1375000D01*
X939404Y1377520D01*
X938431Y1379868D01*
X936884Y1381884D01*
X934868Y1383431D01*
X932520Y1384404D01*
X930000Y1384735D01*
D02*
G37*
G36*
X904999D02*
X902479Y1384404D01*
X900131Y1383431D01*
X898115Y1381884D01*
X896568Y1379868D01*
X895595Y1377520D01*
X895264Y1375000D01*
X895595Y1372480D01*
X896568Y1370132D01*
X898115Y1368116D01*
X900131Y1366569D01*
X902479Y1365596D01*
X904999Y1365265D01*
X907518Y1365596D01*
X909866Y1366569D01*
X911883Y1368116D01*
X913430Y1370132D01*
X914402Y1372480D01*
X914734Y1375000D01*
X914402Y1377520D01*
X913430Y1379868D01*
X911883Y1381884D01*
X909866Y1383431D01*
X907518Y1384404D01*
X904999Y1384735D01*
D02*
G37*
G36*
X1344468Y1373930D02*
X1331270D01*
Y1364065D01*
X1333500D01*
X1336382Y1364444D01*
X1339068Y1365557D01*
X1341374Y1367326D01*
X1343143Y1369632D01*
X1344256Y1372318D01*
X1344468Y1373930D01*
D02*
G37*
G36*
X1328730D02*
X1315532D01*
X1315744Y1372318D01*
X1316857Y1369632D01*
X1318626Y1367326D01*
X1320932Y1365557D01*
X1323618Y1364444D01*
X1326500Y1364065D01*
X1328730D01*
Y1373930D01*
D02*
G37*
G36*
X774468D02*
X761270D01*
Y1364065D01*
X763500D01*
X766382Y1364444D01*
X769068Y1365557D01*
X771374Y1367326D01*
X773143Y1369632D01*
X774256Y1372318D01*
X774468Y1373930D01*
D02*
G37*
G36*
X758730D02*
X745532D01*
X745744Y1372318D01*
X746857Y1369632D01*
X748626Y1367326D01*
X750932Y1365557D01*
X753618Y1364444D01*
X756500Y1364065D01*
X758730D01*
Y1373930D01*
D02*
G37*
G36*
X1060000Y1374727D02*
X1057379Y1374382D01*
X1054937Y1373370D01*
X1052839Y1371761D01*
X1051230Y1369663D01*
X1050218Y1367221D01*
X1049873Y1364600D01*
X1050218Y1361979D01*
X1051230Y1359537D01*
X1052839Y1357439D01*
X1054937Y1355830D01*
X1057379Y1354818D01*
X1060000Y1354473D01*
X1062621Y1354818D01*
X1065063Y1355830D01*
X1067161Y1357439D01*
X1068770Y1359537D01*
X1069782Y1361979D01*
X1070127Y1364600D01*
X1069782Y1367221D01*
X1068770Y1369663D01*
X1067161Y1371761D01*
X1065063Y1373370D01*
X1062621Y1374382D01*
X1060000Y1374727D01*
D02*
G37*
G36*
X1034600D02*
X1031979Y1374382D01*
X1029537Y1373370D01*
X1027439Y1371761D01*
X1025830Y1369663D01*
X1024818Y1367221D01*
X1024473Y1364600D01*
X1024818Y1361979D01*
X1025830Y1359537D01*
X1027439Y1357439D01*
X1029537Y1355830D01*
X1031979Y1354818D01*
X1034600Y1354473D01*
X1037221Y1354818D01*
X1039663Y1355830D01*
X1041761Y1357439D01*
X1043370Y1359537D01*
X1044382Y1361979D01*
X1044727Y1364600D01*
X1044382Y1367221D01*
X1043370Y1369663D01*
X1041761Y1371761D01*
X1039663Y1373370D01*
X1037221Y1374382D01*
X1034600Y1374727D01*
D02*
G37*
G36*
X1060000Y1349327D02*
X1057379Y1348982D01*
X1054937Y1347970D01*
X1052839Y1346361D01*
X1051230Y1344263D01*
X1050218Y1341821D01*
X1049873Y1339200D01*
X1050218Y1336579D01*
X1051230Y1334137D01*
X1052839Y1332039D01*
X1054937Y1330430D01*
X1057379Y1329418D01*
X1060000Y1329073D01*
X1062621Y1329418D01*
X1065063Y1330430D01*
X1067161Y1332039D01*
X1068770Y1334137D01*
X1069782Y1336579D01*
X1070127Y1339200D01*
X1069782Y1341821D01*
X1068770Y1344263D01*
X1067161Y1346361D01*
X1065063Y1347970D01*
X1062621Y1348982D01*
X1060000Y1349327D01*
D02*
G37*
G36*
X1034600D02*
X1031979Y1348982D01*
X1029537Y1347970D01*
X1027439Y1346361D01*
X1025830Y1344263D01*
X1024818Y1341821D01*
X1024473Y1339200D01*
X1024818Y1336579D01*
X1025830Y1334137D01*
X1027439Y1332039D01*
X1029537Y1330430D01*
X1031979Y1329418D01*
X1034600Y1329073D01*
X1037221Y1329418D01*
X1039663Y1330430D01*
X1041761Y1332039D01*
X1043370Y1334137D01*
X1044382Y1336579D01*
X1044727Y1339200D01*
X1044382Y1341821D01*
X1043370Y1344263D01*
X1041761Y1346361D01*
X1039663Y1347970D01*
X1037221Y1348982D01*
X1034600Y1349327D01*
D02*
G37*
G36*
X1060000Y1323927D02*
X1057379Y1323582D01*
X1054937Y1322570D01*
X1052839Y1320961D01*
X1051230Y1318863D01*
X1050218Y1316421D01*
X1049873Y1313800D01*
X1050218Y1311179D01*
X1051230Y1308737D01*
X1052839Y1306639D01*
X1054937Y1305030D01*
X1057379Y1304018D01*
X1060000Y1303673D01*
X1062621Y1304018D01*
X1065063Y1305030D01*
X1067161Y1306639D01*
X1068770Y1308737D01*
X1069782Y1311179D01*
X1070127Y1313800D01*
X1069782Y1316421D01*
X1068770Y1318863D01*
X1067161Y1320961D01*
X1065063Y1322570D01*
X1062621Y1323582D01*
X1060000Y1323927D01*
D02*
G37*
G36*
X1034600D02*
X1031979Y1323582D01*
X1029537Y1322570D01*
X1027439Y1320961D01*
X1025830Y1318863D01*
X1024818Y1316421D01*
X1024473Y1313800D01*
X1024818Y1311179D01*
X1025830Y1308737D01*
X1027439Y1306639D01*
X1029537Y1305030D01*
X1031979Y1304018D01*
X1034600Y1303673D01*
X1037221Y1304018D01*
X1039663Y1305030D01*
X1041761Y1306639D01*
X1043370Y1308737D01*
X1044382Y1311179D01*
X1044727Y1313800D01*
X1044382Y1316421D01*
X1043370Y1318863D01*
X1041761Y1320961D01*
X1039663Y1322570D01*
X1037221Y1323582D01*
X1034600Y1323927D01*
D02*
G37*
G36*
X999000Y1487648D02*
X996838Y1487219D01*
X995006Y1485994D01*
X993782Y1484162D01*
X993352Y1482000D01*
X993782Y1479838D01*
X994881Y1478193D01*
Y1451000D01*
X995194Y1449424D01*
X996087Y1448087D01*
X1003881Y1440294D01*
Y1309807D01*
X1002781Y1308162D01*
X1002352Y1306000D01*
X1002781Y1303838D01*
X1004006Y1302006D01*
X1005838Y1300781D01*
X1008000Y1300352D01*
X1010162Y1300781D01*
X1011994Y1302006D01*
X1013219Y1303838D01*
X1013649Y1306000D01*
X1013219Y1308162D01*
X1012119Y1309807D01*
Y1442000D01*
X1011806Y1443576D01*
X1010913Y1444913D01*
X1003119Y1452706D01*
Y1478193D01*
X1004219Y1479838D01*
X1004649Y1482000D01*
X1004219Y1484162D01*
X1002994Y1485994D01*
X1001162Y1487219D01*
X999000Y1487648D01*
D02*
G37*
G36*
X1161270Y1295396D02*
Y1291270D01*
X1165396D01*
X1165219Y1292162D01*
X1163994Y1293994D01*
X1162162Y1295219D01*
X1161270Y1295396D01*
D02*
G37*
G36*
X1158730D02*
X1157838Y1295219D01*
X1156006Y1293994D01*
X1154781Y1292162D01*
X1154604Y1291270D01*
X1158730D01*
Y1295396D01*
D02*
G37*
G36*
X1061270Y1298359D02*
Y1289670D01*
X1069959D01*
X1069782Y1291021D01*
X1068770Y1293463D01*
X1067161Y1295561D01*
X1065063Y1297170D01*
X1062621Y1298182D01*
X1061270Y1298359D01*
D02*
G37*
G36*
X1035870D02*
Y1289670D01*
X1044559D01*
X1044382Y1291021D01*
X1043370Y1293463D01*
X1041761Y1295561D01*
X1039663Y1297170D01*
X1037221Y1298182D01*
X1035870Y1298359D01*
D02*
G37*
G36*
X1058730Y1298359D02*
X1057379Y1298182D01*
X1054937Y1297170D01*
X1052839Y1295561D01*
X1051230Y1293463D01*
X1050218Y1291021D01*
X1050041Y1289670D01*
X1058730D01*
Y1298359D01*
D02*
G37*
G36*
X1033330D02*
X1031979Y1298182D01*
X1029537Y1297170D01*
X1027439Y1295561D01*
X1025830Y1293463D01*
X1024818Y1291021D01*
X1024641Y1289670D01*
X1033330D01*
Y1298359D01*
D02*
G37*
G36*
X886270Y1290396D02*
Y1286270D01*
X890396D01*
X890219Y1287162D01*
X888994Y1288994D01*
X887162Y1290219D01*
X886270Y1290396D01*
D02*
G37*
G36*
X883730D02*
X882838Y1290219D01*
X881006Y1288994D01*
X879781Y1287162D01*
X879604Y1286270D01*
X883730D01*
Y1290396D01*
D02*
G37*
G36*
X1165396Y1288730D02*
X1161270D01*
Y1284604D01*
X1162162Y1284781D01*
X1163994Y1286006D01*
X1165219Y1287838D01*
X1165396Y1288730D01*
D02*
G37*
G36*
X1158730D02*
X1154604D01*
X1154781Y1287838D01*
X1156006Y1286006D01*
X1157838Y1284781D01*
X1158730Y1284604D01*
Y1288730D01*
D02*
G37*
G36*
X890396Y1283730D02*
X886270D01*
Y1279604D01*
X887162Y1279781D01*
X888994Y1281006D01*
X890219Y1282838D01*
X890396Y1283730D01*
D02*
G37*
G36*
X883730D02*
X879604D01*
X879781Y1282838D01*
X881006Y1281006D01*
X882838Y1279781D01*
X883730Y1279604D01*
Y1283730D01*
D02*
G37*
G36*
X1044559Y1287130D02*
X1035870D01*
Y1278441D01*
X1037221Y1278618D01*
X1039663Y1279630D01*
X1041761Y1281239D01*
X1043370Y1283337D01*
X1044382Y1285779D01*
X1044559Y1287130D01*
D02*
G37*
G36*
X1069959D02*
X1061270D01*
Y1278441D01*
X1062621Y1278618D01*
X1065063Y1279630D01*
X1067161Y1281239D01*
X1068770Y1283337D01*
X1069782Y1285779D01*
X1069959Y1287130D01*
D02*
G37*
G36*
X1058730D02*
X1050041D01*
X1050218Y1285779D01*
X1051230Y1283337D01*
X1052839Y1281239D01*
X1054937Y1279630D01*
X1057379Y1278618D01*
X1058730Y1278440D01*
Y1287130D01*
D02*
G37*
G36*
X1033330D02*
X1024641D01*
X1024818Y1285779D01*
X1025830Y1283337D01*
X1027439Y1281239D01*
X1029537Y1279630D01*
X1031979Y1278618D01*
X1033330Y1278440D01*
Y1287130D01*
D02*
G37*
G36*
X744986Y1340519D02*
X744224D01*
X742843Y1340245D01*
X741672Y1339462D01*
X740889Y1338291D01*
X740834Y1338014D01*
X740557Y1337959D01*
X739386Y1337176D01*
X739081Y1336719D01*
X738624Y1336414D01*
X738319Y1335957D01*
X737862Y1335652D01*
X737557Y1335195D01*
X737100Y1334890D01*
X736795Y1334433D01*
X736338Y1334128D01*
X735555Y1332957D01*
X735281Y1331576D01*
X735307Y1331441D01*
X735271Y1331385D01*
X734814Y1331080D01*
X734031Y1329909D01*
X733757Y1328528D01*
X732947Y1327498D01*
X732542Y1327364D01*
X732175Y1327291D01*
X731004Y1326508D01*
X730221Y1325337D01*
X730113Y1324791D01*
X729459Y1323813D01*
X729185Y1322432D01*
X729186Y1322427D01*
X729127Y1321195D01*
X727956Y1320412D01*
X727173Y1319241D01*
X726899Y1317860D01*
X726926Y1317725D01*
X726411Y1316955D01*
X726137Y1315574D01*
X726212Y1315193D01*
X726137Y1314812D01*
X726397Y1313502D01*
X726127Y1313097D01*
X725670Y1312792D01*
X724887Y1311621D01*
X724613Y1310240D01*
X724688Y1309859D01*
X724613Y1309478D01*
X724887Y1308097D01*
X725070Y1307823D01*
X725609Y1306811D01*
X725070Y1305799D01*
X724887Y1305525D01*
X724613Y1304144D01*
X724640Y1304009D01*
X724125Y1303239D01*
X723851Y1301858D01*
X723926Y1301477D01*
X723851Y1301096D01*
X723926Y1300715D01*
X723851Y1300334D01*
X723926Y1299953D01*
X723851Y1299572D01*
X723926Y1299191D01*
X723851Y1298810D01*
X723926Y1298429D01*
X723851Y1298048D01*
X723926Y1297667D01*
X723851Y1297286D01*
X723926Y1296905D01*
X723851Y1296524D01*
X723926Y1296143D01*
X723851Y1295762D01*
X723926Y1295381D01*
X723851Y1295000D01*
X723926Y1294619D01*
X723851Y1294238D01*
X723926Y1293857D01*
X723851Y1293476D01*
X723926Y1293095D01*
X723851Y1292714D01*
X723926Y1292333D01*
X723851Y1291952D01*
X724125Y1290571D01*
X724908Y1289400D01*
X725189Y1289212D01*
X724887Y1288761D01*
X724613Y1287380D01*
X724688Y1286999D01*
X724613Y1286618D01*
X724688Y1286237D01*
X724613Y1285856D01*
X724887Y1284475D01*
X725402Y1283705D01*
X725375Y1283570D01*
X725649Y1282189D01*
X726163Y1281419D01*
X726137Y1281284D01*
X726411Y1279903D01*
X726926Y1279133D01*
X726899Y1278998D01*
X727173Y1277617D01*
X727827Y1276639D01*
X727935Y1276093D01*
X728589Y1275115D01*
X728697Y1274569D01*
X729351Y1273591D01*
X729459Y1273045D01*
X730113Y1272067D01*
X730221Y1271521D01*
X731004Y1270350D01*
X731461Y1270045D01*
X731637Y1269781D01*
X731745Y1269235D01*
X732528Y1268064D01*
X732985Y1267759D01*
X733161Y1267495D01*
X733269Y1266949D01*
X734052Y1265778D01*
X734509Y1265473D01*
X734814Y1265016D01*
X735413Y1264615D01*
X735555Y1263901D01*
X736338Y1262730D01*
X736795Y1262425D01*
X737100Y1261968D01*
X737557Y1261663D01*
X737862Y1261206D01*
X739033Y1260423D01*
X740414Y1260149D01*
X741176D01*
X742557Y1260423D01*
X743728Y1261206D01*
X744033Y1261663D01*
X744490Y1261968D01*
X745273Y1263139D01*
X745381Y1263685D01*
X746035Y1264663D01*
X746309Y1266044D01*
X746308Y1266049D01*
X746367Y1267281D01*
X747538Y1268064D01*
X748321Y1269235D01*
X748595Y1270616D01*
X748568Y1270751D01*
X749083Y1271521D01*
X749191Y1272067D01*
X749845Y1273045D01*
X749953Y1273591D01*
X750607Y1274569D01*
X750715Y1275115D01*
X751369Y1276093D01*
X751477Y1276639D01*
X752131Y1277617D01*
X752405Y1278998D01*
X752378Y1279133D01*
X752893Y1279903D01*
X753001Y1280449D01*
X753177Y1280713D01*
X753192Y1280723D01*
X754892D01*
X756273Y1280997D01*
X756941Y1281443D01*
X758337Y1281165D01*
X758436Y1281018D01*
X758893Y1280713D01*
X759198Y1280256D01*
X760369Y1279473D01*
X760915Y1279365D01*
X761893Y1278711D01*
X762439Y1278603D01*
X763417Y1277949D01*
X764798Y1277675D01*
X765735D01*
X766465Y1277187D01*
X767846Y1276913D01*
X768158D01*
X768321Y1276093D01*
X769104Y1274922D01*
X769561Y1274617D01*
X769866Y1274160D01*
X770323Y1273855D01*
X770628Y1273398D01*
X771799Y1272615D01*
X772678Y1272440D01*
X772619Y1272140D01*
X772893Y1270759D01*
X773676Y1269588D01*
X774133Y1269283D01*
X774438Y1268826D01*
X774895Y1268521D01*
X775200Y1268064D01*
X776371Y1267281D01*
X776917Y1267173D01*
X777895Y1266519D01*
X779276Y1266245D01*
X781738D01*
X782467Y1265757D01*
X783848Y1265483D01*
X785372D01*
X786753Y1265757D01*
X787482Y1266245D01*
X789182D01*
X790563Y1266519D01*
X791292Y1267007D01*
X792992D01*
X794373Y1267281D01*
X795102Y1267769D01*
X795278D01*
X796659Y1268043D01*
X797388Y1268531D01*
X797564D01*
X798945Y1268805D01*
X799923Y1269459D01*
X800469Y1269567D01*
X801198Y1270055D01*
X801374D01*
X802755Y1270329D01*
X803733Y1270983D01*
X804279Y1271091D01*
X805257Y1271745D01*
X805803Y1271853D01*
X806974Y1272636D01*
X807279Y1273093D01*
X807736Y1273398D01*
X808041Y1273855D01*
X808498Y1274160D01*
X808803Y1274617D01*
X809260Y1274922D01*
X809565Y1275379D01*
X810022Y1275684D01*
X810327Y1276141D01*
X810784Y1276446D01*
X811567Y1277617D01*
X811675Y1278163D01*
X811851Y1278427D01*
X812308Y1278732D01*
X813091Y1279903D01*
X813199Y1280449D01*
X813375Y1280713D01*
X813832Y1281018D01*
X814615Y1282189D01*
X814723Y1282735D01*
X814899Y1282999D01*
X815356Y1283304D01*
X816139Y1284475D01*
X816413Y1285856D01*
X816386Y1285991D01*
X816901Y1286761D01*
X817175Y1288142D01*
X817148Y1288277D01*
X817663Y1289047D01*
X817937Y1290428D01*
X817861Y1290809D01*
X817937Y1291190D01*
X817861Y1291571D01*
X817937Y1291952D01*
X817861Y1292333D01*
X817937Y1292714D01*
X817861Y1293095D01*
X817937Y1293476D01*
X817910Y1293611D01*
X818425Y1294381D01*
X818699Y1295762D01*
X818624Y1296143D01*
X818699Y1296524D01*
X818624Y1296905D01*
X818699Y1297286D01*
X818624Y1297667D01*
X818699Y1298048D01*
X818624Y1298429D01*
X818699Y1298810D01*
X818624Y1299191D01*
X818699Y1299572D01*
X818624Y1299953D01*
X818699Y1300334D01*
X818624Y1300715D01*
X818699Y1301096D01*
X818425Y1302477D01*
X817910Y1303247D01*
X817937Y1303382D01*
X817861Y1303763D01*
X817937Y1304144D01*
X817861Y1304525D01*
X817937Y1304906D01*
X817861Y1305287D01*
X817937Y1305668D01*
X817861Y1306049D01*
X817937Y1306430D01*
X817663Y1307811D01*
X817009Y1308789D01*
X816901Y1309335D01*
X816386Y1310105D01*
X816413Y1310240D01*
X816338Y1310621D01*
X816413Y1311002D01*
X816139Y1312383D01*
X815356Y1313554D01*
X814185Y1314337D01*
X812804Y1314611D01*
X812628D01*
X812613Y1314621D01*
X812308Y1315078D01*
X811395Y1315689D01*
X810784Y1316602D01*
X810327Y1316907D01*
X810022Y1317364D01*
X809565Y1317669D01*
X809260Y1318126D01*
X808089Y1318909D01*
X807543Y1319017D01*
X806565Y1319671D01*
X806019Y1319779D01*
X805755Y1319955D01*
X805450Y1320412D01*
X804993Y1320717D01*
X804688Y1321174D01*
X803517Y1321957D01*
X802136Y1322231D01*
X790706D01*
X789325Y1321957D01*
X788596Y1321469D01*
X784610D01*
X783229Y1321195D01*
X782499Y1320707D01*
X780800D01*
X779419Y1320433D01*
X778248Y1319650D01*
X777943Y1319193D01*
X777712Y1319040D01*
X776990Y1319183D01*
X773180D01*
X771799Y1318909D01*
X771069Y1318421D01*
X770894D01*
X769513Y1318147D01*
X768342Y1317364D01*
X767802Y1316557D01*
X767703Y1316623D01*
X766322Y1316897D01*
X763274D01*
X761893Y1316623D01*
X761369Y1316273D01*
X760845Y1316623D01*
X760299Y1316731D01*
X759321Y1317385D01*
X757940Y1317659D01*
X757162D01*
X756215Y1318622D01*
X755941Y1320003D01*
X755426Y1320773D01*
X755453Y1320908D01*
X755179Y1322289D01*
X754664Y1323059D01*
X754691Y1323194D01*
X754417Y1324575D01*
X753763Y1325553D01*
X753655Y1326099D01*
X753001Y1327077D01*
X752893Y1327623D01*
X752378Y1328393D01*
X752405Y1328528D01*
X752329Y1328909D01*
X752405Y1329290D01*
X752329Y1329671D01*
X752405Y1330052D01*
X752131Y1331433D01*
X751616Y1332203D01*
X751643Y1332338D01*
X751568Y1332719D01*
X751643Y1333100D01*
X751568Y1333481D01*
X751643Y1333862D01*
X751369Y1335243D01*
X750586Y1336414D01*
X750129Y1336719D01*
X749824Y1337176D01*
X749367Y1337481D01*
X749062Y1337938D01*
X748605Y1338243D01*
X748300Y1338700D01*
X747843Y1339005D01*
X747538Y1339462D01*
X746367Y1340245D01*
X744986Y1340519D01*
D02*
G37*
G36*
X999000Y1521649D02*
X996838Y1521219D01*
X995006Y1519994D01*
X993782Y1518162D01*
X993352Y1516000D01*
X993782Y1513838D01*
X994881Y1512193D01*
Y1502000D01*
X995194Y1500424D01*
X996087Y1499087D01*
X1091087Y1404087D01*
X1092424Y1403194D01*
X1094000Y1402881D01*
X1208294D01*
X1260881Y1350294D01*
Y1274807D01*
X1259781Y1273162D01*
X1259352Y1271000D01*
X1259781Y1268838D01*
X1261006Y1267006D01*
X1262838Y1265781D01*
X1265000Y1265351D01*
X1267162Y1265781D01*
X1268994Y1267006D01*
X1270219Y1268838D01*
X1270648Y1271000D01*
X1270219Y1273162D01*
X1269119Y1274807D01*
Y1352000D01*
X1268806Y1353576D01*
X1267913Y1354913D01*
X1212913Y1409913D01*
X1211576Y1410806D01*
X1210000Y1411119D01*
X1095706D01*
X1003119Y1503706D01*
Y1512193D01*
X1004219Y1513838D01*
X1004649Y1516000D01*
X1004219Y1518162D01*
X1002994Y1519994D01*
X1001162Y1521219D01*
X999000Y1521649D01*
D02*
G37*
G36*
X1061270Y1272959D02*
Y1264270D01*
X1069959D01*
X1069782Y1265621D01*
X1068770Y1268063D01*
X1067161Y1270161D01*
X1065063Y1271770D01*
X1062621Y1272782D01*
X1061270Y1272959D01*
D02*
G37*
G36*
X1035870D02*
Y1264270D01*
X1044559D01*
X1044382Y1265621D01*
X1043370Y1268063D01*
X1041761Y1270161D01*
X1039663Y1271770D01*
X1037221Y1272782D01*
X1035870Y1272959D01*
D02*
G37*
G36*
X1058730Y1272959D02*
X1057379Y1272782D01*
X1054937Y1271770D01*
X1052839Y1270161D01*
X1051230Y1268063D01*
X1050218Y1265621D01*
X1050041Y1264270D01*
X1058730D01*
Y1272959D01*
D02*
G37*
G36*
X1033330D02*
X1031979Y1272782D01*
X1029537Y1271770D01*
X1027439Y1270161D01*
X1025830Y1268063D01*
X1024818Y1265621D01*
X1024641Y1264270D01*
X1033330D01*
Y1272959D01*
D02*
G37*
G36*
X1342700Y1279622D02*
X1340210Y1279294D01*
X1337889Y1278333D01*
X1335896Y1276804D01*
X1334367Y1274811D01*
X1333406Y1272490D01*
X1333078Y1270000D01*
X1333406Y1267510D01*
X1334367Y1265189D01*
X1335896Y1263196D01*
X1337889Y1261667D01*
X1340210Y1260706D01*
X1342700Y1260378D01*
X1345190Y1260706D01*
X1347511Y1261667D01*
X1349504Y1263196D01*
X1351033Y1265189D01*
X1351994Y1267510D01*
X1352322Y1270000D01*
X1351994Y1272490D01*
X1351033Y1274811D01*
X1349504Y1276804D01*
X1347511Y1278333D01*
X1345190Y1279294D01*
X1342700Y1279622D01*
D02*
G37*
G36*
X1317300D02*
X1314810Y1279294D01*
X1312489Y1278333D01*
X1310496Y1276804D01*
X1308967Y1274811D01*
X1308006Y1272490D01*
X1307678Y1270000D01*
X1308006Y1267510D01*
X1308967Y1265189D01*
X1310496Y1263196D01*
X1312489Y1261667D01*
X1314810Y1260706D01*
X1317300Y1260378D01*
X1319790Y1260706D01*
X1322111Y1261667D01*
X1324104Y1263196D01*
X1325633Y1265189D01*
X1326595Y1267510D01*
X1326922Y1270000D01*
X1326595Y1272490D01*
X1325633Y1274811D01*
X1324104Y1276804D01*
X1322111Y1278333D01*
X1319790Y1279294D01*
X1317300Y1279622D01*
D02*
G37*
G36*
X1069959Y1261730D02*
X1061270D01*
Y1253041D01*
X1062621Y1253218D01*
X1065063Y1254230D01*
X1067161Y1255839D01*
X1068770Y1257937D01*
X1069782Y1260379D01*
X1069959Y1261730D01*
D02*
G37*
G36*
X1044559D02*
X1035870D01*
Y1253041D01*
X1037221Y1253218D01*
X1039663Y1254230D01*
X1041761Y1255839D01*
X1043370Y1257937D01*
X1044382Y1260379D01*
X1044559Y1261730D01*
D02*
G37*
G36*
X1058730D02*
X1050041D01*
X1050218Y1260379D01*
X1051230Y1257937D01*
X1052839Y1255839D01*
X1054937Y1254230D01*
X1057379Y1253218D01*
X1058730Y1253040D01*
Y1261730D01*
D02*
G37*
G36*
X1033330D02*
X1024641D01*
X1024818Y1260379D01*
X1025830Y1257937D01*
X1027439Y1255839D01*
X1029537Y1254230D01*
X1031979Y1253218D01*
X1033330Y1253040D01*
Y1261730D01*
D02*
G37*
G36*
X1061270Y1247559D02*
Y1238870D01*
X1069959D01*
X1069782Y1240221D01*
X1068770Y1242663D01*
X1067161Y1244761D01*
X1065063Y1246370D01*
X1062621Y1247382D01*
X1061270Y1247559D01*
D02*
G37*
G36*
X1035870D02*
Y1238870D01*
X1044559D01*
X1044382Y1240221D01*
X1043370Y1242663D01*
X1041761Y1244761D01*
X1039663Y1246370D01*
X1037221Y1247382D01*
X1035870Y1247559D01*
D02*
G37*
G36*
X1058730Y1247559D02*
X1057379Y1247382D01*
X1054937Y1246370D01*
X1052839Y1244761D01*
X1051230Y1242663D01*
X1050218Y1240221D01*
X1050041Y1238870D01*
X1058730D01*
Y1247559D01*
D02*
G37*
G36*
X1033330D02*
X1031979Y1247382D01*
X1029537Y1246370D01*
X1027439Y1244761D01*
X1025830Y1242663D01*
X1024818Y1240221D01*
X1024641Y1238870D01*
X1033330D01*
Y1247559D01*
D02*
G37*
G36*
X1069959Y1236330D02*
X1061270D01*
Y1227641D01*
X1062621Y1227818D01*
X1065063Y1228830D01*
X1067161Y1230439D01*
X1068770Y1232537D01*
X1069782Y1234979D01*
X1069959Y1236330D01*
D02*
G37*
G36*
X1044559D02*
X1035870D01*
Y1227641D01*
X1037221Y1227818D01*
X1039663Y1228830D01*
X1041761Y1230439D01*
X1043370Y1232537D01*
X1044382Y1234979D01*
X1044559Y1236330D01*
D02*
G37*
G36*
X1058730D02*
X1050041D01*
X1050218Y1234979D01*
X1051230Y1232537D01*
X1052839Y1230439D01*
X1054937Y1228830D01*
X1057379Y1227818D01*
X1058730Y1227641D01*
Y1236330D01*
D02*
G37*
G36*
X1033330D02*
X1024641D01*
X1024818Y1234979D01*
X1025830Y1232537D01*
X1027439Y1230439D01*
X1029537Y1228830D01*
X1031979Y1227818D01*
X1033330Y1227641D01*
Y1236330D01*
D02*
G37*
G36*
X1335000Y1229831D02*
X1325000D01*
X1322249Y1229469D01*
X1319684Y1228407D01*
X1317483Y1226717D01*
X1315793Y1224516D01*
X1314731Y1221952D01*
X1314369Y1219200D01*
X1314731Y1216449D01*
X1315793Y1213885D01*
X1317483Y1211683D01*
X1319684Y1209993D01*
X1322249Y1208931D01*
X1325000Y1208569D01*
X1335000D01*
X1337751Y1208931D01*
X1340316Y1209993D01*
X1342517Y1211683D01*
X1344207Y1213885D01*
X1345269Y1216449D01*
X1345631Y1219200D01*
X1345269Y1221952D01*
X1344207Y1224516D01*
X1342517Y1226717D01*
X1340316Y1228407D01*
X1337751Y1229469D01*
X1335000Y1229831D01*
D02*
G37*
G36*
X765000D02*
X755000D01*
X752249Y1229469D01*
X749685Y1228407D01*
X747483Y1226717D01*
X745793Y1224516D01*
X744731Y1221952D01*
X744369Y1219200D01*
X744731Y1216449D01*
X745793Y1213885D01*
X747483Y1211683D01*
X749685Y1209993D01*
X752249Y1208931D01*
X755000Y1208569D01*
X765000D01*
X767751Y1208931D01*
X770315Y1209993D01*
X772517Y1211683D01*
X774207Y1213885D01*
X775269Y1216449D01*
X775631Y1219200D01*
X775269Y1221952D01*
X774207Y1224516D01*
X772517Y1226717D01*
X770315Y1228407D01*
X767751Y1229469D01*
X765000Y1229831D01*
D02*
G37*
G36*
X1060000Y1222327D02*
X1057379Y1221982D01*
X1054937Y1220970D01*
X1052839Y1219361D01*
X1051230Y1217263D01*
X1050218Y1214821D01*
X1049873Y1212200D01*
X1050218Y1209579D01*
X1051230Y1207137D01*
X1052839Y1205039D01*
X1054937Y1203430D01*
X1057379Y1202418D01*
X1060000Y1202073D01*
X1062621Y1202418D01*
X1065063Y1203430D01*
X1067161Y1205039D01*
X1068770Y1207137D01*
X1069782Y1209579D01*
X1070127Y1212200D01*
X1069782Y1214821D01*
X1068770Y1217263D01*
X1067161Y1219361D01*
X1065063Y1220970D01*
X1062621Y1221982D01*
X1060000Y1222327D01*
D02*
G37*
G36*
X1034600D02*
X1031979Y1221982D01*
X1029537Y1220970D01*
X1027439Y1219361D01*
X1025830Y1217263D01*
X1024818Y1214821D01*
X1024473Y1212200D01*
X1024818Y1209579D01*
X1025830Y1207137D01*
X1027439Y1205039D01*
X1029537Y1203430D01*
X1031979Y1202418D01*
X1034600Y1202073D01*
X1037221Y1202418D01*
X1039663Y1203430D01*
X1041761Y1205039D01*
X1043370Y1207137D01*
X1044382Y1209579D01*
X1044727Y1212200D01*
X1044382Y1214821D01*
X1043370Y1217263D01*
X1041761Y1219361D01*
X1039663Y1220970D01*
X1037221Y1221982D01*
X1034600Y1222327D01*
D02*
G37*
G36*
X1209000Y1193639D02*
X1205987Y1193242D01*
X1203180Y1192080D01*
X1200770Y1190230D01*
X1198920Y1187819D01*
X1197757Y1185012D01*
X1197360Y1181999D01*
Y1168000D01*
X1197757Y1164988D01*
X1198920Y1162181D01*
X1200770Y1159770D01*
X1203180Y1157920D01*
X1205987Y1156758D01*
X1209000Y1156361D01*
X1212012Y1156758D01*
X1214820Y1157920D01*
X1217230Y1159770D01*
X1219080Y1162181D01*
X1220243Y1164988D01*
X1220639Y1168000D01*
Y1181999D01*
X1220243Y1185012D01*
X1219080Y1187819D01*
X1217230Y1190230D01*
X1214820Y1192080D01*
X1212012Y1193242D01*
X1209000Y1193639D01*
D02*
G37*
G36*
X979000D02*
X975987Y1193242D01*
X973180Y1192080D01*
X970770Y1190230D01*
X968920Y1187819D01*
X967757Y1185012D01*
X967360Y1181999D01*
Y1168000D01*
X967757Y1164988D01*
X968920Y1162181D01*
X970770Y1159770D01*
X973180Y1157920D01*
X975987Y1156758D01*
X979000Y1156361D01*
X982012Y1156758D01*
X984820Y1157920D01*
X987230Y1159770D01*
X989080Y1162181D01*
X990243Y1164988D01*
X990639Y1168000D01*
Y1181999D01*
X990243Y1185012D01*
X989080Y1187819D01*
X987230Y1190230D01*
X984820Y1192080D01*
X982012Y1193242D01*
X979000Y1193639D01*
D02*
G37*
G36*
X1111000Y1193640D02*
X1107987Y1193243D01*
X1105180Y1192080D01*
X1102770Y1190230D01*
X1100920Y1187820D01*
X1099757Y1185013D01*
X1099360Y1182000D01*
Y1168000D01*
X1099757Y1164987D01*
X1100920Y1162180D01*
X1102770Y1159770D01*
X1105180Y1157920D01*
X1107987Y1156757D01*
X1111000Y1156360D01*
X1114013Y1156757D01*
X1116820Y1157920D01*
X1119230Y1159770D01*
X1121080Y1162180D01*
X1122243Y1164987D01*
X1122639Y1168000D01*
Y1182000D01*
X1122243Y1185013D01*
X1121080Y1187820D01*
X1119230Y1190230D01*
X1116820Y1192080D01*
X1114013Y1193243D01*
X1111000Y1193640D01*
D02*
G37*
G36*
X881000D02*
X877987Y1193243D01*
X875180Y1192080D01*
X872770Y1190230D01*
X870920Y1187820D01*
X869757Y1185013D01*
X869360Y1182000D01*
Y1168000D01*
X869757Y1164987D01*
X870920Y1162180D01*
X872770Y1159770D01*
X875180Y1157920D01*
X877987Y1156757D01*
X881000Y1156360D01*
X884013Y1156757D01*
X886820Y1157920D01*
X889230Y1159770D01*
X891080Y1162180D01*
X892243Y1164987D01*
X892639Y1168000D01*
Y1182000D01*
X892243Y1185013D01*
X891080Y1187820D01*
X889230Y1190230D01*
X886820Y1192080D01*
X884013Y1193243D01*
X881000Y1193640D01*
D02*
G37*
G36*
X1330000Y1187625D02*
X1326562Y1187286D01*
X1323255Y1186283D01*
X1320208Y1184654D01*
X1317537Y1182463D01*
X1315345Y1179792D01*
X1313717Y1176745D01*
X1312714Y1173438D01*
X1312375Y1170000D01*
X1312714Y1166562D01*
X1313717Y1163255D01*
X1315345Y1160208D01*
X1317537Y1157537D01*
X1320208Y1155346D01*
X1323255Y1153717D01*
X1326562Y1152714D01*
X1330000Y1152375D01*
X1333439Y1152714D01*
X1336745Y1153717D01*
X1339792Y1155346D01*
X1342463Y1157537D01*
X1344655Y1160208D01*
X1346283Y1163255D01*
X1347286Y1166562D01*
X1347625Y1170000D01*
X1347286Y1173438D01*
X1346283Y1176745D01*
X1344655Y1179792D01*
X1342463Y1182463D01*
X1339792Y1184654D01*
X1336745Y1186283D01*
X1333439Y1187286D01*
X1330000Y1187625D01*
D02*
G37*
G36*
X760000D02*
X756562Y1187286D01*
X753255Y1186283D01*
X750208Y1184654D01*
X747537Y1182463D01*
X745346Y1179792D01*
X743717Y1176745D01*
X742714Y1173438D01*
X742375Y1170000D01*
X742714Y1166562D01*
X743717Y1163255D01*
X745346Y1160208D01*
X747537Y1157537D01*
X750208Y1155346D01*
X753255Y1153717D01*
X756562Y1152714D01*
X760000Y1152375D01*
X763438Y1152714D01*
X766745Y1153717D01*
X769792Y1155346D01*
X772463Y1157537D01*
X774654Y1160208D01*
X776283Y1163255D01*
X777286Y1166562D01*
X777625Y1170000D01*
X777286Y1173438D01*
X776283Y1176745D01*
X774654Y1179792D01*
X772463Y1182463D01*
X769792Y1184654D01*
X766745Y1186283D01*
X763438Y1187286D01*
X760000Y1187625D01*
D02*
G37*
G36*
X1335000Y1147335D02*
X1325000D01*
X1322118Y1146956D01*
X1319432Y1145843D01*
X1317126Y1144074D01*
X1315357Y1141768D01*
X1314244Y1139082D01*
X1313865Y1136200D01*
X1314244Y1133318D01*
X1315357Y1130632D01*
X1317126Y1128326D01*
X1319432Y1126557D01*
X1322118Y1125444D01*
X1325000Y1125065D01*
X1335000D01*
X1337882Y1125444D01*
X1340568Y1126557D01*
X1342874Y1128326D01*
X1344643Y1130632D01*
X1345756Y1133318D01*
X1346135Y1136200D01*
X1345756Y1139082D01*
X1344643Y1141768D01*
X1342874Y1144074D01*
X1340568Y1145843D01*
X1337882Y1146956D01*
X1335000Y1147335D01*
D02*
G37*
G36*
X765000D02*
X755000D01*
X752118Y1146956D01*
X749432Y1145843D01*
X747126Y1144074D01*
X745357Y1141768D01*
X744244Y1139082D01*
X743865Y1136200D01*
X744244Y1133318D01*
X745357Y1130632D01*
X747126Y1128326D01*
X749432Y1126557D01*
X752118Y1125444D01*
X755000Y1125065D01*
X765000D01*
X767882Y1125444D01*
X770568Y1126557D01*
X772874Y1128326D01*
X774643Y1130632D01*
X775756Y1133318D01*
X776135Y1136200D01*
X775756Y1139082D01*
X774643Y1141768D01*
X772874Y1144074D01*
X770568Y1145843D01*
X767882Y1146956D01*
X765000Y1147335D01*
D02*
G37*
G36*
X1333500Y1116335D02*
X1331270D01*
Y1106470D01*
X1344468D01*
X1344256Y1108082D01*
X1343143Y1110768D01*
X1341374Y1113074D01*
X1339068Y1114843D01*
X1336382Y1115956D01*
X1333500Y1116335D01*
D02*
G37*
G36*
X1328730D02*
X1326500D01*
X1323618Y1115956D01*
X1320932Y1114843D01*
X1318626Y1113074D01*
X1316857Y1110768D01*
X1315744Y1108082D01*
X1315532Y1106470D01*
X1328730D01*
Y1116335D01*
D02*
G37*
G36*
X763500D02*
X761270D01*
Y1106470D01*
X774468D01*
X774256Y1108082D01*
X773143Y1110768D01*
X771374Y1113074D01*
X769068Y1114843D01*
X766382Y1115956D01*
X763500Y1116335D01*
D02*
G37*
G36*
X758730D02*
X756500D01*
X753618Y1115956D01*
X750932Y1114843D01*
X748626Y1113074D01*
X746857Y1110768D01*
X745744Y1108082D01*
X745532Y1106470D01*
X758730D01*
Y1116335D01*
D02*
G37*
G36*
X1185001Y1114735D02*
X1182482Y1114404D01*
X1180134Y1113431D01*
X1178117Y1111884D01*
X1176570Y1109868D01*
X1175598Y1107520D01*
X1175266Y1105000D01*
X1175598Y1102480D01*
X1176570Y1100132D01*
X1178117Y1098116D01*
X1180134Y1096569D01*
X1182482Y1095596D01*
X1185001Y1095265D01*
X1187521Y1095596D01*
X1189869Y1096569D01*
X1191885Y1098116D01*
X1193432Y1100132D01*
X1194405Y1102480D01*
X1194736Y1105000D01*
X1194405Y1107520D01*
X1193432Y1109868D01*
X1191885Y1111884D01*
X1189869Y1113431D01*
X1187521Y1114404D01*
X1185001Y1114735D01*
D02*
G37*
G36*
X1160000D02*
X1157480Y1114404D01*
X1155132Y1113431D01*
X1153116Y1111884D01*
X1151569Y1109868D01*
X1150596Y1107520D01*
X1150265Y1105000D01*
X1150596Y1102480D01*
X1151569Y1100132D01*
X1153116Y1098116D01*
X1155132Y1096569D01*
X1157480Y1095596D01*
X1160000Y1095265D01*
X1162520Y1095596D01*
X1164868Y1096569D01*
X1166884Y1098116D01*
X1168431Y1100132D01*
X1169404Y1102480D01*
X1169735Y1105000D01*
X1169404Y1107520D01*
X1168431Y1109868D01*
X1166884Y1111884D01*
X1164868Y1113431D01*
X1162520Y1114404D01*
X1160000Y1114735D01*
D02*
G37*
G36*
X1134999D02*
X1132479Y1114404D01*
X1130131Y1113431D01*
X1128115Y1111884D01*
X1126568Y1109868D01*
X1125595Y1107520D01*
X1125264Y1105000D01*
X1125595Y1102480D01*
X1126568Y1100132D01*
X1128115Y1098116D01*
X1130131Y1096569D01*
X1132479Y1095596D01*
X1134999Y1095265D01*
X1137518Y1095596D01*
X1139866Y1096569D01*
X1141883Y1098116D01*
X1143430Y1100132D01*
X1144402Y1102480D01*
X1144734Y1105000D01*
X1144402Y1107520D01*
X1143430Y1109868D01*
X1141883Y1111884D01*
X1139866Y1113431D01*
X1137518Y1114404D01*
X1134999Y1114735D01*
D02*
G37*
G36*
X955001D02*
X952482Y1114404D01*
X950134Y1113431D01*
X948117Y1111884D01*
X946570Y1109868D01*
X945598Y1107520D01*
X945266Y1105000D01*
X945598Y1102480D01*
X946570Y1100132D01*
X948117Y1098116D01*
X950134Y1096569D01*
X952482Y1095596D01*
X955001Y1095265D01*
X957521Y1095596D01*
X959869Y1096569D01*
X961885Y1098116D01*
X963432Y1100132D01*
X964405Y1102480D01*
X964736Y1105000D01*
X964405Y1107520D01*
X963432Y1109868D01*
X961885Y1111884D01*
X959869Y1113431D01*
X957521Y1114404D01*
X955001Y1114735D01*
D02*
G37*
G36*
X930000D02*
X927480Y1114404D01*
X925132Y1113431D01*
X923116Y1111884D01*
X921569Y1109868D01*
X920596Y1107520D01*
X920265Y1105000D01*
X920596Y1102480D01*
X921569Y1100132D01*
X923116Y1098116D01*
X925132Y1096569D01*
X927480Y1095596D01*
X930000Y1095265D01*
X932520Y1095596D01*
X934868Y1096569D01*
X936884Y1098116D01*
X938431Y1100132D01*
X939404Y1102480D01*
X939735Y1105000D01*
X939404Y1107520D01*
X938431Y1109868D01*
X936884Y1111884D01*
X934868Y1113431D01*
X932520Y1114404D01*
X930000Y1114735D01*
D02*
G37*
G36*
X904999D02*
X902479Y1114404D01*
X900131Y1113431D01*
X898115Y1111884D01*
X896568Y1109868D01*
X895595Y1107520D01*
X895264Y1105000D01*
X895595Y1102480D01*
X896568Y1100132D01*
X898115Y1098116D01*
X900131Y1096569D01*
X902479Y1095596D01*
X904999Y1095265D01*
X907518Y1095596D01*
X909866Y1096569D01*
X911883Y1098116D01*
X913430Y1100132D01*
X914402Y1102480D01*
X914734Y1105000D01*
X914402Y1107520D01*
X913430Y1109868D01*
X911883Y1111884D01*
X909866Y1113431D01*
X907518Y1114404D01*
X904999Y1114735D01*
D02*
G37*
G36*
X1344468Y1103930D02*
X1331270D01*
Y1094065D01*
X1333500D01*
X1336382Y1094444D01*
X1339068Y1095557D01*
X1341374Y1097326D01*
X1343143Y1099632D01*
X1344256Y1102318D01*
X1344468Y1103930D01*
D02*
G37*
G36*
X1328730D02*
X1315532D01*
X1315744Y1102318D01*
X1316857Y1099632D01*
X1318626Y1097326D01*
X1320932Y1095557D01*
X1323618Y1094444D01*
X1326500Y1094065D01*
X1328730D01*
Y1103930D01*
D02*
G37*
G36*
X774468D02*
X761270D01*
Y1094065D01*
X763500D01*
X766382Y1094444D01*
X769068Y1095557D01*
X771374Y1097326D01*
X773143Y1099632D01*
X774256Y1102318D01*
X774468Y1103930D01*
D02*
G37*
G36*
X758730D02*
X745532D01*
X745744Y1102318D01*
X746857Y1099632D01*
X748626Y1097326D01*
X750932Y1095557D01*
X753618Y1094444D01*
X756500Y1094065D01*
X758730D01*
Y1103930D01*
D02*
G37*
G36*
X1046270Y1085396D02*
Y1081270D01*
X1050396D01*
X1050219Y1082162D01*
X1048994Y1083994D01*
X1047162Y1085219D01*
X1046270Y1085396D01*
D02*
G37*
G36*
X1043730D02*
X1042838Y1085219D01*
X1041006Y1083994D01*
X1039781Y1082162D01*
X1039604Y1081270D01*
X1043730D01*
Y1085396D01*
D02*
G37*
G36*
X1050396Y1078730D02*
X1046270D01*
Y1074604D01*
X1047162Y1074781D01*
X1048994Y1076006D01*
X1050219Y1077838D01*
X1050396Y1078730D01*
D02*
G37*
G36*
X1043730D02*
X1039604D01*
X1039781Y1077838D01*
X1041006Y1076006D01*
X1042838Y1074781D01*
X1043730Y1074604D01*
Y1078730D01*
D02*
G37*
%LPD*%
D10*
X1084000Y1190000D02*
X1126000Y1232000D01*
X1250000D01*
X1279000Y1261000D01*
Y1273000D01*
Y1513000D01*
X1290000Y1524000D01*
Y1763000D01*
Y2034000D01*
X1279000Y2045000D01*
X1265000D01*
X1075000Y1907000D02*
X1082000Y1900000D01*
Y1636000D01*
X1067000Y1651000D01*
X1045000D01*
X1032000Y1586000D02*
X1105000Y1513000D01*
X1088000D02*
X1205000D01*
X1255000Y1463000D01*
X1279000Y1513000D02*
X1266000Y1526000D01*
X1150000Y1532000D02*
X1145000D01*
X1082000Y1595000D01*
Y1636000D01*
X1032000Y1586000D02*
Y1735000D01*
X1044000Y1747000D01*
X1075000Y1907000D02*
X1058000D01*
X1271000Y1781000D02*
X1272000D01*
X1290000Y1763000D01*
X1088000Y1513000D02*
X1074000Y1499000D01*
X1049000D01*
X844000Y1573000D02*
Y1823000D01*
Y2088000D01*
X838000Y2094000D01*
X828000D01*
X844000Y1573000D02*
Y1390000D01*
X996000Y1211000D02*
X1017000Y1190000D01*
X1084000D01*
D11*
X1265000Y1271000D02*
Y1352000D01*
X1210000Y1407000D01*
X1094000D01*
X999000Y1502000D01*
Y1516000D01*
Y1482000D02*
Y1451000D01*
X1008000Y1442000D01*
Y1306000D01*
X844000Y1573000D02*
X833000Y1584000D01*
X824000D01*
X1010000Y1632000D02*
X1014000Y1628000D01*
X1010000Y1632000D02*
Y1910000D01*
X1022000Y1922000D01*
X1067475Y2080000D02*
X1064976Y2082499D01*
X1067475Y2084998D01*
X1074973D01*
Y2087498D02*
Y2080000D01*
X1067475D01*
X1079971D02*
X1087468D01*
X1089968Y2082499D01*
Y2084998D01*
Y2087498D01*
X1087468Y2089997D01*
X1079971D01*
Y2094995D02*
Y2080000D01*
X1074973Y2087498D02*
X1072473Y2089997D01*
X1067475D01*
X1097465D02*
X1104963D01*
X1097465D02*
X1094966Y2087498D01*
X1097465Y2084998D01*
X1102464D01*
X1104963Y2082499D01*
X1102464Y2080000D01*
X1094966D01*
X1049981Y2094995D02*
Y2080000D01*
X1059977D01*
X1029987D02*
X1019990D01*
X1029987Y2089997D01*
X1019990D01*
X1014992Y2094995D02*
Y2080000D01*
Y2087498D02*
Y2094995D01*
X1004995D02*
Y2080000D01*
Y2087498D01*
X1014992D01*
X999997D02*
X994998D01*
X999997D02*
Y2082499D01*
X997498Y2080000D01*
X992499D01*
X990000Y2082499D01*
Y2092496D01*
X992499Y2094995D01*
X997498D01*
X999997Y2092496D01*
X834000Y1833000D02*
X844000Y1823000D01*
X834000Y1833000D02*
X825000D01*
X1297000Y1296000D02*
X1305000D01*
X1297000D02*
X1279000Y1278000D01*
Y1273000D01*
D12*
X777752Y1270616D02*
X792992D01*
X795278Y1271378D02*
X776990D01*
X776228Y1272140D02*
X797564D01*
X799088Y1272902D02*
X776228D01*
X777752Y1274426D02*
X802898D01*
X801374Y1273664D02*
X779276D01*
Y1269854D02*
X789182D01*
X785372Y1269092D02*
X783848D01*
X775466Y1275188D02*
X804422D01*
X805184Y1275950D02*
X773180D01*
X772418Y1276712D02*
X805946D01*
X806708Y1277474D02*
X775466D01*
Y1278236D02*
X807470D01*
X773942Y1277474D02*
X771656D01*
Y1278236D02*
X773180D01*
X810518Y1282808D02*
X783848D01*
Y1283570D02*
X782324D01*
Y1284332D02*
X784610D01*
X785372D02*
X787658D01*
Y1283570D02*
X785372D01*
X788420D02*
X811280D01*
Y1284332D02*
X790706D01*
X791468Y1285094D02*
X812042D01*
X812804Y1285856D02*
X792230D01*
X792992Y1286618D02*
X812804D01*
Y1287380D02*
X792992D01*
X793754Y1288142D02*
X813566D01*
Y1288904D02*
X794516D01*
X795278Y1289666D02*
X813566D01*
X814328Y1290428D02*
X796040D01*
Y1291190D02*
X814328D01*
Y1291952D02*
X796802D01*
X797564Y1292714D02*
X814328D01*
Y1293476D02*
X797564D01*
X798326Y1294238D02*
X814328D01*
Y1295000D02*
X799088D01*
Y1295762D02*
X815090D01*
Y1296524D02*
X799850D01*
Y1297286D02*
X815090D01*
Y1298048D02*
X800612D01*
X801374Y1298810D02*
X815090D01*
Y1299572D02*
X801374D01*
X802136Y1300334D02*
X815090D01*
Y1301096D02*
X802136D01*
X802898Y1301858D02*
X814328D01*
Y1302620D02*
X802898D01*
Y1303382D02*
X814328D01*
Y1304144D02*
X802898D01*
Y1304906D02*
X814328D01*
Y1305668D02*
X802898D01*
Y1306430D02*
X814328D01*
X813566Y1307192D02*
X802898D01*
Y1307954D02*
X813566D01*
X812804Y1308716D02*
X802898D01*
Y1309478D02*
X812042D01*
X812804Y1310240D02*
X802898D01*
Y1311002D02*
X810518D01*
X811280D02*
X812804D01*
X810518Y1311764D02*
X802898D01*
Y1312526D02*
X807470D01*
X808232D02*
X809756D01*
X808232Y1313288D02*
X797564D01*
X796040Y1314050D02*
X808232D01*
X807470Y1314812D02*
X784610D01*
Y1317860D02*
X802898D01*
X803660Y1317098D02*
X780800D01*
X780038Y1316336D02*
X805184D01*
X806708Y1315574D02*
X780038D01*
X776990D02*
X773180D01*
X772418Y1314050D02*
X770894D01*
Y1314812D02*
X776990D01*
X783086Y1311002D02*
X785372D01*
X786896D02*
X788420D01*
Y1311764D02*
X786896D01*
Y1310240D02*
X789182D01*
Y1309478D02*
X786896D01*
Y1308716D02*
X789182D01*
Y1307954D02*
X786896D01*
Y1307192D02*
X789182D01*
Y1306430D02*
X783086D01*
Y1305668D02*
X789182D01*
X788420Y1304906D02*
X783086D01*
Y1303382D02*
X788420D01*
Y1302620D02*
X783086D01*
Y1301858D02*
X785372D01*
X786134D02*
X787658D01*
X785372Y1301096D02*
X783848D01*
Y1304144D02*
X788420D01*
X786134Y1307192D02*
X783086D01*
X783848Y1307954D02*
X786134D01*
Y1308716D02*
X783848D01*
Y1309478D02*
X786134D01*
Y1310240D02*
X783848D01*
X769370D02*
X766322D01*
Y1311002D02*
X769370D01*
X768608Y1311764D02*
X767084D01*
X765560Y1312526D02*
X761750D01*
X760226Y1311764D02*
X764036D01*
X763274Y1313288D02*
X766322D01*
X765560Y1309478D02*
X768608D01*
X769370Y1308716D02*
X765560D01*
Y1307954D02*
X770132D01*
Y1307192D02*
X765560D01*
Y1306430D02*
X770132D01*
X770894Y1305668D02*
X765560D01*
Y1304906D02*
X770894D01*
Y1304144D02*
X765560D01*
Y1303382D02*
X770894D01*
X771656Y1302620D02*
X765560D01*
Y1301858D02*
X773942D01*
Y1301096D02*
X765560D01*
Y1300334D02*
X773942D01*
X771656Y1299572D02*
X765560D01*
Y1298810D02*
X771656D01*
Y1298048D02*
X765560D01*
Y1297286D02*
X772418D01*
X773180Y1296524D02*
X764798D01*
Y1295762D02*
X773942D01*
Y1295000D02*
X764798D01*
Y1294238D02*
X773942D01*
X773180Y1293476D02*
X764036D01*
Y1292714D02*
X772418D01*
X771656Y1291952D02*
X764036D01*
Y1291190D02*
X770894D01*
Y1290428D02*
X764036D01*
Y1289666D02*
X770894D01*
Y1288904D02*
X764036D01*
Y1288142D02*
X770894D01*
X770132Y1287380D02*
X755654D01*
X754892Y1288142D02*
X762512D01*
X760988Y1288904D02*
X753368D01*
Y1289666D02*
X760988D01*
X760226Y1290428D02*
X753368D01*
X752606Y1291190D02*
X759464D01*
Y1291952D02*
X751844D01*
Y1292714D02*
X757940D01*
Y1293476D02*
X751844D01*
X751082Y1294238D02*
X757178D01*
X756416Y1295000D02*
X751082D01*
Y1295762D02*
X756416D01*
Y1296524D02*
X751082D01*
Y1297286D02*
X756416D01*
X755654Y1298048D02*
X751082D01*
Y1298810D02*
X755654D01*
Y1299572D02*
X752606D01*
X753368Y1300334D02*
X755654D01*
Y1301096D02*
X753368D01*
Y1301858D02*
X755654D01*
X756416Y1302620D02*
X753368D01*
Y1303382D02*
X756416D01*
Y1304144D02*
X754130D01*
Y1304906D02*
X757178D01*
X757940Y1305668D02*
X754892D01*
Y1306430D02*
X757940D01*
X758702Y1307192D02*
X755654D01*
X756416Y1307954D02*
X759464D01*
X760226Y1308716D02*
X757178D01*
X757940Y1309478D02*
X760988D01*
X761750Y1310240D02*
X758702D01*
X759464Y1311002D02*
X762512D01*
X759464Y1312526D02*
X745748D01*
X748034Y1313288D02*
X759464D01*
X757940Y1314050D02*
X750320D01*
Y1311764D02*
X742700D01*
X741938Y1311002D02*
X748796D01*
X747272Y1310240D02*
X741176D01*
Y1309478D02*
X746510D01*
X745748Y1308716D02*
X732794D01*
Y1307954D02*
X744986D01*
X744224Y1307192D02*
X741176D01*
X739652D02*
X732794D01*
X732032Y1306430D02*
X738128D01*
X737366Y1305668D02*
X731270D01*
X729746Y1304906D02*
X737366D01*
Y1304144D02*
X728222D01*
Y1303382D02*
X736604D01*
X735842Y1302620D02*
X728222D01*
X727460Y1301858D02*
X728984D01*
X730508D02*
X735080D01*
Y1301096D02*
X730508D01*
X728222D02*
X727460D01*
Y1300334D02*
X734318D01*
X733556Y1299572D02*
X727460D01*
Y1298810D02*
X733556D01*
X734318Y1298048D02*
X727460D01*
Y1297286D02*
X735842D01*
Y1296524D02*
X727460D01*
Y1295762D02*
X728222D01*
X727460Y1295000D02*
X735842D01*
Y1294238D02*
X727460D01*
Y1293476D02*
X735842D01*
X736604Y1292714D02*
X727460D01*
Y1291952D02*
X736604D01*
X738128D02*
X743462D01*
X744224Y1291190D02*
X738890D01*
Y1290428D02*
X744224D01*
X744986Y1289666D02*
X739652D01*
X740414Y1288904D02*
X746510D01*
X748034Y1288142D02*
X740414D01*
X741176Y1287380D02*
X750320D01*
Y1282808D02*
X748034D01*
X746510Y1283570D02*
X751082D01*
X749558Y1282046D02*
X733556D01*
X732794D02*
X729746D01*
Y1281284D02*
X749558D01*
X748796Y1280522D02*
X730508D01*
Y1279760D02*
X748796D01*
Y1278998D02*
X745748D01*
X744986D02*
X738128D01*
X737366D02*
X730508D01*
X729746Y1282808D02*
X732032D01*
X732794D02*
X744986D01*
X745748Y1283570D02*
X742700D01*
X741938D02*
X732794D01*
X731270D02*
X728984D01*
Y1284332D02*
X742700D01*
X743462D02*
X754892D01*
X756416Y1285094D02*
X744224D01*
X743462D02*
X728984D01*
X728222Y1285856D02*
X739652D01*
X740414D02*
X757178D01*
X757940D02*
X768608D01*
Y1286618D02*
X742700D01*
X739652D02*
X728222D01*
Y1287380D02*
X729746D01*
X730508D02*
X738128D01*
Y1288142D02*
X729746D01*
Y1288904D02*
X738128D01*
Y1289666D02*
X729746D01*
X728984Y1290428D02*
X732032D01*
X732794D02*
X738128D01*
X737366Y1291190D02*
X728222D01*
X729746Y1295762D02*
X735842D01*
X738128Y1294238D02*
X739652D01*
X740414Y1295000D02*
X743462D01*
X744986D02*
X746510D01*
Y1295762D02*
X744224D01*
Y1296524D02*
X746510D01*
Y1297286D02*
X744986D01*
X742700Y1296524D02*
X738890D01*
Y1297286D02*
X741938D01*
X741176Y1298048D02*
X738890D01*
Y1298810D02*
X741176D01*
X740414Y1299572D02*
X738890D01*
Y1300334D02*
X740414D01*
Y1301096D02*
X738890D01*
Y1301858D02*
X741176D01*
X741938Y1302620D02*
X738890D01*
Y1303382D02*
X741938D01*
Y1304144D02*
X740414D01*
Y1309478D02*
X732794D01*
Y1310240D02*
X739652D01*
Y1311002D02*
X732794D01*
Y1311764D02*
X738890D01*
X737366Y1312526D02*
X732794D01*
Y1313288D02*
X736604D01*
X735842Y1314050D02*
X732794D01*
Y1314812D02*
X735842D01*
X735080Y1315574D02*
X732032D01*
Y1316336D02*
X735080D01*
Y1317098D02*
X732032D01*
Y1317860D02*
X735080D01*
X737366D02*
X744986D01*
X745748D02*
X747272D01*
Y1318622D02*
X744986D01*
Y1319384D02*
X748034D01*
X748796D02*
X751844D01*
Y1320146D02*
X748796D01*
Y1320908D02*
X751844D01*
X752606Y1318622D02*
X748796D01*
Y1317860D02*
X752606D01*
Y1317098D02*
X750320D01*
X748034Y1320146D02*
X739652D01*
Y1320908D02*
X744986D01*
X745748D02*
X748034D01*
X744224Y1317098D02*
X740414D01*
X739652D02*
X737366D01*
Y1318622D02*
X741176D01*
X741938Y1319384D02*
X738128D01*
X735842Y1320146D02*
X733556D01*
X732794Y1320908D02*
X735842D01*
X731270Y1317860D02*
X730508D01*
Y1317098D02*
X731270D01*
Y1316336D02*
X730508D01*
Y1315574D02*
X729746D01*
Y1314812D02*
X730508D01*
X728984Y1311002D02*
X732032D01*
Y1310240D02*
X728222D01*
Y1309478D02*
X729746D01*
X739652Y1295762D02*
X742700D01*
X741938Y1294238D02*
X744224D01*
X741938Y1292714D02*
X738128D01*
Y1293476D02*
X741176D01*
X762512D02*
X763274D01*
X764036Y1294238D02*
X761750D01*
Y1295000D02*
X764036D01*
Y1295762D02*
X761750D01*
X760988Y1296524D02*
X764036D01*
Y1297286D02*
X760988D01*
Y1298048D02*
X764036D01*
Y1298810D02*
X760988D01*
X761750Y1299572D02*
X764036D01*
Y1300334D02*
X761750D01*
X762512Y1301096D02*
X764036D01*
X764798Y1283570D02*
X760988D01*
X761750Y1282808D02*
X769370D01*
X767846Y1283570D02*
X765560D01*
X764798Y1281284D02*
X773942D01*
Y1278998D02*
X771656D01*
X770894Y1279760D02*
X808232D01*
Y1278998D02*
X775466D01*
X776990Y1280522D02*
X767846D01*
Y1284332D02*
X760226D01*
X758702Y1285094D02*
X767846D01*
X771656Y1282046D02*
X763274D01*
X748034Y1278236D02*
X745748D01*
X744986D02*
X743462D01*
X742700D02*
X738890D01*
Y1277474D02*
X737366D01*
Y1276712D02*
X738890D01*
Y1275950D02*
X736604D01*
X735842D02*
X732032D01*
Y1276712D02*
X735842D01*
Y1277474D02*
X731270D01*
Y1278236D02*
X736604D01*
X737366D02*
X738128D01*
X739652Y1277474D02*
X741938D01*
X742700D02*
X744224D01*
X744986D02*
X748034D01*
X747272Y1276712D02*
X742700D01*
X741938D02*
X740414D01*
Y1275950D02*
X747272D01*
X746510Y1275188D02*
X740414D01*
X739652Y1274426D02*
X746510D01*
X745748Y1273664D02*
X738890D01*
Y1272902D02*
X745748D01*
X744986Y1272140D02*
X738890D01*
Y1270616D02*
X742700D01*
X743462D02*
X744986D01*
Y1271378D02*
X743462D01*
X742700D02*
X740414D01*
Y1268330D02*
X742700D01*
Y1267568D02*
X739652D01*
X738890Y1266806D02*
X742700D01*
Y1266044D02*
X738890D01*
Y1265282D02*
X741938D01*
Y1264520D02*
X739652D01*
X740414Y1263758D02*
X741176D01*
X739652Y1269092D02*
X742700D01*
Y1269854D02*
X738890D01*
X737366D02*
X735842D01*
X735080Y1270616D02*
X737366D01*
Y1271378D02*
X735080D01*
X734318Y1272140D02*
X737366D01*
Y1272902D02*
X733556D01*
Y1273664D02*
X737366D01*
X738128Y1274426D02*
X732794D01*
Y1275188D02*
X738128D01*
Y1267568D02*
X737366D01*
Y1268330D02*
X736604D01*
X778514Y1280522D02*
X808994D01*
X809756Y1281284D02*
X780038D01*
X781562Y1282046D02*
X809756D01*
X788420Y1285094D02*
X782324D01*
Y1285856D02*
X788420D01*
Y1286618D02*
X783086D01*
Y1287380D02*
X788420D01*
Y1288142D02*
X783086D01*
Y1288904D02*
X788420D01*
Y1289666D02*
X783086D01*
Y1290428D02*
X788420D01*
Y1291190D02*
X783086D01*
Y1291952D02*
X788420D01*
X787658Y1292714D02*
X783086D01*
Y1293476D02*
X787658D01*
Y1294238D02*
X783086D01*
X782324Y1295000D02*
X785372D01*
X786134D02*
X786896D01*
X785372Y1295762D02*
X778514D01*
Y1296524D02*
X781562D01*
Y1292714D02*
X782324D01*
Y1291952D02*
X780800D01*
Y1291190D02*
X782324D01*
Y1290428D02*
X780038D01*
Y1289666D02*
X782324D01*
Y1288904D02*
X780038D01*
Y1288142D02*
X782324D01*
Y1287380D02*
X780038D01*
X780800Y1286618D02*
X782324D01*
X781562Y1285856D02*
X780800D01*
X773180Y1302620D02*
X772418D01*
X790706Y1318622D02*
X802136D01*
Y1312526D02*
X800612D01*
X751082Y1321670D02*
X748796D01*
X748034D02*
X745748D01*
Y1322432D02*
X746510D01*
X748034D02*
X751082D01*
Y1323194D02*
X748034D01*
X747272D02*
X744986D01*
Y1321670D02*
X740414D01*
X737366D02*
X736604D01*
X735080D02*
X732794D01*
Y1322432D02*
X734318D01*
X735080D02*
X737366D01*
Y1323194D02*
X734318D01*
X733556Y1323956D02*
X736604D01*
Y1324718D02*
X750320D01*
Y1323956D02*
X742700D01*
X741176D02*
X738128D01*
X737366Y1325480D02*
X745748D01*
X746510D02*
X749558D01*
Y1326242D02*
X747272D01*
Y1327004D02*
X748796D01*
Y1327766D02*
X747272D01*
X746510Y1328528D02*
X748796D01*
Y1329290D02*
X744986D01*
Y1330052D02*
X748796D01*
X748034Y1330814D02*
X745748D01*
X744224Y1330052D02*
X741176D01*
Y1330814D02*
X743462D01*
X741938Y1331576D02*
X748034D01*
Y1332338D02*
X741938D01*
X741176D02*
X739652D01*
Y1331576D02*
X738890D01*
X738128Y1329290D02*
X741176D01*
X741938D02*
X744224D01*
X744986Y1328528D02*
X737366D01*
Y1327766D02*
X744986D01*
Y1327004D02*
X743462D01*
X744224Y1326242D02*
X745748D01*
X744224Y1333100D02*
X748034D01*
Y1333862D02*
X741176D01*
X740414Y1333100D02*
X743462D01*
Y1335386D02*
X746510D01*
X747272Y1334624D02*
X741938D01*
X744224Y1336148D02*
X745748D01*
X744986Y1336910D02*
X744224D01*
D13*
X1317300Y1270000D02*
D03*
X1342700D02*
D03*
Y1540000D02*
D03*
X1317300D02*
D03*
X1342700Y1800000D02*
D03*
X1317300D02*
D03*
X1342700Y2070000D02*
D03*
X1317300D02*
D03*
D14*
X760000Y1136200D02*
D03*
Y1406200D02*
D03*
Y1666200D02*
D03*
Y1936200D02*
D03*
X1330000Y1406200D02*
D03*
Y1136200D02*
D03*
Y1666200D02*
D03*
Y1936200D02*
D03*
D15*
X760000Y1219200D02*
D03*
Y1489200D02*
D03*
Y1749200D02*
D03*
Y2019200D02*
D03*
X1330000Y1489200D02*
D03*
Y1219200D02*
D03*
Y1749200D02*
D03*
Y2019200D02*
D03*
D16*
X760000Y1105200D02*
D03*
Y1375200D02*
D03*
Y1635200D02*
D03*
Y1905200D02*
D03*
X1330000Y1375200D02*
D03*
Y1635200D02*
D03*
Y1905200D02*
D03*
Y1105200D02*
D03*
D17*
X1060000Y1390000D02*
D03*
D18*
X1034600Y1212200D02*
D03*
X1060000D02*
D03*
Y1237600D02*
D03*
Y1263000D02*
D03*
X1034600D02*
D03*
Y1237600D02*
D03*
Y1288400D02*
D03*
Y1313800D02*
D03*
X1060000D02*
D03*
Y1288400D02*
D03*
Y1339200D02*
D03*
X1034600D02*
D03*
Y1364600D02*
D03*
Y1390000D02*
D03*
X1060000Y1364600D02*
D03*
D19*
X955001Y1105000D02*
D03*
X930000D02*
D03*
X904999D02*
D03*
X1134999D02*
D03*
X1160000D02*
D03*
X1185001D02*
D03*
Y1375000D02*
D03*
X1160000D02*
D03*
X1134999D02*
D03*
X955001D02*
D03*
X930000D02*
D03*
X904999D02*
D03*
X1160000Y1635000D02*
D03*
X1185001D02*
D03*
X1134999D02*
D03*
X955001D02*
D03*
X930000D02*
D03*
X904999D02*
D03*
X1160000Y1905000D02*
D03*
X1185001D02*
D03*
X1134999D02*
D03*
X955001D02*
D03*
X930000D02*
D03*
X904999D02*
D03*
D20*
X1111000Y1175000D02*
D03*
Y1445000D02*
D03*
X881000D02*
D03*
Y1175000D02*
D03*
X1111000Y1705000D02*
D03*
Y1975000D02*
D03*
X881000D02*
D03*
Y1705000D02*
D03*
D21*
X979000Y1175000D02*
D03*
X1209000D02*
D03*
Y1445000D02*
D03*
X979000D02*
D03*
X1209000Y1705000D02*
D03*
Y1975000D02*
D03*
X979000D02*
D03*
Y1705000D02*
D03*
D22*
X1045000Y1080000D02*
D03*
X1265000Y1271000D02*
D03*
X1305000Y1296000D02*
D03*
X1160000Y1290000D02*
D03*
X999000Y1482000D02*
D03*
X1025000Y1495000D02*
D03*
X1049000Y1499000D02*
D03*
X999000Y1516000D02*
D03*
X935000Y1570000D02*
D03*
X1014000Y1628000D02*
D03*
X1045000Y1651000D02*
D03*
X1100000Y1630000D02*
D03*
X1044000Y1747000D02*
D03*
X1025000Y1750000D02*
D03*
X955000Y1865000D02*
D03*
X940000Y1775000D02*
D03*
X1058000Y1907000D02*
D03*
X1022000Y1922000D02*
D03*
X1175000Y1775000D02*
D03*
X1271000Y1781000D02*
D03*
X1155000Y1865000D02*
D03*
X1265000Y2045000D02*
D03*
X1375000Y2110000D02*
D03*
X1140000D02*
D03*
X900000D02*
D03*
X828000Y2094000D02*
D03*
X720000Y2110000D02*
D03*
X825000Y1833000D02*
D03*
X824000Y1584000D02*
D03*
X885000Y1285000D02*
D03*
X1008000Y1306000D02*
D03*
X1266000Y1526000D02*
D03*
D23*
X996000Y1211000D02*
D03*
X844000Y1390000D02*
D03*
X1150000Y1532000D02*
D03*
X1255000Y1463000D02*
D03*
M02*
