G04 Layer_Color=255*
%FSLAX44Y44*%
%MOMM*%
G71*
G01*
G75*
%ADD13C,1.4000*%
%ADD14O,2.7000X1.7000*%
%ADD15O,2.6000X1.6000*%
%ADD16O,2.4000X1.7000*%
%ADD17R,1.5000X1.5000*%
%ADD18C,1.5000*%
%ADD19C,1.4224*%
%ADD20O,1.8000X3.2000*%
%ADD21O,1.8000X3.1999*%
%ADD24R,1.0000X1.4000*%
%ADD25R,1.4000X1.0000*%
%ADD26R,1.0500X1.4500*%
%ADD27R,1.4500X1.0500*%
%ADD28R,3.4000X2.8500*%
%ADD29R,1.1000X1.4500*%
%ADD30R,1.4500X1.1000*%
%ADD31R,1.1500X0.8000*%
%ADD32R,0.8000X1.1500*%
%ADD33O,0.6000X2.2000*%
D13*
X1317300Y1270000D02*
D03*
X1342700D02*
D03*
Y1540000D02*
D03*
X1317300D02*
D03*
X1342700Y1800000D02*
D03*
X1317300D02*
D03*
X1342700Y2070000D02*
D03*
X1317300D02*
D03*
D14*
X760000Y1136200D02*
D03*
Y1406200D02*
D03*
Y1666200D02*
D03*
Y1936200D02*
D03*
X1330000Y1406200D02*
D03*
Y1136200D02*
D03*
Y1666200D02*
D03*
Y1936200D02*
D03*
D15*
X760000Y1219200D02*
D03*
Y1489200D02*
D03*
Y1749200D02*
D03*
Y2019200D02*
D03*
X1330000Y1489200D02*
D03*
Y1219200D02*
D03*
Y1749200D02*
D03*
Y2019200D02*
D03*
D16*
X760000Y1105200D02*
D03*
Y1375200D02*
D03*
Y1635200D02*
D03*
Y1905200D02*
D03*
X1330000Y1375200D02*
D03*
Y1635200D02*
D03*
Y1905200D02*
D03*
Y1105200D02*
D03*
D17*
X1060000Y1390000D02*
D03*
D18*
X1034600Y1212200D02*
D03*
X1060000D02*
D03*
Y1237600D02*
D03*
Y1263000D02*
D03*
X1034600D02*
D03*
Y1237600D02*
D03*
Y1288400D02*
D03*
Y1313800D02*
D03*
X1060000D02*
D03*
Y1288400D02*
D03*
Y1339200D02*
D03*
X1034600D02*
D03*
Y1364600D02*
D03*
Y1390000D02*
D03*
X1060000Y1364600D02*
D03*
D19*
X955001Y1105000D02*
D03*
X930000D02*
D03*
X904999D02*
D03*
X1134999D02*
D03*
X1160000D02*
D03*
X1185001D02*
D03*
Y1375000D02*
D03*
X1160000D02*
D03*
X1134999D02*
D03*
X955001D02*
D03*
X930000D02*
D03*
X904999D02*
D03*
X1160000Y1635000D02*
D03*
X1185001D02*
D03*
X1134999D02*
D03*
X955001D02*
D03*
X930000D02*
D03*
X904999D02*
D03*
X1160000Y1905000D02*
D03*
X1185001D02*
D03*
X1134999D02*
D03*
X955001D02*
D03*
X930000D02*
D03*
X904999D02*
D03*
D20*
X1111000Y1175000D02*
D03*
Y1445000D02*
D03*
X881000D02*
D03*
Y1175000D02*
D03*
X1111000Y1705000D02*
D03*
Y1975000D02*
D03*
X881000D02*
D03*
Y1705000D02*
D03*
D21*
X979000Y1175000D02*
D03*
X1209000D02*
D03*
Y1445000D02*
D03*
X979000D02*
D03*
X1209000Y1705000D02*
D03*
Y1975000D02*
D03*
X979000D02*
D03*
Y1705000D02*
D03*
D24*
X820500Y1359000D02*
D03*
X801500D02*
D03*
X779500Y1530000D02*
D03*
X760500D02*
D03*
X779500Y1790000D02*
D03*
X760500D02*
D03*
X779500Y2060000D02*
D03*
X760500D02*
D03*
X1260500Y1750000D02*
D03*
X1279500D02*
D03*
X1323500Y1830000D02*
D03*
X1342500D02*
D03*
X1289500Y2020000D02*
D03*
X1270500D02*
D03*
X1325500Y2100000D02*
D03*
X1344500D02*
D03*
X1342500Y1570000D02*
D03*
X1323500D02*
D03*
X1279500Y1490000D02*
D03*
X1260500D02*
D03*
D25*
X760000Y1250500D02*
D03*
Y1269500D02*
D03*
X815000Y1470500D02*
D03*
Y1489500D02*
D03*
X820000Y1730500D02*
D03*
Y1749500D02*
D03*
Y2000500D02*
D03*
Y2019500D02*
D03*
X1230000Y1819500D02*
D03*
Y1800500D02*
D03*
Y1559500D02*
D03*
Y1540500D02*
D03*
X1350000Y1329500D02*
D03*
Y1310500D02*
D03*
X1290000Y1279500D02*
D03*
Y1260500D02*
D03*
Y1239500D02*
D03*
Y1220500D02*
D03*
X1220000Y2070500D02*
D03*
Y2089500D02*
D03*
D26*
X1140750Y1140000D02*
D03*
X1159250D02*
D03*
X1119250Y1250000D02*
D03*
Y1320000D02*
D03*
X1100750D02*
D03*
Y1250000D02*
D03*
X999250Y1340000D02*
D03*
X980750D02*
D03*
X1140750Y1480000D02*
D03*
X1159250D02*
D03*
X1059250Y1480000D02*
D03*
X1040750D02*
D03*
X1159250Y1740000D02*
D03*
X1140750D02*
D03*
X1059250Y1708000D02*
D03*
X1040750D02*
D03*
X1159250Y1950000D02*
D03*
X1140750D02*
D03*
X1059250Y1980000D02*
D03*
X1040750D02*
D03*
X760750Y1330000D02*
D03*
Y1300000D02*
D03*
X779250D02*
D03*
Y1330000D02*
D03*
D27*
X1030000Y1120750D02*
D03*
Y1139250D02*
D03*
X845000Y1530750D02*
D03*
X815000D02*
D03*
Y1549250D02*
D03*
X845000D02*
D03*
X850000Y1790750D02*
D03*
Y1809250D02*
D03*
X820000D02*
D03*
Y1790750D02*
D03*
Y2060750D02*
D03*
Y2079250D02*
D03*
X850000D02*
D03*
Y2060750D02*
D03*
D28*
X1230000Y1215750D02*
D03*
Y1264250D02*
D03*
Y1315750D02*
D03*
Y1364250D02*
D03*
X940000Y1334250D02*
D03*
Y1285750D02*
D03*
D29*
X1040500Y1450000D02*
D03*
X1059500D02*
D03*
X1040500Y1516000D02*
D03*
X1021500D02*
D03*
X1040500Y1629000D02*
D03*
X1059500D02*
D03*
Y1679000D02*
D03*
X1040500D02*
D03*
X1049500Y1771000D02*
D03*
X1030500D02*
D03*
X1069500Y1885000D02*
D03*
X1059500Y1950000D02*
D03*
X1040500D02*
D03*
X1050500Y1885000D02*
D03*
D30*
X1060000Y1120500D02*
D03*
Y1139500D02*
D03*
X1150000Y1230500D02*
D03*
X1180000D02*
D03*
Y1249500D02*
D03*
Y1320500D02*
D03*
Y1339500D02*
D03*
X1150000D02*
D03*
Y1320500D02*
D03*
Y1249500D02*
D03*
X900000Y1339500D02*
D03*
Y1320500D02*
D03*
X870000Y1339500D02*
D03*
Y1320500D02*
D03*
D31*
X1280000Y1540500D02*
D03*
Y1559500D02*
D03*
X1260000Y1550000D02*
D03*
X1280000Y1800500D02*
D03*
Y1819500D02*
D03*
X1260000Y1810000D02*
D03*
X1270000Y2070500D02*
D03*
X1250000Y2080000D02*
D03*
X1270000Y2089500D02*
D03*
D32*
X1310000Y1310000D02*
D03*
X1319500Y1330000D02*
D03*
X1300500D02*
D03*
D33*
X1078100Y1546000D02*
D03*
Y1594000D02*
D03*
X1065400D02*
D03*
X1052700D02*
D03*
X1040000D02*
D03*
X1027300D02*
D03*
Y1546000D02*
D03*
X1040000D02*
D03*
X1052700D02*
D03*
X1065400D02*
D03*
X1014600Y1594000D02*
D03*
X1001900D02*
D03*
Y1546000D02*
D03*
X1014600D02*
D03*
X1075400Y1806000D02*
D03*
X1088100D02*
D03*
Y1854000D02*
D03*
X1075400D02*
D03*
X1062700D02*
D03*
X1050000D02*
D03*
X1037300D02*
D03*
X1024600D02*
D03*
Y1806000D02*
D03*
X1037300D02*
D03*
X1050000D02*
D03*
X1062700D02*
D03*
X1011900Y1854000D02*
D03*
Y1806000D02*
D03*
M02*
