G04 Layer_Color=2752767*
%FSLAX44Y44*%
%MOMM*%
G71*
G01*
G75*
%ADD59C,0.0508*%
%ADD60C,0.0677*%
D59*
X1042968Y1080000D02*
X1045000Y1082032D01*
X1047032Y1080000D01*
X1045000Y1077968D01*
X1042968Y1080000D01*
X1133983Y1102968D02*
X1136015D01*
Y1103984D01*
X1137031D01*
Y1106016D01*
X1136015D01*
Y1107032D01*
X1133983D01*
Y1106016D01*
X1132967D01*
Y1103984D01*
X1133983D01*
Y1102968D01*
X1158984D02*
X1161016D01*
Y1103984D01*
X1162032D01*
Y1106016D01*
X1161016D01*
Y1107032D01*
X1158984D01*
Y1106016D01*
X1157968D01*
Y1103984D01*
X1158984D01*
Y1102968D01*
X1183985D02*
X1186017D01*
Y1103984D01*
X1187033D01*
Y1106016D01*
X1186017D01*
Y1107032D01*
X1183985D01*
Y1106016D01*
X1182969D01*
Y1103984D01*
X1183985D01*
Y1102968D01*
X1206968Y1172968D02*
X1207984D01*
X1209000Y1173984D01*
X1210016Y1172968D01*
X1211032D01*
Y1173984D01*
X1210016Y1175000D01*
X1211032Y1176016D01*
Y1177032D01*
X1210016D01*
X1209000Y1176016D01*
X1207984Y1177032D01*
X1206968D01*
Y1176016D01*
X1207984Y1175000D01*
X1206968Y1173984D01*
Y1172968D01*
X1315268Y1267968D02*
Y1272032D01*
X1319332D01*
Y1267968D01*
X1315268D01*
X1327968Y1221232D02*
X1332032D01*
X1330000Y1217168D01*
X1327968Y1221232D01*
Y1171016D02*
X1328984Y1170000D01*
X1327968Y1168984D01*
X1328984D01*
X1330000Y1167968D01*
X1331016Y1168984D01*
X1332032D01*
X1331016Y1170000D01*
X1332032Y1171016D01*
X1331016D01*
X1330000Y1172032D01*
X1328984Y1171016D01*
X1327968D01*
Y1107232D02*
X1330000Y1106216D01*
X1332032Y1107232D01*
X1331016Y1105200D01*
X1332032Y1103168D01*
X1330000Y1104184D01*
X1327968Y1103168D01*
X1328984Y1105200D01*
X1327968Y1107232D01*
X1340668Y1267968D02*
Y1272032D01*
X1344732D01*
Y1267968D01*
X1340668D01*
X1307032Y1296000D02*
X1305000Y1293968D01*
X1302968Y1296000D01*
X1305000Y1298032D01*
X1307032Y1296000D01*
X1265000Y1273032D02*
X1267032Y1271000D01*
X1265000Y1268968D01*
X1262968Y1271000D01*
X1265000Y1273032D01*
X1162032Y1290000D02*
X1160000Y1287968D01*
X1157968Y1290000D01*
X1160000Y1292032D01*
X1162032Y1290000D01*
X1161016Y1372968D02*
Y1373984D01*
X1162032D01*
Y1376016D01*
X1161016D01*
Y1377032D01*
X1158984D01*
Y1376016D01*
X1157968D01*
Y1373984D01*
X1158984D01*
Y1372968D01*
X1161016D01*
X1183985D02*
X1186017D01*
Y1373984D01*
X1187033D01*
Y1376016D01*
X1186017D01*
Y1377032D01*
X1183985D01*
Y1376016D01*
X1182969D01*
Y1373984D01*
X1183985D01*
Y1372968D01*
X1206968Y1442968D02*
X1207984D01*
X1209000Y1443984D01*
X1210016Y1442968D01*
X1211032D01*
Y1443984D01*
X1210016Y1445000D01*
X1211032Y1446016D01*
Y1447032D01*
X1210016D01*
X1209000Y1446016D01*
X1207984Y1447032D01*
X1206968D01*
Y1446016D01*
X1207984Y1445000D01*
X1206968Y1443984D01*
Y1442968D01*
X1252968Y1460968D02*
Y1465032D01*
X1257032D01*
Y1460968D01*
X1252968D01*
X1253984Y1461984D02*
Y1464016D01*
X1256016D01*
Y1461984D01*
X1253984D01*
X1263968Y1526000D02*
X1266000Y1528032D01*
X1268032Y1526000D01*
X1266000Y1523968D01*
X1263968Y1526000D01*
X1315268Y1537968D02*
Y1542032D01*
X1319332D01*
Y1537968D01*
X1315268D01*
X1340668D02*
Y1542032D01*
X1344732D01*
Y1537968D01*
X1340668D01*
X1332032Y1491232D02*
X1330000Y1487168D01*
X1327968Y1491232D01*
X1332032D01*
Y1441016D02*
X1331016D01*
X1330000Y1442032D01*
X1328984Y1441016D01*
X1327968D01*
X1328984Y1440000D01*
X1327968Y1438984D01*
X1328984D01*
X1330000Y1437968D01*
X1331016Y1438984D01*
X1332032D01*
X1331016Y1440000D01*
X1332032Y1441016D01*
Y1377232D02*
X1331016Y1375200D01*
X1332032Y1373168D01*
X1330000Y1374184D01*
X1327968Y1373168D01*
X1328984Y1375200D01*
X1327968Y1377232D01*
X1330000Y1376216D01*
X1332032Y1377232D01*
X1152032Y1529968D02*
X1147968D01*
Y1534032D01*
X1152032D01*
Y1529968D01*
X1151016Y1530984D02*
X1148984D01*
Y1533016D01*
X1151016D01*
Y1530984D01*
X1113032Y1447032D02*
X1112016D01*
X1111000Y1446016D01*
X1109984Y1447032D01*
X1108968D01*
Y1446016D01*
X1109984Y1445000D01*
X1108968Y1443984D01*
Y1442968D01*
X1109984D01*
X1111000Y1443984D01*
X1112016Y1442968D01*
X1113032D01*
Y1443984D01*
X1112016Y1445000D01*
X1113032Y1446016D01*
Y1447032D01*
X1133983Y1377032D02*
Y1376016D01*
X1132967D01*
Y1373984D01*
X1133983D01*
Y1372968D01*
X1136015D01*
Y1373984D01*
X1137031D01*
Y1376016D01*
X1136015D01*
Y1377032D01*
X1133983D01*
X1062032Y1366632D02*
Y1362568D01*
X1057968D01*
Y1366632D01*
X1062032D01*
Y1387968D02*
X1057968D01*
Y1392032D01*
X1062032D01*
Y1387968D01*
X1036632D02*
X1032568D01*
Y1392032D01*
X1036632D01*
Y1387968D01*
Y1366632D02*
Y1362568D01*
X1032568D01*
Y1366632D01*
X1036632D01*
Y1341232D02*
Y1337168D01*
X1032568D01*
Y1341232D01*
X1036632D01*
X1057968D02*
X1062032D01*
Y1337168D01*
X1057968D01*
Y1341232D01*
Y1315832D02*
X1062032D01*
Y1311768D01*
X1057968D01*
Y1315832D01*
X1036632D02*
Y1311768D01*
X1032568D01*
Y1315832D01*
X1036632D01*
Y1290432D02*
Y1286368D01*
X1032568D01*
Y1290432D01*
X1036632D01*
X1057968D02*
X1062032D01*
Y1286368D01*
X1057968D01*
Y1290432D01*
Y1265032D02*
X1062032D01*
Y1260968D01*
X1057968D01*
Y1265032D01*
X1036632D02*
Y1260968D01*
X1032568D01*
Y1265032D01*
X1036632D01*
Y1239632D02*
Y1235568D01*
X1032568D01*
Y1239632D01*
X1036632D01*
X1057968D02*
X1062032D01*
Y1235568D01*
X1057968D01*
Y1239632D01*
Y1214232D02*
X1062032D01*
Y1210168D01*
X1057968D01*
Y1214232D01*
X1036632D02*
Y1210168D01*
X1032568D01*
Y1214232D01*
X1036632D01*
X998032Y1213032D02*
Y1208968D01*
X993968D01*
Y1213032D01*
X998032D01*
X997016Y1212016D02*
Y1209984D01*
X994984D01*
Y1212016D01*
X997016D01*
X981032Y1177032D02*
X980016D01*
X979000Y1176016D01*
X977984Y1177032D01*
X976968D01*
Y1176016D01*
X977984Y1175000D01*
X976968Y1173984D01*
Y1172968D01*
X977984D01*
X979000Y1173984D01*
X980016Y1172968D01*
X981032D01*
Y1173984D01*
X980016Y1175000D01*
X981032Y1176016D01*
Y1177032D01*
X957033Y1106016D02*
X956017D01*
Y1107032D01*
X953985D01*
Y1106016D01*
X952969D01*
Y1103984D01*
X953985D01*
Y1102968D01*
X956017D01*
Y1103984D01*
X957033D01*
Y1106016D01*
X932032D02*
X931016D01*
Y1107032D01*
X928984D01*
Y1106016D01*
X927968D01*
Y1103984D01*
X928984D01*
Y1102968D01*
X931016D01*
Y1103984D01*
X932032D01*
Y1106016D01*
X907031D02*
X906015D01*
Y1107032D01*
X903983D01*
Y1106016D01*
X902967D01*
Y1103984D01*
X903983D01*
Y1102968D01*
X906015D01*
Y1103984D01*
X907031D01*
Y1106016D01*
X883032Y1172968D02*
Y1173984D01*
X882016Y1175000D01*
X883032Y1176016D01*
Y1177032D01*
X882016D01*
X881000Y1176016D01*
X879984Y1177032D01*
X878968D01*
Y1176016D01*
X879984Y1175000D01*
X878968Y1173984D01*
Y1172968D01*
X879984D01*
X881000Y1173984D01*
X882016Y1172968D01*
X883032D01*
X1005968Y1306000D02*
X1008000Y1308032D01*
X1010032Y1306000D01*
X1008000Y1303968D01*
X1005968Y1306000D01*
X956017Y1372968D02*
Y1373984D01*
X957033D01*
Y1376016D01*
X956017D01*
Y1377032D01*
X953985D01*
Y1376016D01*
X952969D01*
Y1373984D01*
X953985D01*
Y1372968D01*
X956017D01*
X981032Y1442968D02*
Y1443984D01*
X980016Y1445000D01*
X981032Y1446016D01*
Y1447032D01*
X980016D01*
X979000Y1446016D01*
X977984Y1447032D01*
X976968D01*
Y1446016D01*
X977984Y1445000D01*
X976968Y1443984D01*
Y1442968D01*
X977984D01*
X979000Y1443984D01*
X980016Y1442968D01*
X981032D01*
X996968Y1482000D02*
X999000Y1484032D01*
X1001032Y1482000D01*
X999000Y1479968D01*
X996968Y1482000D01*
X1022968Y1495000D02*
X1025000Y1497032D01*
X1027032Y1495000D01*
X1025000Y1492968D01*
X1022968Y1495000D01*
X1046968Y1499000D02*
X1049000Y1501032D01*
X1051032Y1499000D01*
X1049000Y1496968D01*
X1046968Y1499000D01*
X1001032Y1516000D02*
X999000Y1513968D01*
X996968Y1516000D01*
X999000Y1518032D01*
X1001032Y1516000D01*
X937032Y1570000D02*
X935000Y1567968D01*
X932968Y1570000D01*
X935000Y1572032D01*
X937032Y1570000D01*
X1011968Y1628000D02*
X1014000Y1630032D01*
X1016032Y1628000D01*
X1014000Y1625968D01*
X1011968Y1628000D01*
X1042968Y1651000D02*
X1045000Y1653032D01*
X1047032Y1651000D01*
X1045000Y1648968D01*
X1042968Y1651000D01*
X1097968Y1630000D02*
X1100000Y1632032D01*
X1102032Y1630000D01*
X1100000Y1627968D01*
X1097968Y1630000D01*
X1133983Y1632968D02*
X1136015D01*
Y1633984D01*
X1137031D01*
Y1636016D01*
X1136015D01*
Y1637032D01*
X1133983D01*
Y1636016D01*
X1132967D01*
Y1633984D01*
X1133983D01*
Y1632968D01*
X1158984D02*
X1161016D01*
Y1633984D01*
X1162032D01*
Y1636016D01*
X1161016D01*
Y1637032D01*
X1158984D01*
Y1636016D01*
X1157968D01*
Y1633984D01*
X1158984D01*
Y1632968D01*
X1183985D02*
X1186017D01*
Y1633984D01*
X1187033D01*
Y1636016D01*
X1186017D01*
Y1637032D01*
X1183985D01*
Y1636016D01*
X1182969D01*
Y1633984D01*
X1183985D01*
Y1632968D01*
X1206968Y1702968D02*
X1207984D01*
X1209000Y1703984D01*
X1210016Y1702968D01*
X1211032D01*
Y1703984D01*
X1210016Y1705000D01*
X1211032Y1706016D01*
Y1707032D01*
X1210016D01*
X1209000Y1706016D01*
X1207984Y1707032D01*
X1206968D01*
Y1706016D01*
X1207984Y1705000D01*
X1206968Y1703984D01*
Y1702968D01*
X1268968Y1781000D02*
X1271000Y1783032D01*
X1273032Y1781000D01*
X1271000Y1778968D01*
X1268968Y1781000D01*
X1315268Y1797968D02*
Y1802032D01*
X1319332D01*
Y1797968D01*
X1315268D01*
X1327968Y1751232D02*
X1332032D01*
X1330000Y1747168D01*
X1327968Y1751232D01*
X1340668Y1797968D02*
Y1802032D01*
X1344732D01*
Y1797968D01*
X1340668D01*
X1332032Y1903168D02*
X1330000Y1904184D01*
X1327968Y1903168D01*
X1328984Y1905200D01*
X1327968Y1907232D01*
X1330000Y1906216D01*
X1332032Y1907232D01*
X1331016Y1905200D01*
X1332032Y1903168D01*
Y1968984D02*
X1331016Y1970000D01*
X1332032Y1971016D01*
X1331016D01*
X1330000Y1972032D01*
X1328984Y1971016D01*
X1327968D01*
X1328984Y1970000D01*
X1327968Y1968984D01*
X1328984D01*
X1330000Y1967968D01*
X1331016Y1968984D01*
X1332032D01*
X1330000Y2017168D02*
X1327968Y2021232D01*
X1332032D01*
X1330000Y2017168D01*
X1340668Y2067968D02*
Y2072032D01*
X1344732D01*
Y2067968D01*
X1340668D01*
X1372968Y2110000D02*
X1375000Y2112032D01*
X1377032Y2110000D01*
X1375000Y2107968D01*
X1372968Y2110000D01*
X1319332Y2072032D02*
Y2067968D01*
X1315268D01*
Y2072032D01*
X1319332D01*
X1265000Y2047032D02*
X1267032Y2045000D01*
X1265000Y2042968D01*
X1262968Y2045000D01*
X1265000Y2047032D01*
X1211032Y1977032D02*
X1210016D01*
X1209000Y1976016D01*
X1207984Y1977032D01*
X1206968D01*
Y1976016D01*
X1207984Y1975000D01*
X1206968Y1973984D01*
Y1972968D01*
X1207984D01*
X1209000Y1973984D01*
X1210016Y1972968D01*
X1211032D01*
Y1973984D01*
X1210016Y1975000D01*
X1211032Y1976016D01*
Y1977032D01*
X1187033Y1906016D02*
X1186017D01*
Y1907032D01*
X1183985D01*
Y1906016D01*
X1182969D01*
Y1903984D01*
X1183985D01*
Y1902968D01*
X1186017D01*
Y1903984D01*
X1187033D01*
Y1906016D01*
X1162032D02*
X1161016D01*
Y1907032D01*
X1158984D01*
Y1906016D01*
X1157968D01*
Y1903984D01*
X1158984D01*
Y1902968D01*
X1161016D01*
Y1903984D01*
X1162032D01*
Y1906016D01*
X1155000Y1867032D02*
X1157032Y1865000D01*
X1155000Y1862968D01*
X1152968Y1865000D01*
X1155000Y1867032D01*
X1136015Y1902968D02*
Y1903984D01*
X1137031D01*
Y1906016D01*
X1136015D01*
Y1907032D01*
X1133983D01*
Y1906016D01*
X1132967D01*
Y1903984D01*
X1133983D01*
Y1902968D01*
X1136015D01*
X1113032Y1972968D02*
Y1973984D01*
X1112016Y1975000D01*
X1113032Y1976016D01*
Y1977032D01*
X1112016D01*
X1111000Y1976016D01*
X1109984Y1977032D01*
X1108968D01*
Y1976016D01*
X1109984Y1975000D01*
X1108968Y1973984D01*
Y1972968D01*
X1109984D01*
X1111000Y1973984D01*
X1112016Y1972968D01*
X1113032D01*
X1024032Y1922000D02*
X1022000Y1919968D01*
X1019968Y1922000D01*
X1022000Y1924032D01*
X1024032Y1922000D01*
X1055968Y1907000D02*
X1058000Y1909032D01*
X1060032Y1907000D01*
X1058000Y1904968D01*
X1055968Y1907000D01*
X981032Y1972968D02*
Y1973984D01*
X980016Y1975000D01*
X981032Y1976016D01*
Y1977032D01*
X980016D01*
X979000Y1976016D01*
X977984Y1977032D01*
X976968D01*
Y1976016D01*
X977984Y1975000D01*
X976968Y1973984D01*
Y1972968D01*
X977984D01*
X979000Y1973984D01*
X980016Y1972968D01*
X981032D01*
X957033Y1906016D02*
X956017D01*
Y1907032D01*
X953985D01*
Y1906016D01*
X952969D01*
Y1903984D01*
X953985D01*
Y1902968D01*
X956017D01*
Y1903984D01*
X957033D01*
Y1906016D01*
X955000Y1867032D02*
X957032Y1865000D01*
X955000Y1862968D01*
X952968Y1865000D01*
X955000Y1867032D01*
X931016Y1902968D02*
Y1903984D01*
X932032D01*
Y1906016D01*
X931016D01*
Y1907032D01*
X928984D01*
Y1906016D01*
X927968D01*
Y1903984D01*
X928984D01*
Y1902968D01*
X931016D01*
X906015D02*
Y1903984D01*
X907031D01*
Y1906016D01*
X906015D01*
Y1907032D01*
X903983D01*
Y1906016D01*
X902967D01*
Y1903984D01*
X903983D01*
Y1902968D01*
X906015D01*
X883032Y1972968D02*
Y1973984D01*
X882016Y1975000D01*
X883032Y1976016D01*
Y1977032D01*
X882016D01*
X881000Y1976016D01*
X879984Y1977032D01*
X878968D01*
Y1976016D01*
X879984Y1975000D01*
X878968Y1973984D01*
Y1972968D01*
X879984D01*
X881000Y1973984D01*
X882016Y1972968D01*
X883032D01*
X825000Y1835032D02*
X827032Y1833000D01*
X825000Y1830968D01*
X822968Y1833000D01*
X825000Y1835032D01*
X762032Y1903168D02*
X760000Y1904184D01*
X757968Y1903168D01*
X758984Y1905200D01*
X757968Y1907232D01*
X760000Y1906216D01*
X762032Y1907232D01*
X761016Y1905200D01*
X762032Y1903168D01*
Y1968984D02*
X761016Y1970000D01*
X762032Y1971016D01*
X761016D01*
X760000Y1972032D01*
X758984Y1971016D01*
X757968D01*
X758984Y1970000D01*
X757968Y1968984D01*
X758984D01*
X760000Y1967968D01*
X761016Y1968984D01*
X762032D01*
X760000Y2017168D02*
X757968Y2021232D01*
X762032D01*
X760000Y2017168D01*
X825968Y2094000D02*
X828000Y2096032D01*
X830032Y2094000D01*
X828000Y2091968D01*
X825968Y2094000D01*
X897968Y2110000D02*
X900000Y2112032D01*
X902032Y2110000D01*
X900000Y2107968D01*
X897968Y2110000D01*
X1137968D02*
X1140000Y2112032D01*
X1142032Y2110000D01*
X1140000Y2107968D01*
X1137968Y2110000D01*
X940000Y1777032D02*
X942032Y1775000D01*
X940000Y1772968D01*
X937968Y1775000D01*
X940000Y1777032D01*
X976968Y1707032D02*
Y1706016D01*
X977984Y1705000D01*
X976968Y1703984D01*
Y1702968D01*
X977984D01*
X979000Y1703984D01*
X980016Y1702968D01*
X981032D01*
Y1703984D01*
X980016Y1705000D01*
X981032Y1706016D01*
Y1707032D01*
X980016D01*
X979000Y1706016D01*
X977984Y1707032D01*
X976968D01*
X932032Y1636016D02*
X931016D01*
Y1637032D01*
X928984D01*
Y1636016D01*
X927968D01*
Y1633984D01*
X928984D01*
Y1632968D01*
X931016D01*
Y1633984D01*
X932032D01*
Y1636016D01*
X907031D02*
X906015D01*
Y1637032D01*
X903983D01*
Y1636016D01*
X902967D01*
Y1633984D01*
X903983D01*
Y1632968D01*
X906015D01*
Y1633984D01*
X907031D01*
Y1636016D01*
X952969D02*
Y1633984D01*
X953985D01*
Y1632968D01*
X956017D01*
Y1633984D01*
X957033D01*
Y1636016D01*
X956017D01*
Y1637032D01*
X953985D01*
Y1636016D01*
X952969D01*
X1041968Y1747000D02*
X1044000Y1749032D01*
X1046032Y1747000D01*
X1044000Y1744968D01*
X1041968Y1747000D01*
X1027032Y1750000D02*
X1025000Y1747968D01*
X1022968Y1750000D01*
X1025000Y1752032D01*
X1027032Y1750000D01*
X1108968Y1703984D02*
Y1702968D01*
X1109984D01*
X1111000Y1703984D01*
X1112016Y1702968D01*
X1113032D01*
Y1703984D01*
X1112016Y1705000D01*
X1113032Y1706016D01*
Y1707032D01*
X1112016D01*
X1111000Y1706016D01*
X1109984Y1707032D01*
X1108968D01*
Y1706016D01*
X1109984Y1705000D01*
X1108968Y1703984D01*
X1172968Y1775000D02*
X1175000Y1777032D01*
X1177032Y1775000D01*
X1175000Y1772968D01*
X1172968Y1775000D01*
X1327968Y1637232D02*
X1330000Y1636216D01*
X1332032Y1637232D01*
X1331016Y1635200D01*
X1332032Y1633168D01*
X1330000Y1634184D01*
X1327968Y1633168D01*
X1328984Y1635200D01*
X1327968Y1637232D01*
Y1698984D02*
X1328984D01*
X1330000Y1697968D01*
X1331016Y1698984D01*
X1332032D01*
X1331016Y1700000D01*
X1332032Y1701016D01*
X1331016D01*
X1330000Y1702032D01*
X1328984Y1701016D01*
X1327968D01*
X1328984Y1700000D01*
X1327968Y1698984D01*
X932032Y1376016D02*
X931016D01*
Y1377032D01*
X928984D01*
Y1376016D01*
X927968D01*
Y1373984D01*
X928984D01*
Y1372968D01*
X931016D01*
Y1373984D01*
X932032D01*
Y1376016D01*
X907031D02*
X906015D01*
Y1377032D01*
X903983D01*
Y1376016D01*
X902967D01*
Y1373984D01*
X903983D01*
Y1372968D01*
X906015D01*
Y1373984D01*
X907031D01*
Y1376016D01*
X883032Y1442968D02*
Y1443984D01*
X882016Y1445000D01*
X883032Y1446016D01*
Y1447032D01*
X882016D01*
X881000Y1446016D01*
X879984Y1447032D01*
X878968D01*
Y1446016D01*
X879984Y1445000D01*
X878968Y1443984D01*
Y1442968D01*
X879984D01*
X881000Y1443984D01*
X882016Y1442968D01*
X883032D01*
X846032Y1392032D02*
Y1387968D01*
X841968D01*
Y1392032D01*
X846032D01*
X845016Y1391016D02*
Y1388984D01*
X842984D01*
Y1391016D01*
X845016D01*
X882968Y1285000D02*
X885000Y1287032D01*
X887032Y1285000D01*
X885000Y1282968D01*
X882968Y1285000D01*
X762032Y1438984D02*
X761016Y1440000D01*
X762032Y1441016D01*
X761016D01*
X760000Y1442032D01*
X758984Y1441016D01*
X757968D01*
X758984Y1440000D01*
X757968Y1438984D01*
X758984D01*
X760000Y1437968D01*
X761016Y1438984D01*
X762032D01*
Y1377232D02*
X761016Y1375200D01*
X762032Y1373168D01*
X760000Y1374184D01*
X757968Y1373168D01*
X758984Y1375200D01*
X757968Y1377232D01*
X760000Y1376216D01*
X762032Y1377232D01*
X760000Y1487168D02*
X757968Y1491232D01*
X762032D01*
X760000Y1487168D01*
X821968Y1584000D02*
X824000Y1586032D01*
X826032Y1584000D01*
X824000Y1581968D01*
X821968Y1584000D01*
X878968Y1702968D02*
X879984D01*
X881000Y1703984D01*
X882016Y1702968D01*
X883032D01*
Y1703984D01*
X882016Y1705000D01*
X883032Y1706016D01*
Y1707032D01*
X882016D01*
X881000Y1706016D01*
X879984Y1707032D01*
X878968D01*
Y1706016D01*
X879984Y1705000D01*
X878968Y1703984D01*
Y1702968D01*
X762032Y1751232D02*
X760000Y1747168D01*
X757968Y1751232D01*
X762032D01*
Y1701016D02*
X761016D01*
X760000Y1702032D01*
X758984Y1701016D01*
X757968D01*
X758984Y1700000D01*
X757968Y1698984D01*
X758984D01*
X760000Y1697968D01*
X761016Y1698984D01*
X762032D01*
X761016Y1700000D01*
X762032Y1701016D01*
Y1637232D02*
X761016Y1635200D01*
X762032Y1633168D01*
X760000Y1634184D01*
X757968Y1633168D01*
X758984Y1635200D01*
X757968Y1637232D01*
X760000Y1636216D01*
X762032Y1637232D01*
Y1221232D02*
X760000Y1217168D01*
X757968Y1221232D01*
X762032D01*
Y1171016D02*
X761016D01*
X760000Y1172032D01*
X758984Y1171016D01*
X757968D01*
X758984Y1170000D01*
X757968Y1168984D01*
X758984D01*
X760000Y1167968D01*
X761016Y1168984D01*
X762032D01*
X761016Y1170000D01*
X762032Y1171016D01*
Y1107232D02*
X761016Y1105200D01*
X762032Y1103168D01*
X760000Y1104184D01*
X757968Y1103168D01*
X758984Y1105200D01*
X757968Y1107232D01*
X760000Y1106216D01*
X762032Y1107232D01*
X1108968Y1172968D02*
X1109984D01*
X1111000Y1173984D01*
X1112016Y1172968D01*
X1113032D01*
Y1173984D01*
X1112016Y1175000D01*
X1113032Y1176016D01*
Y1177032D01*
X1112016D01*
X1111000Y1176016D01*
X1109984Y1177032D01*
X1108968D01*
Y1176016D01*
X1109984Y1175000D01*
X1108968Y1173984D01*
Y1172968D01*
X722032Y2110000D02*
X720000Y2107968D01*
X717968Y2110000D01*
X720000Y2112032D01*
X722032Y2110000D01*
D60*
X762032Y1136200D02*
G03*
X762032Y1136200I-2032J0D01*
G01*
Y1406200D02*
G03*
X762032Y1406200I-2032J0D01*
G01*
Y1666200D02*
G03*
X762032Y1666200I-2032J0D01*
G01*
Y1936200D02*
G03*
X762032Y1936200I-2032J0D01*
G01*
X1332032Y1406200D02*
G03*
X1332032Y1406200I-2032J0D01*
G01*
Y1136200D02*
G03*
X1332032Y1136200I-2032J0D01*
G01*
Y1666200D02*
G03*
X1332032Y1666200I-2032J0D01*
G01*
Y1936200D02*
G03*
X1332032Y1936200I-2032J0D01*
G01*
M02*
