G04 Layer_Color=8388736*
%FSLAX44Y44*%
%MOMM*%
G71*
G01*
G75*
%ADD37C,1.6032*%
%ADD38O,2.9032X1.9032*%
%ADD39O,2.8032X1.8032*%
%ADD40C,0.2032*%
%ADD41O,2.6032X1.9032*%
%ADD42R,1.7032X1.7032*%
%ADD43C,1.7032*%
%ADD44C,1.6256*%
%ADD45O,2.0032X3.4032*%
%ADD46O,2.0032X3.4031*%
D37*
X1317300Y1270000D02*
D03*
X1342700D02*
D03*
Y1540000D02*
D03*
X1317300D02*
D03*
X1342700Y1800000D02*
D03*
X1317300D02*
D03*
X1342700Y2070000D02*
D03*
X1317300D02*
D03*
D38*
X760000Y1136200D02*
D03*
Y1406200D02*
D03*
Y1666200D02*
D03*
Y1936200D02*
D03*
X1330000Y1406200D02*
D03*
Y1136200D02*
D03*
Y1666200D02*
D03*
Y1936200D02*
D03*
D39*
X760000Y1219200D02*
D03*
Y1489200D02*
D03*
Y1749200D02*
D03*
Y2019200D02*
D03*
X1330000Y1489200D02*
D03*
Y1219200D02*
D03*
Y1749200D02*
D03*
Y2019200D02*
D03*
D40*
X760000Y1170000D02*
D03*
Y1440000D02*
D03*
Y1700000D02*
D03*
Y1970000D02*
D03*
X1330000Y1440000D02*
D03*
Y1170000D02*
D03*
Y1700000D02*
D03*
Y1970000D02*
D03*
D41*
X760000Y1105200D02*
D03*
Y1375200D02*
D03*
Y1635200D02*
D03*
Y1905200D02*
D03*
X1330000Y1375200D02*
D03*
Y1635200D02*
D03*
Y1905200D02*
D03*
Y1105200D02*
D03*
D42*
X1060000Y1390000D02*
D03*
D43*
X1034600Y1212200D02*
D03*
X1060000D02*
D03*
Y1237600D02*
D03*
Y1263000D02*
D03*
X1034600D02*
D03*
Y1237600D02*
D03*
Y1288400D02*
D03*
Y1313800D02*
D03*
X1060000D02*
D03*
Y1288400D02*
D03*
Y1339200D02*
D03*
X1034600D02*
D03*
Y1364600D02*
D03*
Y1390000D02*
D03*
X1060000Y1364600D02*
D03*
D44*
X955001Y1105000D02*
D03*
X930000D02*
D03*
X904999D02*
D03*
X1134999D02*
D03*
X1160000D02*
D03*
X1185001D02*
D03*
Y1375000D02*
D03*
X1160000D02*
D03*
X1134999D02*
D03*
X955001D02*
D03*
X930000D02*
D03*
X904999D02*
D03*
X1160000Y1635000D02*
D03*
X1185001D02*
D03*
X1134999D02*
D03*
X955001D02*
D03*
X930000D02*
D03*
X904999D02*
D03*
X1160000Y1905000D02*
D03*
X1185001D02*
D03*
X1134999D02*
D03*
X955001D02*
D03*
X930000D02*
D03*
X904999D02*
D03*
D45*
X1111000Y1175000D02*
D03*
Y1445000D02*
D03*
X881000D02*
D03*
Y1175000D02*
D03*
X1111000Y1705000D02*
D03*
Y1975000D02*
D03*
X881000D02*
D03*
Y1705000D02*
D03*
D46*
X979000Y1175000D02*
D03*
X1209000D02*
D03*
Y1445000D02*
D03*
X979000D02*
D03*
X1209000Y1705000D02*
D03*
Y1975000D02*
D03*
X979000D02*
D03*
Y1705000D02*
D03*
M02*
