G04 Layer_Color=255*
%FSLAX44Y44*%
%MOMM*%
G71*
G01*
G75*
%ADD13C,1.4000*%
%ADD14O,2.7000X1.7000*%
%ADD15O,2.6000X1.6000*%
%ADD16O,2.4000X1.7000*%
%ADD17R,1.5000X1.5000*%
%ADD18C,1.5000*%
%ADD19C,1.4224*%
%ADD20O,1.8000X3.2000*%
%ADD21O,1.8000X3.1999*%
D13*
X1317300Y1270000D02*
D03*
X1342700D02*
D03*
Y1540000D02*
D03*
X1317300D02*
D03*
X1342700Y1800000D02*
D03*
X1317300D02*
D03*
X1342700Y2070000D02*
D03*
X1317300D02*
D03*
D14*
X760000Y1136200D02*
D03*
Y1406200D02*
D03*
Y1666200D02*
D03*
Y1936200D02*
D03*
X1330000Y1406200D02*
D03*
Y1136200D02*
D03*
Y1666200D02*
D03*
Y1936200D02*
D03*
D15*
X760000Y1219200D02*
D03*
Y1489200D02*
D03*
Y1749200D02*
D03*
Y2019200D02*
D03*
X1330000Y1489200D02*
D03*
Y1219200D02*
D03*
Y1749200D02*
D03*
Y2019200D02*
D03*
D16*
X760000Y1105200D02*
D03*
Y1375200D02*
D03*
Y1635200D02*
D03*
Y1905200D02*
D03*
X1330000Y1375200D02*
D03*
Y1635200D02*
D03*
Y1905200D02*
D03*
Y1105200D02*
D03*
D17*
X1060000Y1390000D02*
D03*
D18*
X1034600Y1212200D02*
D03*
X1060000D02*
D03*
Y1237600D02*
D03*
Y1263000D02*
D03*
X1034600D02*
D03*
Y1237600D02*
D03*
Y1288400D02*
D03*
Y1313800D02*
D03*
X1060000D02*
D03*
Y1288400D02*
D03*
Y1339200D02*
D03*
X1034600D02*
D03*
Y1364600D02*
D03*
Y1390000D02*
D03*
X1060000Y1364600D02*
D03*
D19*
X955001Y1105000D02*
D03*
X930000D02*
D03*
X904999D02*
D03*
X1134999D02*
D03*
X1160000D02*
D03*
X1185001D02*
D03*
Y1375000D02*
D03*
X1160000D02*
D03*
X1134999D02*
D03*
X955001D02*
D03*
X930000D02*
D03*
X904999D02*
D03*
X1160000Y1635000D02*
D03*
X1185001D02*
D03*
X1134999D02*
D03*
X955001D02*
D03*
X930000D02*
D03*
X904999D02*
D03*
X1160000Y1905000D02*
D03*
X1185001D02*
D03*
X1134999D02*
D03*
X955001D02*
D03*
X930000D02*
D03*
X904999D02*
D03*
D20*
X1111000Y1175000D02*
D03*
Y1445000D02*
D03*
X881000D02*
D03*
Y1175000D02*
D03*
X1111000Y1705000D02*
D03*
Y1975000D02*
D03*
X881000D02*
D03*
Y1705000D02*
D03*
D21*
X979000Y1175000D02*
D03*
X1209000D02*
D03*
Y1445000D02*
D03*
X979000D02*
D03*
X1209000Y1705000D02*
D03*
Y1975000D02*
D03*
X979000D02*
D03*
Y1705000D02*
D03*
M02*
