G04 Layer_Color=32896*
%FSLAX44Y44*%
%MOMM*%
G71*
G01*
G75*
%ADD11C,0.3000*%
%ADD12C,0.2000*%
%ADD36C,0.1600*%
%ADD57C,0.2500*%
%ADD58C,0.2032*%
D11*
X1072500Y1193750D02*
X1021750D01*
D12*
X1149000Y1133750D02*
X1151000D01*
Y1146250D02*
X1149000D01*
X1069000Y1131000D02*
Y1129000D01*
X1051000D02*
Y1131000D01*
X1036250D02*
Y1129000D01*
X1023750D02*
Y1131000D01*
X1072700Y1199500D02*
Y1402700D01*
X1021900D01*
Y1199500D01*
X1072700D01*
X1109000Y1243750D02*
X1111000D01*
Y1256250D02*
X1109000D01*
X1141000Y1241000D02*
Y1239000D01*
X1159000D02*
Y1241000D01*
X1171000D02*
Y1239000D01*
X1189000D02*
Y1241000D01*
X1214000Y1231000D02*
Y1249000D01*
X1246000Y1231000D02*
Y1249000D01*
X1283000Y1230000D02*
X1284765Y1231059D01*
X1285000Y1232000D01*
X1287000Y1228000D01*
X1289000Y1232000D01*
X1291000Y1228000D01*
X1293000Y1232000D01*
X1295000Y1228000D01*
X1295800Y1229600D01*
X1297000Y1230000D01*
Y1270000D02*
X1295800Y1269600D01*
X1295000Y1268000D01*
X1293000Y1272000D01*
X1291000Y1268000D01*
X1289000Y1272000D01*
X1287000Y1268000D01*
X1285000Y1272000D01*
X1284765Y1271059D01*
X1283000Y1270000D01*
X1325500Y1313000D02*
Y1323000D01*
X1345000Y1322000D02*
X1347000Y1318000D01*
X1349000Y1322000D01*
X1351000Y1318000D01*
X1353000Y1322000D01*
X1355000Y1318000D01*
X1355800Y1319600D01*
X1357000Y1320000D01*
X1344765Y1321059D02*
X1345000Y1322000D01*
X1344765Y1321059D02*
X1343000Y1320000D01*
X1325500Y1313000D02*
X1318000D01*
X1302000D02*
X1294500D01*
Y1323000D01*
X1246000Y1331000D02*
Y1349000D01*
X1214000D02*
Y1331000D01*
X1189000Y1331000D02*
Y1329000D01*
X1171000D02*
Y1331000D01*
X1159000D02*
Y1329000D01*
X1141000D02*
Y1331000D01*
X1111000Y1326250D02*
X1109000D01*
Y1313750D02*
X1111000D01*
X1051000Y1441000D02*
X1049000D01*
Y1459000D02*
X1051000D01*
Y1473750D02*
X1049000D01*
Y1486250D02*
X1051000D01*
X1032000Y1507000D02*
X1030000D01*
Y1525000D02*
X1032000D01*
X1084000Y1561000D02*
Y1579000D01*
X996000D01*
Y1561000D01*
X1084000D01*
X1149000Y1486250D02*
X1151000D01*
Y1473750D02*
X1149000D01*
X1223000Y1550000D02*
X1224765Y1551059D01*
X1225000Y1552000D01*
X1227000Y1548000D01*
X1229000Y1552000D01*
X1231000Y1548000D01*
X1233000Y1552000D01*
X1235000Y1548000D01*
X1235800Y1549600D01*
X1237000Y1550000D01*
X1263000Y1542000D02*
Y1534500D01*
X1273000D01*
Y1565500D02*
X1263000D01*
Y1558000D01*
X1270000Y1497000D02*
X1270400Y1495800D01*
X1272000Y1495000D01*
X1268000Y1493000D01*
X1272000Y1491000D01*
X1268000Y1489000D01*
X1272000Y1487000D01*
X1268000Y1485000D01*
X1268941Y1484765D01*
X1270000Y1483000D01*
X1333000Y1563000D02*
X1331941Y1564765D01*
X1331000Y1565000D01*
X1335000Y1567000D01*
X1331000Y1569000D01*
X1335000Y1571000D01*
X1331000Y1573000D01*
X1335000Y1575000D01*
X1333400Y1575800D01*
X1333000Y1577000D01*
X1270000Y1743000D02*
X1268941Y1744765D01*
X1268000Y1745000D01*
X1272000Y1747000D01*
X1268000Y1749000D01*
X1272000Y1751000D01*
X1268000Y1753000D01*
X1272000Y1755000D01*
X1270400Y1755800D01*
X1270000Y1757000D01*
X1273000Y1794500D02*
X1263000D01*
Y1802000D01*
Y1818000D02*
Y1825500D01*
X1273000D01*
X1237000Y1810000D02*
X1235800Y1809600D01*
X1235000Y1808000D01*
X1233000Y1812000D01*
X1231000Y1808000D01*
X1229000Y1812000D01*
X1227000Y1808000D01*
X1225000Y1812000D01*
X1224765Y1811059D01*
X1223000Y1810000D01*
X1151000Y1746250D02*
X1149000D01*
Y1733750D02*
X1151000D01*
X1094000Y1821000D02*
Y1839000D01*
X1006000D01*
Y1821000D01*
X1094000D01*
X1041000Y1780000D02*
X1039000D01*
Y1762000D02*
X1041000D01*
X1049000Y1714250D02*
X1051000D01*
Y1701750D02*
X1049000D01*
Y1688000D02*
X1051000D01*
Y1670000D02*
X1049000D01*
Y1638000D02*
X1051000D01*
Y1620000D02*
X1049000D01*
X856250Y1799000D02*
Y1801000D01*
X843750D02*
Y1799000D01*
X826250D02*
Y1801000D01*
X813750D02*
Y1799000D01*
X770000Y1797000D02*
X770400Y1795800D01*
X772000Y1795000D01*
X768000Y1793000D01*
X772000Y1791000D01*
X768000Y1789000D01*
X772000Y1787000D01*
X768000Y1785000D01*
X768941Y1784765D01*
X770000Y1783000D01*
X813000Y1740000D02*
X814200Y1740400D01*
X815000Y1742000D01*
X817000Y1738000D01*
X819000Y1742000D01*
X821000Y1738000D01*
X823000Y1742000D01*
X825000Y1738000D01*
X825235Y1738941D01*
X827000Y1740000D01*
X808750Y1541000D02*
Y1539000D01*
X770000Y1537000D02*
X770400Y1535800D01*
X772000Y1535000D01*
X768000Y1533000D01*
X772000Y1531000D01*
X768000Y1529000D01*
X772000Y1527000D01*
X768000Y1525000D01*
X768941Y1524765D01*
X770000Y1523000D01*
X808000Y1480000D02*
X809200Y1480400D01*
X810000Y1482000D01*
X812000Y1478000D01*
X814000Y1482000D01*
X816000Y1478000D01*
X818000Y1482000D01*
X820000Y1478000D01*
X820235Y1478941D01*
X822000Y1480000D01*
X811000Y1366000D02*
X812059Y1364235D01*
X813000Y1364000D01*
X809000Y1362000D01*
X813000Y1360000D01*
X809000Y1358000D01*
X813000Y1356000D01*
X809000Y1354000D01*
X810600Y1353200D01*
X811000Y1352000D01*
X861000Y1331000D02*
Y1329000D01*
X879000D02*
Y1331000D01*
X891000D02*
Y1329000D01*
X924000Y1319000D02*
Y1301000D01*
X956000D02*
Y1319000D01*
X989000Y1333750D02*
X991000D01*
Y1346250D02*
X989000D01*
X909000Y1331000D02*
Y1329000D01*
X771000Y1323750D02*
X769000D01*
Y1336250D02*
X771000D01*
Y1306250D02*
X769000D01*
Y1293750D02*
X771000D01*
X767000Y1260000D02*
X765235Y1258941D01*
X765000Y1258000D01*
X763000Y1262000D01*
X761000Y1258000D01*
X759000Y1262000D01*
X757000Y1258000D01*
X755000Y1262000D01*
X754200Y1260400D01*
X753000Y1260000D01*
X821250Y1539000D02*
Y1541000D01*
X838750D02*
Y1539000D01*
X851250D02*
Y1541000D01*
X1059000Y1876000D02*
X1061000D01*
Y1894000D02*
X1059000D01*
X1051000Y1941000D02*
X1049000D01*
Y1959000D02*
X1051000D01*
Y1973750D02*
X1049000D01*
Y1986250D02*
X1051000D01*
X1068032Y2042000D02*
X1066366Y2043666D01*
Y2045332D01*
X1068032Y2046998D01*
X1073031D01*
Y2043666D01*
X1071365Y2042000D01*
X1068032D01*
X1078029D02*
X1079695D01*
Y2051997D01*
X1081361Y2050331D01*
X1084694D02*
Y2043666D01*
X1086360Y2042000D01*
X1089692D01*
X1091358Y2043666D01*
Y2050331D01*
X1089692Y2051997D01*
X1086360D01*
X1084694Y2050331D01*
X1094690D02*
X1096356Y2051997D01*
X1099689D01*
X1101355Y2050331D01*
X1094690D02*
Y2048665D01*
X1101355Y2042000D01*
X1094690D01*
X1081361D02*
X1078029D01*
X1114684D02*
Y2046998D01*
X1116350Y2048665D01*
X1121348D01*
Y2042000D01*
X1126347D02*
X1128013D01*
Y2048665D01*
X1129679D01*
X1136344Y2051997D02*
X1138010D01*
X1136344D02*
Y2042000D01*
X1134677D01*
X1138010D01*
X1129679D02*
X1126347D01*
X1148006D02*
Y2045332D01*
X1146340Y2046998D01*
X1144674Y2048665D01*
X1143008D01*
X1148006D02*
Y2042000D01*
X1153005D02*
X1156337D01*
X1158003Y2043666D01*
Y2046998D01*
X1156337Y2048665D01*
X1153005D01*
X1151339Y2046998D01*
Y2045332D01*
X1158003D01*
X1161336D02*
X1163002Y2046998D01*
X1168000D01*
X1163002D01*
X1161336Y2048665D01*
Y2050331D01*
X1163002Y2051997D01*
X1168000D01*
Y2042000D01*
X1163002D01*
X1161336Y2043666D01*
Y2045332D01*
X1213000Y2080000D02*
X1214765Y2081059D01*
X1215000Y2082000D01*
X1217000Y2078000D01*
X1219000Y2082000D01*
X1221000Y2078000D01*
X1223000Y2082000D01*
X1225000Y2078000D01*
X1225800Y2079600D01*
X1227000Y2080000D01*
X1278000Y2023000D02*
X1282000Y2025000D01*
X1280400Y2025800D01*
X1280000Y2027000D01*
X1282000Y2021000D02*
X1278000Y2023000D01*
Y2019000D02*
X1282000Y2021000D01*
Y2017000D02*
X1278000Y2019000D01*
Y2015000D02*
X1282000Y2017000D01*
X1278941Y2014765D02*
X1280000Y2013000D01*
X1278941Y2014765D02*
X1278000Y2015000D01*
X1263000Y2064500D02*
X1253000D01*
Y2072000D01*
Y2088000D02*
Y2095500D01*
X1263000D01*
X1333000Y2095000D02*
X1337000Y2097000D01*
X1333000Y2099000D01*
X1337000Y2101000D01*
X1333000Y2103000D01*
X1337000Y2105000D01*
X1335400Y2105800D01*
X1335000Y2107000D01*
X1333941Y2094765D02*
X1335000Y2093000D01*
X1333941Y2094765D02*
X1333000Y2095000D01*
X1163002Y2092254D02*
X1168000Y2087255D01*
X1161336D01*
X1163002Y2082257D02*
Y2092254D01*
X1158003Y2088921D02*
X1151339Y2082257D01*
X1154671Y2085589D01*
X1151339Y2088921D01*
X1158003Y2082257D01*
Y2068793D02*
Y2063795D01*
X1156337Y2062128D01*
X1151339D01*
Y2060462D01*
X1153005Y2058796D01*
X1154671D01*
X1151339Y2062128D02*
Y2068793D01*
X1161336Y2067127D02*
X1163002Y2068793D01*
X1168000D01*
Y2072125D02*
Y2062128D01*
X1163002D01*
X1161336Y2063795D01*
Y2065461D01*
Y2067127D01*
X1138010Y2092254D02*
Y2082257D01*
X1131345D01*
X1128013D02*
Y2088921D01*
X1123015D01*
X1121348Y2087255D01*
Y2082257D01*
X1114684D02*
X1111352Y2088921D01*
X1118016D02*
X1114684Y2082257D01*
X1116350Y2068793D02*
X1114684Y2067127D01*
Y2062128D01*
Y2067127D01*
X1113018Y2068793D01*
X1111352Y2067127D01*
Y2062128D01*
X1118016D02*
Y2068793D01*
X1116350D01*
X1121348Y2067127D02*
X1123015Y2068793D01*
X1126347D01*
X1128013Y2067127D01*
Y2063795D01*
X1126347Y2062128D01*
X1123015D01*
X1121348Y2063795D01*
Y2067127D01*
X1131345Y2072125D02*
X1134677D01*
Y2062128D01*
X1138010Y2072125D02*
X1131345D01*
X1134677Y2087255D02*
X1138010D01*
Y2092254D02*
X1131345D01*
X1106353Y2088921D02*
X1103021D01*
X1101355Y2087255D01*
Y2085589D01*
X1108019D01*
Y2083923D02*
Y2087255D01*
X1106353Y2088921D01*
X1098023Y2092254D02*
X1096356D01*
Y2082257D01*
X1094690D01*
X1098023D01*
X1103021D02*
X1106353D01*
X1108019Y2083923D01*
X1106353Y2068793D02*
X1103021D01*
X1101355Y2067127D01*
Y2062128D01*
X1106353D01*
X1108019Y2063795D01*
X1106353Y2065461D01*
X1101355D01*
X1096356D02*
X1098023Y2067127D01*
X1096356Y2068793D01*
X1091358D01*
Y2063795D02*
X1093024Y2065461D01*
X1096356D01*
X1098023Y2062128D02*
X1093024D01*
X1091358Y2063795D01*
X1088026Y2062128D02*
Y2067127D01*
X1086360Y2068793D01*
X1083027D01*
X1081361Y2067127D01*
Y2062128D01*
X1088026D02*
Y2072125D01*
Y2082257D02*
X1084694D01*
X1083027Y2083923D01*
Y2087255D01*
X1084694Y2088921D01*
X1088026D01*
X1089692Y2087255D01*
Y2083923D01*
X1088026Y2082257D01*
X1079695D02*
X1074697D01*
X1073031Y2083923D01*
Y2087255D01*
X1074697Y2088921D01*
X1079695D01*
Y2078925D01*
X1068032Y2082257D02*
X1069698Y2083923D01*
Y2087255D01*
X1068032Y2088921D01*
X1064700D01*
X1063034Y2087255D01*
Y2085589D01*
X1069698D01*
X1068032Y2082257D02*
X1064700D01*
X1063034Y2072125D02*
X1066366D01*
X1068032Y2070459D01*
Y2063795D01*
X1066366Y2062128D01*
X1063034D01*
X1061368Y2063795D01*
Y2067127D01*
X1064700D01*
X1061368Y2070459D02*
X1063034Y2072125D01*
X1058035D02*
Y2062128D01*
Y2067127D01*
X1051371D01*
Y2072125D01*
Y2062128D01*
X1048039D02*
X1041374D01*
Y2068793D02*
X1048039Y2062128D01*
Y2068793D02*
X1041374D01*
X1044706Y2082257D02*
X1043040Y2083923D01*
Y2087255D01*
X1046373D01*
X1049705Y2083923D02*
X1048039Y2082257D01*
X1044706D01*
X1038042D02*
X1039708Y2083923D01*
Y2087255D01*
X1038042Y2088921D01*
X1034710D01*
X1033044Y2087255D01*
Y2085589D01*
X1039708D01*
X1038042Y2082257D02*
X1034710D01*
X1029711D02*
Y2088921D01*
X1024713D01*
X1023047Y2087255D01*
Y2082257D01*
X1049705Y2083923D02*
Y2090587D01*
X1048039Y2092254D01*
X1044706D01*
X1043040Y2090587D01*
X1066366Y2051997D02*
X1069698Y2050331D01*
X1073031Y2046998D01*
X1018048Y2088921D02*
X1014716D01*
X1013050Y2087255D01*
Y2085589D01*
X1019714D01*
Y2083923D02*
Y2087255D01*
X1018048Y2088921D01*
X1009718D02*
Y2082257D01*
Y2085589D01*
X1008052Y2087255D01*
X1006385Y2088921D01*
X1004719D01*
X998055D02*
X994723D01*
X993056Y2087255D01*
Y2082257D01*
X998055D01*
X999721Y2083923D01*
X998055Y2085589D01*
X993056D01*
X988058Y2083923D02*
X986392Y2082257D01*
X988058Y2083923D02*
Y2088921D01*
X989724D01*
X986392D01*
X988058D01*
Y2090587D01*
X981394Y2087255D02*
Y2083923D01*
X979727Y2082257D01*
X976395D01*
X974729Y2083923D01*
Y2087255D01*
X976395Y2088921D01*
X979727D01*
X981394Y2087255D01*
X1014716Y2082257D02*
X1018048D01*
X1019714Y2083923D01*
X971397Y2088921D02*
Y2082257D01*
Y2085589D01*
X969731Y2087255D01*
X968064Y2088921D01*
X966398D01*
X941406Y2092254D02*
Y2085589D01*
X938074Y2082257D01*
X934742Y2085589D01*
Y2092254D01*
X929743D02*
X931410Y2090587D01*
X929743Y2092254D02*
Y2082257D01*
X928077D01*
X931410D01*
X923079D02*
Y2083923D01*
X921413D01*
Y2082257D01*
X923079D01*
X914748D02*
X911416D01*
X913082D01*
Y2092254D01*
X914748Y2090587D01*
X856250Y2071000D02*
Y2069000D01*
X843750D02*
Y2071000D01*
X826250D02*
Y2069000D01*
X813750D02*
Y2071000D01*
X815000Y2012000D02*
X817000Y2008000D01*
X819000Y2012000D01*
X821000Y2008000D01*
X823000Y2012000D01*
X825000Y2008000D01*
X825235Y2008941D01*
X827000Y2010000D01*
X814200Y2010400D02*
X815000Y2012000D01*
X814200Y2010400D02*
X813000Y2010000D01*
X770000Y2053000D02*
X768941Y2054765D01*
X768000Y2055000D01*
X772000Y2057000D01*
X768000Y2059000D01*
X772000Y2061000D01*
X768000Y2063000D01*
X772000Y2065000D01*
X770400Y2065800D01*
X770000Y2067000D01*
X1149000Y1956250D02*
X1151000D01*
Y1943750D02*
X1149000D01*
X1331000Y1829000D02*
X1335000Y1827000D01*
X1331000Y1825000D01*
X1331941Y1824765D01*
X1333000Y1823000D01*
X1331000Y1829000D02*
X1335000Y1831000D01*
X1331000Y1833000D01*
X1335000Y1835000D01*
X1333400Y1835800D01*
X1333000Y1837000D01*
D36*
X1065501Y1095000D02*
X1064002Y1096499D01*
X1061003D02*
Y1095000D01*
Y1096499D02*
X1055005Y1102498D01*
Y1103997D01*
X1061003D01*
X1064002Y1102498D02*
X1065501Y1103997D01*
X1068501D01*
X1070000Y1102498D01*
Y1096499D01*
X1068501Y1095000D01*
X1065501D01*
X1035000D02*
X1030501D01*
X1029002Y1096499D01*
Y1102498D01*
X1030501Y1103997D01*
X1035000D01*
Y1095000D01*
X1026003D02*
X1023004D01*
X1024503D01*
Y1103997D01*
X1026003Y1102498D01*
X1018505D02*
X1017006Y1103997D01*
Y1095000D01*
X1015506D01*
X1018505D01*
X1144307Y1156810D02*
X1150305D01*
X1144307Y1162808D01*
Y1164308D01*
X1145807Y1165807D01*
X1148806D01*
X1150305Y1164308D01*
X1156303Y1165807D02*
X1157803Y1164308D01*
X1160802D02*
X1162301Y1165807D01*
X1166800D01*
Y1156810D01*
X1162301D01*
X1160802Y1158309D01*
Y1164308D01*
X1156303Y1165807D02*
Y1156810D01*
X1154804D01*
X1157803D01*
X1229007Y1185000D02*
Y1193997D01*
X1233505Y1189499D01*
X1227507D01*
X1238004Y1185000D02*
X1239503D01*
Y1193997D01*
X1241003Y1192498D01*
X1244002D02*
X1245501Y1193997D01*
X1248501D01*
X1250000Y1192498D01*
Y1186499D01*
X1248501Y1185000D01*
X1245501D01*
X1244002Y1186499D01*
X1241003Y1185000D02*
X1238004D01*
X1280506Y1195000D02*
X1277507D01*
X1276008Y1196499D01*
Y1197999D01*
X1277507Y1199499D01*
X1282006D01*
Y1196499D01*
X1280506Y1195000D01*
X1285005D02*
X1291003D01*
X1285005Y1200998D01*
Y1202498D01*
X1286504Y1203997D01*
X1289503D01*
X1291003Y1202498D01*
X1294002D02*
Y1199499D01*
X1295501Y1197999D01*
X1300000D01*
Y1195000D02*
Y1203997D01*
X1295501D01*
X1294002Y1202498D01*
X1297001Y1197999D02*
X1294002Y1195000D01*
X1282006Y1199499D02*
X1279007Y1202498D01*
X1276008Y1203997D01*
X1280040Y1293810D02*
X1277041D01*
X1275541Y1295309D01*
Y1296809D01*
X1277041Y1298309D01*
X1281539D01*
Y1295309D01*
X1280040Y1293810D01*
X1286038D02*
X1287537D01*
Y1302807D01*
X1289037Y1301308D01*
X1292036D02*
Y1298309D01*
X1293535Y1296809D01*
X1298034D01*
Y1293810D02*
Y1302807D01*
X1293535D01*
X1292036Y1301308D01*
X1295035Y1296809D02*
X1292036Y1293810D01*
X1289037D02*
X1286038D01*
X1281539Y1298309D02*
X1278540Y1301308D01*
X1275541Y1302807D01*
X1306504Y1345000D02*
Y1353997D01*
X1311003Y1349498D01*
X1305005D01*
X1314002Y1346499D02*
Y1352498D01*
X1315502Y1353997D01*
X1318501D01*
X1320000Y1352498D01*
Y1346499D01*
X1318501Y1345000D01*
X1315502D01*
X1314002Y1346499D01*
Y1345000D02*
X1317001Y1347999D01*
X1341008Y1347498D02*
Y1345998D01*
X1342507Y1344499D01*
X1344007D01*
X1342507D01*
X1341008Y1342999D01*
Y1341499D01*
X1342507Y1340000D01*
X1345506D01*
X1347006Y1341499D01*
X1350005Y1340000D02*
X1356003D01*
X1350005Y1345998D01*
Y1347498D01*
X1351504Y1348997D01*
X1354503D01*
X1356003Y1347498D01*
X1359002D02*
Y1344499D01*
X1360501Y1342999D01*
X1365000D01*
Y1340000D02*
Y1348997D01*
X1360501D01*
X1359002Y1347498D01*
X1362001Y1342999D02*
X1359002Y1340000D01*
X1347006Y1347498D02*
X1345506Y1348997D01*
X1342507D01*
X1341008Y1347498D01*
X1249746Y1387672D02*
X1248247Y1386172D01*
X1245247D01*
X1243748Y1387672D01*
X1240749Y1386172D02*
X1237750D01*
X1239249D01*
Y1395169D01*
X1240749Y1393670D01*
X1243748D02*
X1245247Y1395169D01*
X1248247D01*
X1249746Y1393670D01*
Y1387672D01*
X1233251Y1386172D02*
X1230252D01*
X1231752D01*
Y1395169D01*
X1233251Y1393670D01*
X1187794Y1363541D02*
X1189294Y1362042D01*
Y1356044D01*
X1187794Y1354544D01*
X1184796D01*
X1183296Y1356044D01*
X1180297Y1354544D02*
X1177298D01*
X1178797D01*
Y1363541D01*
X1180297Y1362042D01*
X1183296D02*
X1184796Y1363541D01*
X1187794D01*
X1171300D02*
X1172799Y1362042D01*
X1171300Y1363541D02*
X1168301D01*
X1166801Y1362042D01*
Y1360542D01*
X1172799Y1354544D01*
X1166801D01*
X1159322Y1355921D02*
X1157822Y1354422D01*
X1154824D01*
X1153324Y1355921D01*
Y1361920D02*
X1154824Y1363419D01*
X1157822D01*
X1159322Y1361920D01*
Y1355921D01*
X1150325Y1354422D02*
X1147326D01*
X1148825D01*
Y1363419D01*
X1150325Y1361920D01*
X1142827D02*
X1141328Y1363419D01*
X1138329D01*
X1136829Y1361920D01*
Y1360420D01*
X1138329Y1358920D01*
X1139828D01*
X1138329D01*
X1136829Y1357421D01*
Y1355921D01*
X1138329Y1354422D01*
X1141328D01*
X1142827Y1355921D01*
X1125000Y1343997D02*
Y1335000D01*
X1120501D01*
X1119002Y1336499D01*
Y1342498D01*
X1120501Y1343997D01*
X1125000D01*
X1114503D02*
X1116003Y1342498D01*
X1114503Y1343997D02*
Y1335000D01*
X1113004D01*
X1116003D01*
X1108505Y1339498D02*
X1102507D01*
X1104007Y1335000D02*
Y1343997D01*
X1108505Y1339498D01*
X1103091Y1276703D02*
X1109089D01*
Y1272205D01*
X1106090Y1273704D01*
X1104591D01*
X1103091Y1272205D01*
Y1269205D01*
X1104591Y1267706D01*
X1107590D01*
X1109089Y1269205D01*
X1113588Y1267706D02*
X1115087D01*
Y1276703D01*
X1116587Y1275203D01*
X1119586D02*
X1121085Y1276703D01*
X1125584D01*
Y1267706D01*
X1121085D01*
X1119586Y1269205D01*
Y1275203D01*
X1116587Y1267706D02*
X1113588D01*
X1136989Y1268977D02*
Y1265977D01*
X1138489Y1264478D01*
X1141488D01*
X1142987Y1265977D01*
Y1268977D02*
X1139988Y1270476D01*
X1138489D01*
X1136989Y1268977D01*
Y1273475D02*
X1142987D01*
Y1268977D01*
X1147486Y1264478D02*
X1148985D01*
Y1273475D01*
X1150485Y1271976D01*
Y1264478D02*
X1147486D01*
X1154984D02*
X1153484Y1265977D01*
X1154984Y1264478D02*
X1157982D01*
X1159482Y1265977D01*
Y1271976D01*
X1157982Y1273475D01*
X1154984D01*
X1153484Y1271976D01*
X1166961Y1273475D02*
X1169960Y1271976D01*
X1172959Y1268977D01*
Y1265977D01*
X1171460Y1264478D01*
X1168461D01*
X1166961Y1265977D01*
Y1267477D01*
X1168461Y1268977D01*
X1172959D01*
X1177458Y1264478D02*
X1178957D01*
Y1273475D01*
X1180457Y1271976D01*
X1183456D02*
X1184956Y1273475D01*
X1187954D01*
X1189454Y1271976D01*
Y1265977D01*
X1187954Y1264478D01*
X1184956D01*
X1183456Y1265977D01*
X1180457Y1264478D02*
X1177458D01*
X1065000Y1426499D02*
X1063501Y1425000D01*
X1060501D01*
X1059002Y1426499D01*
X1056003D02*
X1054503Y1425000D01*
X1051504D01*
X1050005Y1426499D01*
Y1427999D01*
X1051504Y1429498D01*
X1056003D01*
Y1426499D01*
Y1429498D02*
X1053004Y1432498D01*
X1050005Y1433997D01*
X1059002Y1432498D02*
X1060501Y1433997D01*
X1063501D01*
X1065000Y1432498D01*
Y1426499D01*
X1078003Y1474000D02*
Y1475500D01*
X1072005Y1481498D01*
Y1482997D01*
X1078003D01*
X1081002Y1481498D02*
X1082502Y1482997D01*
X1087000D01*
Y1474000D01*
X1082502D01*
X1081002Y1475500D01*
Y1481498D01*
X1070000Y1511499D02*
X1068501Y1510000D01*
X1065501D01*
X1064002Y1511499D01*
Y1517498D02*
X1065501Y1518997D01*
X1068501D01*
X1070000Y1517498D01*
Y1511499D01*
X1090005Y1564000D02*
X1096003D01*
X1090005Y1569998D01*
Y1571498D01*
X1091504Y1572997D01*
X1094503D01*
X1096003Y1571498D01*
X1099002Y1572997D02*
Y1565500D01*
X1100501Y1564000D01*
X1103501D01*
X1105000Y1565500D01*
Y1572997D01*
X1056504Y1518997D02*
X1061003Y1514498D01*
X1055005D01*
X1056504Y1510000D02*
Y1518997D01*
X956579Y1365423D02*
X958078Y1363924D01*
Y1357926D01*
X956579Y1356426D01*
X953579D01*
X952080Y1357926D01*
X949081D02*
Y1359425D01*
X947581Y1360925D01*
X949081Y1362424D01*
Y1363924D01*
X947581Y1365423D01*
X944582D01*
X943083Y1363924D01*
Y1362424D01*
X944582Y1360925D01*
X943083Y1359425D01*
Y1357926D01*
X944582Y1356426D01*
X947581D01*
X949081Y1357926D01*
X947581Y1360925D02*
X944582D01*
X982507Y1360998D02*
X984007Y1359499D01*
X985506D01*
X984007D01*
X982507Y1357999D01*
Y1356499D01*
X984007Y1355000D01*
X987006D01*
X988505Y1356499D01*
X993004Y1355000D02*
X994503D01*
Y1363997D01*
X996003Y1362498D01*
X999002D02*
X1000501Y1363997D01*
X1005000D01*
Y1355000D01*
X1000501D01*
X999002Y1356499D01*
Y1362498D01*
X996003Y1355000D02*
X993004D01*
X988505Y1362498D02*
X987006Y1363997D01*
X984007D01*
X982507Y1362498D01*
Y1360998D01*
X956579Y1365423D02*
X953579D01*
X952080Y1363924D01*
X908501Y1363997D02*
X910000Y1362498D01*
Y1356499D01*
X908501Y1355000D01*
X905501D01*
X904002Y1356499D01*
X901003Y1355000D02*
X898004D01*
X899503D01*
Y1363997D01*
X901003Y1362498D01*
X904002D02*
X905501Y1363997D01*
X908501D01*
X892006D02*
X889007D01*
X887507Y1362498D01*
Y1356499D01*
X889007Y1355000D01*
X892006D01*
X893505Y1356499D01*
Y1362498D01*
X892006Y1363997D01*
X878501D02*
X880000Y1362498D01*
Y1356499D01*
X878501Y1355000D01*
X875501D01*
X874002Y1356499D01*
X871003D02*
X869503Y1355000D01*
X866504D01*
X865005Y1356499D01*
Y1362498D01*
X866504Y1363997D01*
X869503D01*
X871003Y1362498D01*
Y1360998D01*
X869503Y1359499D01*
X865005D01*
X874002Y1362498D02*
X875501Y1363997D01*
X878501D01*
X827000Y1373000D02*
Y1381997D01*
X822502D01*
X821002Y1380498D01*
Y1377498D01*
X822502Y1375999D01*
X827000D01*
X824001D02*
X821002Y1373000D01*
X818003D02*
X812005Y1378998D01*
Y1380498D01*
X813504Y1381997D01*
X816503D01*
X818003Y1380498D01*
Y1373000D02*
X812005D01*
X810501Y1333997D02*
X815000D01*
Y1325000D01*
X810501D01*
X809002Y1326499D01*
Y1332498D01*
X810501Y1333997D01*
Y1303997D02*
X815000D01*
Y1295000D01*
X810501D01*
X809002Y1296499D01*
Y1302498D01*
X810501Y1303997D01*
X806003Y1325000D02*
X800005Y1330998D01*
Y1332498D01*
X801504Y1333997D01*
X804503D01*
X806003Y1332498D01*
Y1325000D02*
X800005D01*
X795506D02*
X797006Y1326499D01*
X795506Y1325000D02*
X792507D01*
X791008Y1326499D01*
Y1327999D01*
X792507Y1329498D01*
X794007D01*
X792507D01*
X791008Y1330998D01*
Y1332498D01*
X792507Y1333997D01*
X795506D01*
X797006Y1332498D01*
X795506Y1303997D02*
X797006Y1302498D01*
X800005D02*
X801504Y1303997D01*
X804503D01*
X806003Y1302498D01*
X800005D02*
Y1300998D01*
X806003Y1295000D01*
X800005D01*
X797006D02*
X791008Y1300998D01*
Y1302498D01*
X792507Y1303997D01*
X795506D01*
X797006Y1295000D02*
X791008D01*
X789503Y1263997D02*
X791003Y1262498D01*
X794002D02*
Y1259499D01*
X795501Y1257999D01*
X800000D01*
Y1255000D02*
Y1263997D01*
X795501D01*
X794002Y1262498D01*
X789503Y1263997D02*
X786504D01*
X785005Y1262498D01*
Y1260998D01*
X791003Y1255000D01*
X785005D01*
X780506D02*
X782006Y1256499D01*
Y1259499D02*
X779007Y1260998D01*
X777507D01*
X776008Y1259499D01*
Y1256499D01*
X777507Y1255000D01*
X780506D01*
X782006Y1259499D02*
Y1263997D01*
X776008D01*
X797001Y1257999D02*
X794002Y1255000D01*
X809006Y1373000D02*
Y1374500D01*
X803008Y1380498D01*
Y1381997D01*
X809006D01*
X810005Y1505000D02*
X816003D01*
X810005Y1510998D01*
Y1512498D01*
X811504Y1513997D01*
X814503D01*
X816003Y1512498D01*
X819002D02*
Y1509499D01*
X820501Y1507999D01*
X825000D01*
Y1505000D02*
Y1513997D01*
X820501D01*
X819002Y1512498D01*
X822001Y1507999D02*
X819002Y1505000D01*
X855000Y1565000D02*
X850501D01*
X849002Y1566499D01*
Y1572498D01*
X850501Y1573997D01*
X855000D01*
Y1565000D01*
X846003D02*
X840005Y1570998D01*
Y1572498D01*
X841504Y1573997D01*
X844503D01*
X846003Y1572498D01*
Y1565000D02*
X840005D01*
X837006D02*
X834007D01*
X835506D01*
Y1573997D01*
X837006Y1572498D01*
X824498Y1574117D02*
Y1565120D01*
X819999D01*
X818500Y1566620D01*
Y1572618D01*
X819999Y1574117D01*
X824498D01*
X814001D02*
X815501Y1572618D01*
X814001Y1574117D02*
X811002D01*
X809503Y1572618D01*
Y1571118D01*
X815501Y1565120D01*
X809503D01*
X805004D02*
X806504Y1566620D01*
Y1572618D01*
X805004Y1574117D01*
X802005D01*
X800506Y1572618D01*
Y1566620D01*
X802005Y1565120D01*
X805004D01*
X785622Y1555509D02*
X781124D01*
X779624Y1554010D01*
Y1551010D01*
X781124Y1549511D01*
X785622D01*
Y1546512D02*
Y1555509D01*
X782623Y1549511D02*
X779624Y1546512D01*
X776625D02*
X773626D01*
X775125D01*
Y1555509D01*
X776625Y1554010D01*
X769127D02*
X767628Y1555509D01*
X764629D01*
X763129Y1554010D01*
Y1552510D01*
X764629Y1551010D01*
X763129Y1549511D01*
Y1548011D01*
X764629Y1546512D01*
X767628D01*
X769127Y1548011D01*
Y1549511D01*
X767628Y1551010D01*
X769127Y1552510D01*
Y1554010D01*
X767628Y1551010D02*
X764629D01*
X802507Y1513997D02*
X801008Y1512498D01*
Y1506499D01*
X802507Y1505000D01*
X805506D01*
X807006Y1506499D01*
Y1512498D01*
X805506Y1513997D01*
X802507D01*
X1013005Y1624000D02*
X1019003D01*
X1013005Y1629998D01*
Y1631498D01*
X1014504Y1632997D01*
X1017503D01*
X1019003Y1631498D01*
X1022002D02*
X1023502Y1632997D01*
X1026500D01*
X1028000Y1631498D01*
Y1625500D01*
X1026500Y1624000D01*
X1023502D01*
X1022002Y1625500D01*
X1051005Y1657500D02*
X1052504Y1656000D01*
X1055503D01*
X1057003Y1657500D01*
Y1660499D02*
X1054004Y1661998D01*
X1052504D01*
X1051005Y1660499D01*
Y1657500D01*
X1060002D02*
X1061501Y1656000D01*
X1064501D01*
X1066000Y1657500D01*
Y1663498D01*
X1064501Y1664997D01*
X1061501D01*
X1060002Y1663498D01*
X1057003Y1664997D02*
Y1660499D01*
Y1664997D02*
X1051005D01*
X1051504Y1723000D02*
X1054503D01*
X1056003Y1724500D01*
X1059002D02*
Y1730498D01*
X1060501Y1731997D01*
X1065000D01*
Y1723000D01*
X1060501D01*
X1059002Y1724500D01*
X1056003Y1727499D02*
X1053004Y1728998D01*
X1051504D01*
X1050005Y1727499D01*
Y1724500D01*
X1051504Y1723000D01*
X1056003Y1727499D02*
Y1731997D01*
X1050005D01*
X1067505Y1767000D02*
Y1768499D01*
X1061507Y1774498D01*
Y1775997D01*
X1067505D01*
X1073503D02*
X1075003Y1774498D01*
X1078002D02*
X1079501Y1775997D01*
X1082501D01*
X1084000Y1774498D01*
Y1768499D01*
X1082501Y1767000D01*
X1079501D01*
X1078002Y1768499D01*
X1075003Y1767000D02*
X1072004D01*
X1073503D01*
Y1775997D01*
X1149005Y1763997D02*
X1152004Y1762498D01*
X1155003Y1759498D01*
Y1756499D01*
X1153503Y1755000D01*
X1150504D01*
X1149005Y1756499D01*
Y1757999D01*
X1150504Y1759498D01*
X1155003D01*
X1158002Y1756499D02*
Y1762498D01*
X1159501Y1763997D01*
X1164000D01*
Y1755000D01*
X1159501D01*
X1158002Y1756499D01*
X1113000Y1826499D02*
X1111500Y1825000D01*
X1108502D01*
X1107002Y1826499D01*
Y1833997D01*
X1102503D02*
X1104003Y1832498D01*
Y1825000D02*
X1101004D01*
X1102503D01*
Y1833997D01*
X1113000Y1826499D02*
Y1833997D01*
X1223041Y1835529D02*
X1224540Y1834030D01*
X1227539D01*
X1229039Y1835529D01*
Y1838529D02*
X1226040Y1840028D01*
X1224540D01*
X1223041Y1838529D01*
Y1835529D01*
Y1843027D02*
X1229039D01*
Y1838529D01*
X1232038D02*
X1233538Y1837029D01*
X1238036D01*
Y1834030D02*
Y1843027D01*
X1233538D01*
X1232038Y1841528D01*
Y1838529D01*
X1235037Y1837029D02*
X1232038Y1834030D01*
X1274657Y1838264D02*
X1280655D01*
X1274657Y1844262D01*
Y1845762D01*
X1276156Y1847261D01*
X1279155D01*
X1280655Y1845762D01*
X1283654D02*
X1285154Y1847261D01*
X1288152D01*
X1289652Y1845762D01*
Y1839763D01*
X1288152Y1838264D01*
X1285154D01*
X1283654Y1839763D01*
Y1845762D01*
X1286653Y1841263D02*
X1283654Y1838264D01*
X1326105Y1847986D02*
X1327605Y1846486D01*
X1330604D01*
X1332103Y1847986D01*
Y1853984D01*
X1330604Y1855483D01*
X1327605D01*
X1326105Y1853984D01*
Y1847986D01*
X1336602Y1846486D02*
X1338101D01*
Y1855483D01*
X1339601Y1853984D01*
X1342600D02*
Y1850984D01*
X1344099Y1849485D01*
X1348598D01*
Y1846486D02*
Y1855483D01*
X1344099D01*
X1342600Y1853984D01*
X1345599Y1849485D02*
X1342600Y1846486D01*
X1339601D02*
X1336602D01*
X1285748Y1775407D02*
X1281250D01*
X1279750Y1773908D01*
Y1770909D01*
X1281250Y1769409D01*
X1285748D01*
Y1766410D02*
Y1775407D01*
X1282749Y1769409D02*
X1279750Y1766410D01*
X1276751D02*
X1273752D01*
X1275251D01*
Y1775407D01*
X1276751Y1773908D01*
X1269253D02*
X1267754Y1775407D01*
X1264755D01*
X1263255Y1773908D01*
Y1772408D01*
X1269253Y1766410D01*
X1263255D01*
X1233564Y1583035D02*
X1232064Y1581536D01*
Y1578537D01*
X1233564Y1577037D01*
X1238062D01*
Y1583035D02*
X1233564D01*
X1227565D02*
X1229065Y1581536D01*
X1227565Y1583035D02*
Y1574038D01*
X1226066D01*
X1229065D01*
X1232064D02*
X1235063Y1577037D01*
X1221567Y1578537D02*
X1218568Y1580036D01*
X1217069D01*
X1215569Y1578537D01*
Y1575538D01*
X1217069Y1574038D01*
X1220068D01*
X1221567Y1575538D01*
X1263189Y1513812D02*
X1264689Y1515311D01*
X1267688D01*
X1269187Y1513812D01*
Y1512312D01*
X1267688Y1510813D01*
X1263189D01*
Y1507814D02*
Y1513812D01*
Y1507814D02*
X1264689Y1506314D01*
X1267688D01*
X1269187Y1507814D01*
X1273686Y1506314D02*
X1275185D01*
Y1515311D01*
X1276685Y1513812D01*
Y1506314D02*
X1273686D01*
X1279684D02*
X1282683Y1509313D01*
X1281183D02*
X1285682D01*
Y1506314D02*
Y1515311D01*
X1281183D01*
X1279684Y1513812D01*
Y1510813D01*
X1281183Y1509313D01*
X1238062Y1574038D02*
Y1583035D01*
X1274563Y1584221D02*
X1276063Y1582722D01*
X1277562D01*
X1276063D01*
X1274563Y1581222D01*
Y1579723D01*
X1276063Y1578223D01*
X1279062D01*
X1280561Y1579723D01*
X1283560D02*
Y1585721D01*
X1285060Y1587220D01*
X1288059D01*
X1289558Y1585721D01*
Y1579723D01*
X1288059Y1578223D01*
X1285060D01*
X1283560Y1579723D01*
Y1578223D02*
X1286559Y1581222D01*
X1280561Y1585721D02*
X1279062Y1587220D01*
X1276063D01*
X1274563Y1585721D01*
Y1584221D01*
X1221567Y1583035D02*
Y1578537D01*
Y1583035D02*
X1215569D01*
X1166866Y1506045D02*
Y1497048D01*
X1162367D01*
X1160868Y1498548D01*
Y1504546D01*
X1162367Y1506045D01*
X1166866D01*
X1157869Y1504546D02*
X1156369Y1506045D01*
X1153370D01*
X1151871Y1504546D01*
Y1503046D01*
X1153370Y1501547D01*
X1151871Y1500047D01*
Y1498548D01*
X1153370Y1497048D01*
X1156369D01*
X1157869Y1498548D01*
Y1500047D01*
X1156369Y1501547D01*
X1157869Y1503046D01*
Y1504546D01*
X1156369Y1501547D02*
X1153370D01*
X1324644Y1586390D02*
X1330642D01*
X1324644Y1592388D01*
Y1593888D01*
X1326143Y1595387D01*
X1329142D01*
X1330642Y1593888D01*
X1333641D02*
X1335140Y1595387D01*
X1338139D01*
X1339639Y1593888D01*
X1342638D02*
Y1590889D01*
X1344138Y1589389D01*
X1348636D01*
Y1586390D02*
Y1595387D01*
X1344138D01*
X1342638Y1593888D01*
X1345637Y1589389D02*
X1342638Y1586390D01*
X1339639D02*
X1333641Y1592388D01*
Y1593888D01*
Y1586390D02*
X1339639D01*
X1037000Y1882500D02*
X1035500Y1881000D01*
X1032502D01*
X1031002Y1882500D01*
X1028003Y1881000D02*
X1025004D01*
X1026503D01*
Y1889997D01*
X1028003Y1888498D01*
X1031002D02*
X1032502Y1889997D01*
X1035500D01*
X1037000Y1888498D01*
Y1882500D01*
X1050005Y1928499D02*
X1051504Y1927000D01*
X1054503D01*
X1056003Y1928499D01*
X1059002D02*
X1060501Y1927000D01*
X1063501D01*
X1065000Y1928499D01*
Y1934498D01*
X1063501Y1935997D01*
X1060501D01*
X1059002Y1934498D01*
X1056003D02*
X1054503Y1935997D01*
X1051504D01*
X1050005Y1934498D01*
Y1932998D01*
X1051504Y1931499D01*
X1053004D01*
X1051504D01*
X1050005Y1929999D01*
Y1928499D01*
X1053004Y1997000D02*
X1054503D01*
Y2005997D01*
X1056003Y2004498D01*
X1059002D02*
X1060501Y2005997D01*
X1065000D01*
Y1997000D01*
X1060501D01*
X1059002Y1998499D01*
Y2004498D01*
X1056003Y1997000D02*
X1053004D01*
X1151937Y1974398D02*
X1153436Y1975897D01*
X1156435D01*
X1157935Y1974398D01*
X1160934D02*
X1162433Y1975897D01*
X1166932D01*
Y1966900D01*
X1162433D01*
X1160934Y1968400D01*
Y1974398D01*
X1151937D02*
Y1972898D01*
X1157935Y1966900D01*
X1151937D01*
X1280753Y2037912D02*
X1282252Y2036412D01*
X1285251D01*
X1286751Y2037912D01*
X1289750Y2036412D02*
X1292749Y2039411D01*
X1291250D02*
X1295748D01*
Y2036412D02*
Y2045409D01*
X1291250D01*
X1289750Y2043910D01*
Y2040910D01*
X1291250Y2039411D01*
X1286751Y2043910D02*
X1285251Y2045409D01*
X1282252D01*
X1280753Y2043910D01*
Y2042410D01*
X1282252Y2040910D01*
X1283752D01*
X1282252D01*
X1280753Y2039411D01*
Y2037912D01*
X1364002Y2095000D02*
X1367001Y2097999D01*
X1365501D02*
X1370000D01*
Y2095000D02*
Y2103997D01*
X1365501D01*
X1364002Y2102498D01*
Y2099498D01*
X1365501Y2097999D01*
X1361003Y2096499D02*
X1359503Y2095000D01*
X1356504D01*
X1355005Y2096499D01*
Y2102498D01*
X1356504Y2103997D01*
X1359503D01*
X1361003Y2102498D01*
Y2100998D01*
X1359503Y2099498D01*
X1355005D01*
X1279652Y2109700D02*
X1278152Y2108200D01*
X1275154D01*
X1273654Y2109700D01*
Y2115698D01*
X1275154Y2117197D01*
X1278152D01*
X1279652Y2115698D01*
Y2109700D01*
X1276653Y2111199D02*
X1273654Y2108200D01*
X1270655D02*
X1267656D01*
X1269155D01*
Y2117197D01*
X1270655Y2115698D01*
X1228262Y2112907D02*
X1223764D01*
X1222264Y2111408D01*
Y2108409D01*
X1223764Y2106909D01*
X1228262D01*
Y2103910D02*
Y2112907D01*
X1225263Y2106909D02*
X1222264Y2103910D01*
X1214766D02*
Y2112907D01*
X1219265Y2108409D01*
X1213267D01*
X865000Y2103997D02*
Y2095000D01*
X860501D01*
X859002Y2096499D01*
Y2102498D01*
X860501Y2103997D01*
X865000D01*
X854503D02*
X856003Y2102498D01*
X854503Y2103997D02*
Y2095000D01*
X853004D01*
X856003D01*
X848505D02*
Y2096499D01*
X842507Y2102498D01*
Y2103997D01*
X848505D01*
X829470Y2104243D02*
Y2095246D01*
X824971D01*
X823472Y2096745D01*
Y2102744D01*
X824971Y2104243D01*
X829470D01*
X818973D02*
X820473Y2102744D01*
X818973Y2104243D02*
Y2095246D01*
X817474D01*
X820473D01*
X812975Y2096745D02*
X811476Y2095246D01*
X808477D01*
X806977Y2096745D01*
Y2098245D01*
X808477Y2099745D01*
X812975D01*
Y2096745D01*
Y2099745D02*
X809976Y2102744D01*
X806977Y2104243D01*
X785716Y2085447D02*
X781217D01*
X779718Y2083948D01*
Y2080948D01*
X781217Y2079449D01*
X785716D01*
Y2076450D02*
Y2085447D01*
X782717Y2079449D02*
X779718Y2076450D01*
X776719D02*
X770721Y2082448D01*
Y2083948D01*
X772220Y2085447D01*
X775219D01*
X776719Y2083948D01*
Y2076450D02*
X770721D01*
X813111Y2042841D02*
X816110Y2041342D01*
X819109Y2038342D01*
Y2035343D01*
X817609Y2033844D01*
X814610D01*
X813111Y2035343D01*
Y2036843D01*
X814610Y2038342D01*
X819109D01*
X822108D02*
X823607Y2036843D01*
X828106D01*
Y2033844D02*
Y2042841D01*
X823607D01*
X822108Y2041342D01*
Y2038342D01*
X825107Y2036843D02*
X822108Y2033844D01*
X808345Y1834119D02*
X806845Y1832620D01*
Y1831120D01*
X808345Y1829621D01*
X806845Y1828121D01*
Y1826622D01*
X808345Y1825122D01*
X811344D01*
X812843Y1826622D01*
Y1828121D01*
X811344Y1829621D01*
X812843Y1831120D01*
Y1832620D01*
X811344Y1834119D01*
X808345D01*
Y1829621D02*
X811344D01*
X817342Y1825122D02*
X818841D01*
Y1834119D01*
X820341Y1832620D01*
X823340D02*
X824839Y1834119D01*
X829338D01*
Y1825122D01*
X824839D01*
X823340Y1826622D01*
Y1832620D01*
X820341Y1825122D02*
X817342D01*
X842507Y1826499D02*
Y1832498D01*
X844007Y1833997D01*
X847006D01*
X848505Y1832498D01*
Y1830998D01*
X847006Y1829499D01*
X842507D01*
Y1826499D02*
X844007Y1825000D01*
X847006D01*
X848505Y1826499D01*
X828199Y1772903D02*
X823701D01*
X822201Y1771404D01*
Y1768405D01*
X823701Y1766905D01*
X828199D01*
Y1763906D02*
Y1772903D01*
X825200Y1766905D02*
X822201Y1763906D01*
X819202D02*
X816203D01*
X817703D01*
Y1772903D01*
X819202Y1771404D01*
X811705D02*
X810205Y1772903D01*
X807206D01*
X805707Y1771404D01*
Y1769904D01*
X807206Y1768405D01*
X808706D01*
X807206D01*
X805707Y1766905D01*
Y1765406D01*
X807206Y1763906D01*
X810205D01*
X811705Y1765406D01*
X853004Y1825000D02*
X854503D01*
Y1833997D01*
X856003Y1832498D01*
X859002D02*
X860501Y1833997D01*
X865000D01*
Y1825000D01*
X860501D01*
X859002Y1826499D01*
Y1832498D01*
X856003Y1825000D02*
X853004D01*
X785716Y1815511D02*
X781217D01*
X779718Y1814012D01*
Y1811013D01*
X781217Y1809513D01*
X785716D01*
Y1806514D02*
Y1815511D01*
X782717Y1809513D02*
X779718Y1806514D01*
X776719D02*
X773720D01*
X775219D01*
Y1815511D01*
X776719Y1814012D01*
X769221D02*
X767722Y1815511D01*
Y1806514D01*
X766222D01*
X769221D01*
D57*
X1043500Y1149750D02*
G03*
X1043500Y1149750I-1250J0D01*
G01*
X1049250Y1150000D02*
G03*
X1049250Y1150000I-1250J0D01*
G01*
X1171000Y1127750D02*
G03*
X1171000Y1127750I-1250J0D01*
G01*
X1253250Y1197750D02*
G03*
X1253250Y1197750I-1250J0D01*
G01*
Y1297750D02*
G03*
X1253250Y1297750I-1250J0D01*
G01*
X1292250Y1330000D02*
G03*
X1292250Y1330000I-1250J0D01*
G01*
X1171000Y1467750D02*
G03*
X1171000Y1467750I-1250J0D01*
G01*
X1071000Y1467750D02*
G03*
X1071000Y1467750I-1250J0D01*
G01*
X1071250Y1462000D02*
G03*
X1071250Y1462000I-1250J0D01*
G01*
X994650Y1594000D02*
G03*
X994650Y1594000I-1250J0D01*
G01*
X1071250Y1691000D02*
G03*
X1071250Y1691000I-1250J0D01*
G01*
X1071000Y1695750D02*
G03*
X1071000Y1695750I-1250J0D01*
G01*
X1171000Y1727750D02*
G03*
X1171000Y1727750I-1250J0D01*
G01*
X1281250Y1829000D02*
G03*
X1281250Y1829000I-1250J0D01*
G01*
X1171000Y1937750D02*
G03*
X1171000Y1937750I-1250J0D01*
G01*
X1071250Y1962000D02*
G03*
X1071250Y1962000I-1250J0D01*
G01*
X1071000Y1967750D02*
G03*
X1071000Y1967750I-1250J0D01*
G01*
X1004650Y1854000D02*
G03*
X1004650Y1854000I-1250J0D01*
G01*
X833500Y1819750D02*
G03*
X833500Y1819750I-1250J0D01*
G01*
X839000Y1780250D02*
G03*
X839000Y1780250I-1250J0D01*
G01*
X828500Y1559750D02*
G03*
X828500Y1559750I-1250J0D01*
G01*
X834000Y1520250D02*
G03*
X834000Y1520250I-1250J0D01*
G01*
X751500Y1342250D02*
G03*
X751500Y1342250I-1250J0D01*
G01*
X791000Y1287750D02*
G03*
X791000Y1287750I-1250J0D01*
G01*
X859250Y1350000D02*
G03*
X859250Y1350000I-1250J0D01*
G01*
X889250D02*
G03*
X889250Y1350000I-1250J0D01*
G01*
X919250Y1352250D02*
G03*
X919250Y1352250I-1250J0D01*
G01*
X971500D02*
G03*
X971500Y1352250I-1250J0D01*
G01*
X1091500Y1262250D02*
G03*
X1091500Y1262250I-1250J0D01*
G01*
X1131000Y1307750D02*
G03*
X1131000Y1307750I-1250J0D01*
G01*
X1163250Y1310000D02*
G03*
X1163250Y1310000I-1250J0D01*
G01*
X1193250D02*
G03*
X1193250Y1310000I-1250J0D01*
G01*
Y1220000D02*
G03*
X1193250Y1220000I-1250J0D01*
G01*
X1163250D02*
G03*
X1163250Y1220000I-1250J0D01*
G01*
X1281250Y1569000D02*
G03*
X1281250Y1569000I-1250J0D01*
G01*
X839000Y2050250D02*
G03*
X839000Y2050250I-1250J0D01*
G01*
X833500Y2089750D02*
G03*
X833500Y2089750I-1250J0D01*
G01*
X1271250Y2099000D02*
G03*
X1271250Y2099000I-1250J0D01*
G01*
D58*
X1065902Y1177982D02*
X1072250D01*
Y1173750D02*
Y1186446D01*
X1065902D01*
X1063786Y1184330D01*
Y1180098D01*
X1065902Y1177982D01*
X1068018D02*
X1063786Y1173750D01*
X1059554D02*
X1051090D01*
X1046858D02*
X1040510D01*
X1038394Y1175866D01*
Y1184330D01*
X1040510Y1186446D01*
X1046858D01*
Y1173750D01*
X1059554D02*
Y1186446D01*
X1051090D01*
X1055322Y1180098D02*
X1059554D01*
M02*
